<?xml version="1.0" standalone="no"?>
<!DOCTYPE svg PUBLIC "-//W3C//DTD SVG 20010904//EN"
 "http://www.w3.org/TR/2001/REC-SVG-20010904/DTD/svg10.dtd">
<svg version="1.0" xmlns="http://www.w3.org/2000/svg"
 width="700.000000pt" height="700.000000pt" viewBox="0 0 700.000000 700.000000"
 preserveAspectRatio="xMidYMid meet">
<metadata>
Created by potrace 1.11, written by Peter Selinger 2001-2013
</metadata>
<g transform="translate(0.000000,700.000000) scale(0.100000,-0.100000)"
fill="#000000" stroke="none">
<path d="M4687 6989 c-125 -29 -238 -134 -279 -259 -42 -126 -6 -285 87 -383
26 -27 27 -31 25 -150 0 -67 -3 -142 -5 -167 -12 -131 -16 -162 -29 -236 -58
-329 -182 -613 -364 -831 -27 -32 -248 -257 -491 -501 l-443 -443 -93 90 c-51
50 -105 93 -119 97 -53 13 -94 -5 -163 -70 l-67 -63 -110 108 -110 109 58 57
c67 67 85 97 80 138 -6 59 -15 75 -51 100 -40 27 -75 31 -120 15 -33 -13 -427
-402 -450 -445 -41 -76 3 -165 88 -180 50 -9 89 10 157 77 l58 57 109 -109
110 -110 -63 -63 c-66 -67 -83 -110 -68 -170 3 -13 46 -65 96 -115 l89 -91
-74 -76 c-42 -41 -79 -75 -83 -75 -4 0 -45 38 -91 85 -127 128 -178 132 -286
25 l-63 -62 -106 107 c-58 58 -106 109 -106 113 0 3 28 34 61 68 56 56 62 67
66 111 8 96 -44 141 -156 134 -18 -1 -86 -61 -239 -213 -117 -117 -218 -222
-224 -232 -16 -29 -17 -88 -2 -118 21 -41 69 -70 114 -70 50 1 56 5 130 76 70
68 48 76 191 -68 l88 -89 -63 -68 c-106 -115 -100 -156 41 -293 40 -39 73 -74
73 -78 0 -4 -34 -41 -76 -83 l-75 -75 -87 86 c-96 94 -113 105 -174 102 -37
-1 -50 -9 -115 -71 l-74 -71 -109 109 -109 109 61 63 c77 78 87 97 83 152 -7
77 -82 126 -162 106 -31 -7 -434 -401 -459 -447 -20 -38 -17 -87 6 -125 22
-36 40 -48 90 -56 47 -8 78 8 145 72 l57 54 109 -109 109 -109 -54 -55 c-63
-65 -76 -87 -76 -132 1 -46 15 -67 108 -162 l83 -83 -469 -469 c-257 -258
-476 -480 -484 -494 -15 -23 -22 -59 -19 -103 1 -10 24 -42 51 -71 l51 -54
-51 -51 c-74 -75 -90 -136 -51 -195 26 -38 57 -55 104 -56 48 0 80 17 136 74
l45 45 38 -35 c21 -18 48 -35 61 -35 70 -5 91 4 166 69 37 33 172 155 200 180
31 29 132 118 181 161 19 16 35 29 37 28 1 -1 3 -37 4 -80 7 -251 99 -465 274
-643 103 -105 222 -178 380 -232 116 -40 319 -50 457 -22 194 40 327 111 476
255 34 33 67 61 71 63 5 2 25 -8 45 -22 20 -14 58 -32 84 -40 266 -88 540 117
526 394 -3 75 -16 120 -54 186 l-32 56 78 78 77 78 38 -24 c77 -48 118 -59
224 -59 92 0 105 3 165 32 83 40 153 111 192 192 58 121 47 281 -28 390 l-24
36 79 79 79 79 28 -20 c120 -82 299 -90 424 -19 128 72 209 217 204 361 -2 80
-22 138 -75 223 -13 20 3 38 248 284 302 303 293 293 348 378 97 150 145 306
149 488 11 400 -250 775 -623 897 -66 21 -67 20 92 101 135 69 332 135 502
167 168 32 218 38 404 43 l154 4 36 -27 c20 -15 38 -30 41 -34 3 -3 23 -15 45
-26 158 -79 332 -53 453 68 122 122 147 327 58 469 -42 66 -1710 1737 -1781
1784 -27 18 -67 39 -88 46 -49 15 -161 21 -210 9z m62 -3353 c59 -31 88 -104
69 -174 -7 -24 -78 -102 -267 -292 l-258 -258 -107 107 -106 106 253 252 c153
153 266 258 287 267 40 17 86 14 129 -8z m-1029 -1290 c0 -3 -34 -40 -76 -82
l-76 -77 -106 107 -106 107 79 79 78 78 103 -103 c57 -57 104 -105 104 -109z
m-822 -620 l103 -104 -75 -76 c-41 -42 -78 -76 -82 -76 -4 0 -53 46 -110 103
l-102 102 76 78 c42 42 79 77 82 77 3 0 51 -47 108 -104z m-666 -874 c-26 -24
-61 -51 -79 -58 -85 -36 -187 27 -200 123 -6 49 13 92 70 151 l41 42 108 -107
107 -106 -47 -45z"/>
</g>
</svg>
