<?xml version="1.0" encoding="utf-8"?>
<!-- Generator: Adobe Illustrator 21.0.0, SVG Export Plug-In . SVG Version: 6.00 Build 0)  -->
<svg version="1.1" id="Layer_1" xmlns="http://www.w3.org/2000/svg" xmlns:xlink="http://www.w3.org/1999/xlink" x="0px" y="0px"
	 viewBox="0 0 107.8 222.6" style="enable-background:new 0 0 107.8 222.6;" xml:space="preserve">
<style type="text/css">
	.st0{fill:#F7DEC0;stroke:#F7DEC0;stroke-linecap:round;stroke-miterlimit:10;}
	.st1{fill:#FFFFFF;}
</style>
<ellipse transform="matrix(0.772 -0.6356 0.6356 0.772 -99.6926 74.438)" class="st0" cx="53.9" cy="176.2" rx="66.5" ry="23.1"/>
<g>
	<g>
		<path class="st1" d="M85,7c4.2,0.9,8.5-1,10.7-4.8c1-1.7-1.6-3.2-2.6-1.5c-1.5,2.6-4.4,4-7.3,3.4C83.9,3.7,83.1,6.6,85,7L85,7z"/>
	</g>
</g>
<g>
	<g>
		<path class="st1" d="M88.4,10.8C91,9.9,93.6,9,96.2,8.2c1.8-0.6,1-3.5-0.8-2.9c-2.6,0.9-5.2,1.7-7.8,2.6
			C85.8,8.5,86.6,11.4,88.4,10.8L88.4,10.8z"/>
	</g>
</g>
</svg>
