<?xml version="1.0" encoding="utf-8"?>
<!-- Generator: Adobe Illustrator 21.0.0, SVG Export Plug-In . SVG Version: 6.00 Build 0)  -->
<svg version="1.1" id="Layer_1" xmlns="http://www.w3.org/2000/svg" xmlns:xlink="http://www.w3.org/1999/xlink" x="0px" y="0px"
	 viewBox="0 0 49.1 49" style="enable-background:new 0 0 49.1 49;" xml:space="preserve">
<style type="text/css">
	.st0{fill:#F7DEC0;}
</style>
<g>
	<path class="st0" d="M45.4,47.4c-11.9,0.3-23.9-4.6-32.1-13.2S0.7,13.4,1.6,1.5C10.9,20.9,37,27,47.6,45.7L45.4,47.4z"/>
	<g>
		<path class="st0" d="M45.4,45.9C20.9,46.1,1.7,25.9,3.1,1.5C2.1,1.8,1.2,2,0.3,2.3c10,19.9,34.9,25.3,46,44.2
			c0.2-0.7,0.4-1.4,0.5-2.1c-0.7,0.6-1.5,1.1-2.2,1.7c-1.5,1.2,0,3.8,1.5,2.6c0.7-0.6,1.5-1.1,2.2-1.7c0.6-0.5,1-1.3,0.5-2.1
			C37.7,26,12.8,20.5,2.9,0.7C2.2-0.7,0.1,0.1,0.1,1.5c-1.4,26,19.3,47.6,45.3,47.4C47.3,48.9,47.3,45.9,45.4,45.9z"/>
	</g>
</g>
</svg>
