<?xml version="1.0" encoding="utf-8"?>
<!-- Generator: Adobe Illustrator 21.0.0, SVG Export Plug-In . SVG Version: 6.00 Build 0)  -->
<svg version="1.1" id="Layer_1" xmlns="http://www.w3.org/2000/svg" xmlns:xlink="http://www.w3.org/1999/xlink" x="0px" y="0px"
	 viewBox="0 0 134.6 344.2" style="enable-background:new 0 0 134.6 344.2;" xml:space="preserve">
<style type="text/css">
	.st0{fill:#F7DEC0;stroke:#F7DEC0;stroke-linecap:round;stroke-miterlimit:10;}
	.st1{fill:#E6E7E8;stroke:#E6E6E6;stroke-linecap:round;stroke-miterlimit:10;}
	.st2{fill:#FFFFFF;}
	.st3{fill:#FCEE21;}
</style>
<g>
	
		<ellipse transform="matrix(0.772 -0.6356 0.6356 0.772 -140.5623 89.0969)" class="st0" cx="53.9" cy="240.5" rx="66.5" ry="23.1"/>
	<rect x="97.6" y="26.4" class="st1" width="11" height="291.9"/>
	<ellipse class="st1" cx="103.4" cy="16.7" rx="16.3" ry="16.2"/>
	<g>
		<g>
			<path class="st2" d="M104,20.3c4.2,0.9,8.5-1,10.7-4.8c1-1.7-1.6-3.2-2.6-1.5c-1.5,2.6-4.4,4-7.3,3.4
				C102.9,17,102.1,19.9,104,20.3L104,20.3z"/>
		</g>
	</g>
	<g>
		<g>
			<path class="st2" d="M107.4,24.1c2.6-0.9,5.2-1.7,7.8-2.6c1.8-0.6,1-3.5-0.8-2.9c-2.6,0.9-5.2,1.7-7.8,2.6
				C104.8,21.8,105.6,24.7,107.4,24.1L107.4,24.1z"/>
		</g>
	</g>
	<g>
		<g>
			<path class="st2" d="M106,23.7c2.3,2.4,6.3,2.4,8.6,0c1.3-1.4-0.8-3.5-2.1-2.1c-1.2,1.2-3.2,1.2-4.4,0
				C106.8,20.2,104.7,22.3,106,23.7L106,23.7z"/>
		</g>
	</g>
	<g>
		<g>
			<path class="st2" d="M113.3,14c0.6,3.2-0.6,6.6-3.2,8.6c-1.5,1.2,0,3.8,1.5,2.6c3.8-2.9,5.5-7.4,4.6-12
				C115.9,11.3,113,12.1,113.3,14L113.3,14z"/>
		</g>
	</g>
	<g>
		<g>
			<path class="st2" d="M114.1,16.2c-3.9,2.6-7.8,5.2-11.7,7.8c-1.6,1.1-0.1,3.7,1.5,2.6c3.9-2.6,7.8-5.2,11.7-7.8
				C117.2,17.7,115.7,15.1,114.1,16.2L114.1,16.2z"/>
		</g>
	</g>
	<g>
		<g>
			<path class="st3" d="M92.7,50.6c8.2,1.1,16.4-3.1,19.7-10.8c0.8-1.8-1.8-3.3-2.6-1.5c-2.8,6.4-9.4,10.4-16.3,9.4
				C91.6,47.4,90.8,50.3,92.7,50.6L92.7,50.6z"/>
		</g>
	</g>
	<g>
		<g>
			<path class="st3" d="M96.1,47.9c-0.5-2.2-3.8-2.9-4.8-0.6c-1.1,2.6,3.2,5.1,5.1,5.8c9.8,3.1,15.6-6.8,18.1-14.6
				c0.6-1.8-2.3-2.6-2.9-0.8c-1.3,4.1-3.1,9-6.9,11.5c-1.5,0.9-3.2,1.5-4.9,1.4c-1.1,0-2.2-0.2-3.2-0.7c-0.1,0-3.7-2.3-3.4-1.1
				C93.7,50.5,96.6,49.7,96.1,47.9L96.1,47.9z"/>
		</g>
	</g>
	<g>
		<g>
			<path class="st3" d="M92.5,64.2c8,2.5,16.9-2.7,18.7-10.9c0.4-1.9-2.5-2.7-2.9-0.8c-1.4,6.7-8.5,10.8-15,8.8
				C91.4,60.8,90.6,63.7,92.5,64.2L92.5,64.2z"/>
		</g>
	</g>
	<g>
		<g>
			<path class="st3" d="M96.1,64.5c1.9,0,1.9-3,0-3C94.2,61.5,94.2,64.5,96.1,64.5L96.1,64.5z"/>
		</g>
	</g>
	<g>
		<g>
			<path class="st3" d="M92.3,62.2c-1.5,1.6-1.5,3.8,0,5.6c1.8,2,4.5,1.8,6.8,0.7c6.1-2.8,12.5-7.9,14.4-14.5
				c0.4-1.4-1.5-2.6-2.5-1.5c-4.1,5-9,8.9-14.8,11.9c0.7,0.2,1.4,0.4,2.1,0.5c0.1-0.5,0.2-0.9,0.3-1.4c1.9-0.5,1.1-3.4-0.8-2.9
				c-2.6,0.7-3.8,3.6-2.1,5.8c0.5,0.7,1.3,0.9,2.1,0.5c6-3.1,11.1-7.2,15.4-12.3c-0.8-0.5-1.7-1-2.5-1.5c-0.9,3.3-3.1,5.8-5.7,7.9
				c-1.3,1.1-2.8,2-4.3,3c-0.6,0.4-1.3,0.8-2,1.2c-1.6,1.4-3.1,1.1-4.3-1C95.7,62.9,93.6,60.8,92.3,62.2L92.3,62.2z"/>
		</g>
	</g>
	<g>
		<g>
			<path class="st3" d="M93.6,79c6.9,2,14.5-2.5,16-9.6c0.4-1.9-2.5-2.7-2.9-0.8c-1.1,5.5-6.9,9.1-12.3,7.5
				C92.5,75.5,91.7,78.4,93.6,79L93.6,79z"/>
		</g>
	</g>
	<g>
		<g>
			<path class="st3" d="M92.5,80.8c8.1,1.2,15.9-3.3,18.8-11c-1-0.1-2-0.3-2.9-0.4c-0.4,3.3-2.9,5.8-6.1,6.1c-1.9,0.2-1.9,3.2,0,3
				c5-0.6,8.6-4.1,9.1-9.1c0.2-1.8-2.4-1.9-2.9-0.4c-2.3,6-8.7,9.9-15.1,8.9C91.4,77.6,90.5,80.5,92.5,80.8L92.5,80.8z"/>
		</g>
	</g>
	<g>
		<g>
			<path class="st3" d="M93.5,97.4c8.2-1.3,14.8-7,17.6-14.8c0.6-1.8-2.2-2.6-2.9-0.8c-2.4,6.8-8.4,11.6-15.5,12.7
				C90.8,94.8,91.6,97.6,93.5,97.4L93.5,97.4z"/>
		</g>
	</g>
	<g>
		<g>
			<path class="st3" d="M94.6,96c-0.1-1.5,0.4-2.6,1.5-3.5c-0.8-0.6-1.6-1.2-2.4-1.8c-0.1,0.1-0.2,0.3-0.3,0.4
				c-0.4,0.6-0.2,1.3,0.2,1.8c2.3,2.7,7.5,0.6,10.2-0.6c4.3-1.9,7.7-5,10.1-9c-0.9-0.5-1.7-1-2.6-1.5c-3.3,6.6-9,11.3-16.1,13.2
				c0.6,0.5,1.3,1,1.9,1.4c0.1-0.9,0.1-1.7,0.2-2.6c0.1-1.9-2.9-1.9-3,0c-0.1,0.9-0.1,1.7-0.2,2.6c-0.1,1,1,1.7,1.9,1.4
				c7.8-2.1,14.3-7.3,17.9-14.6c0.9-1.7-1.6-3.2-2.6-1.5c-1.7,2.7-3.8,5-6.5,6.6c-1.6,0.9-7.5,4.1-9.1,2.3c0.1,0.6,0.2,1.2,0.2,1.8
				c0.1-0.1,0.2-0.3,0.3-0.4c0.9-1.5-1.1-2.9-2.4-1.8c-1.7,1.6-2.4,3.3-2.4,5.6C91.6,97.9,94.6,98,94.6,96L94.6,96z"/>
		</g>
	</g>
	<g>
		<g>
			<path class="st3" d="M98.2,77.9c-0.7-0.6-1.3-1.2-1.6-1.9c0-0.1-0.1,0.1-0.2,0.1c0.2-0.1,0.2-0.1,0,0c-0.2,0-0.2,0,0,0
				c0.2,0,0.2,0,0,0c0,0,0.1,0,0.1,0c-0.3-0.1,0.4,0.2,0.1,0c0.1,0.1,0.1,0.1,0.1,0c0.1,0.1,0.1,0.2,0.1,0.1c0-0.1,0-0.1,0-0.2
				c0,0.2,0,0.2,0,0c0.1-0.1,0.3-0.4,0.1-0.2c0.2-0.1-0.1,0,0.1,0c-0.1,0-0.2,0-0.3,0c0.2,0,0.2,0,0,0c-0.3-0.1,0.1,0.1-0.2-0.1
				c-0.1-0.1-0.2-0.1,0,0c-0.1-0.1-0.1-0.1,0,0c0.1,0.2,0.1,0.2,0,0c0,0.2,0,0.2,0,0c0.1-0.8-0.7-1.5-1.5-1.5
				c-0.9,0-1.4,0.7-1.5,1.5c-0.2,1.9,1.8,3.2,3.6,3.1c2.1-0.2,3.4-2.5,2.1-4.3c-1.1-1.6-3.7-2.1-5-0.5c-1.8,2.1,0.1,4.7,1.8,6
				c0.6,0.5,1.5,0.6,2.1,0C98.7,79.5,98.9,78.4,98.2,77.9L98.2,77.9z"/>
		</g>
	</g>
	<g>
		<g>
			<path class="st3" d="M107.7,104.2c-1.2,1.7-2.9,3.3-5,3.6c-2.3,0.3-5.5-1.6-4.3-4.4c0.7-1.6-1-2.9-2.4-1.8
				c-4.8,3.9-1.7,11.4,3.8,12.4c7.9,1.4,12.4-6.5,13.9-13c-1-0.1-2-0.3-2.9-0.4c0.2,4.5-3.1,8.6-7.7,9.1c-1.9,0.2-1.9,3.2,0,3
				c6.2-0.7,10.9-5.8,10.7-12.1c-0.1-1.6-2.6-2.1-2.9-0.4c-1,4.3-2.8,9.4-7.5,10.7c-2.1,0.6-4.5,0.3-5.8-1.6
				c-1.3-1.8-1.1-4.1,0.7-5.5c-0.8-0.6-1.6-1.2-2.4-1.8c-1.5,3.5,0.3,7.4,3.9,8.7c4.2,1.5,8.2-1.5,10.6-4.8
				C111.4,104.1,108.8,102.6,107.7,104.2L107.7,104.2z"/>
		</g>
	</g>
	<g>
		<g>
			<path class="st3" d="M110.6,118.5c-2.1,2.1-4.2,4.3-6.3,6.4c-0.8,0.9-1.7,1.8-2.6,2.6c-0.5,0.5-1.1,1-1.7,1.3
				c-1.8,1.2-2.8,0.6-2.9-1.8c1.7-0.4,1.2-2.8-0.4-2.9c-3-0.3-5.4,2.4-5.3,5.4c0.1,3.5,3.4,5.6,6.6,6c8.2,1.1,15.1-6.5,15.4-14.3
				c-1,0.1-2,0.3-2.9,0.4c0.5,3.2-1.9,6.2-5.1,6.6c0.5,0.6,1,1.3,1.4,1.9c0.5-0.6,0.9-1.1,1.4-1.7c-0.6-0.8-1.2-1.6-1.8-2.4
				c-0.6,0.4-1.2,0.8-1.8,1.2c0.5,0.8,1,1.7,1.5,2.5c1.2-1.5,2.4-3,3.5-4.6c1.2-1.5-0.9-3.6-2.1-2.1c-1.2,1.5-2.4,3-3.5,4.6
				c-0.9,1.1-0.1,2.9,1.5,2.5c1.4-0.4,2.2-0.9,3.1-2c1-1.3-0.2-3.3-1.8-2.4c-1.5,0.8-2.3,1.8-2.8,3.5c-0.3,0.9,0.5,2,1.4,1.9
				c5.3-0.6,8.8-5.1,8-10.4c-0.3-1.7-2.9-1.2-2.9,0.4c-0.1,4.1-2.2,7.7-5.7,9.8c-1.6,1-3.5,1.6-5.4,1.5c-1,0-2.3-0.2-3.1-0.8
				c-1.4-0.9-2.7-5,0.7-4.7c-0.1-1-0.3-2-0.4-2.9c-4.5,1.1-3.6,7.1,0.6,8.1c2.3,0.5,4.5-0.5,6.2-2c3.5-2.8,6.5-6.5,9.6-9.7
				C114.1,119.2,111.9,117.1,110.6,118.5L110.6,118.5z"/>
		</g>
	</g>
	<g>
		<g>
			<path class="st3" d="M109.7,142.2c-6.4,3.6-12.8,7.2-19.1,10.9c-1.2,0.7-0.8,2.3,0.4,2.7c5.8,2.1,11.1-1,15.5-4.6
				c3.4-2.7,7.9-7.4,4.9-11.9c-0.7-1.1-2.3-0.9-2.7,0.4c-1.7,4.6-5,8-9.5,10.1c0.6,0.8,1.2,1.6,1.8,2.4c1-1,2.1-2,3.1-3.1
				c1.3-1.3-0.3-3.1-1.8-2.4c-1.7,0.8-3,1.8-4.3,3.2c-1.3,1.4,0.8,3.5,2.1,2.1c1.1-1.2,2.2-2,3.7-2.7c-0.6-0.8-1.2-1.6-1.8-2.4
				c-1,1-2.1,2-3.1,3.1c-1.3,1.3,0.3,3,1.8,2.4c5.2-2.4,8.9-6.5,10.9-11.9c-0.9,0.1-1.8,0.2-2.7,0.4c2.5,3.7-3.8,7.9-6.2,9.6
				c-3.3,2.3-6.9,4-10.9,2.5c0.1,0.9,0.2,1.8,0.4,2.7c6.3-3.7,12.7-7.3,19.1-10.9C112.8,143.8,111.3,141.2,109.7,142.2L109.7,142.2z
				"/>
		</g>
	</g>
	<g>
		<g>
			<path class="st3" d="M109.6,154.3c-2.4,5.8-7.6,16-15.5,11.5c-0.5-0.3-1.1-0.3-1.5,0c-2.1,1.3-2.4,4-0.6,5.7
				c2.3,2.3,6.6,1.8,9.4,0.9c7.3-2.2,12.4-9.6,11.6-17.2c-0.2-1.9-2.9-2-3,0c-0.3,6-3.9,10.8-9.4,13.2c-1.8,0.8-0.2,3.3,1.5,2.6
				c6.4-2.7,10.5-8.8,10.9-15.8c-1,0-2,0-3,0c0.4,4.2-1,8-4,11c-1.3,1.3-2.9,2.3-4.6,3c-1.1,0.4-2.2,0.7-3.4,0.8c-0.3,0-0.7,0-1,0
				c-1.4,0.2-2.4-0.3-2.9-1.7c-0.5,0-1,0-1.5,0c9.6,5.4,16.4-5.1,19.6-12.6C112.9,154,110.3,152.5,109.6,154.3L109.6,154.3z"/>
		</g>
	</g>
	<g>
		<g>
			<path class="st3" d="M94.6,189.9c9.5,2.3,19.6-4.1,21.4-13.9c0.2-1.1-0.7-2.2-1.8-1.8c-6.5,1.7-8.5,9-14.6,11.1
				c-2,0.7-3.9-0.7-5.6,0.6c-1.2,0.9-1.5,2.5-1.2,3.9c0.8,4,5.2,4.1,8.2,2.6c5.4-2.7,9.7-8.3,12.8-13.4c1-1.6-1.6-3.2-2.6-1.5
				c-2.1,3.4-4.6,6.5-7.6,9.2c-0.7,0.7-1.5,1.3-2.3,1.9c-1.5,1.1-1.5,1.4-3.4,0.6c-3.1-1.3,0-0.4,1.4-0.7c6.9-1.4,9.1-9.7,15.6-11.4
				c-0.6-0.6-1.2-1.2-1.8-1.8c-1.4,8.1-9.6,13.7-17.7,11.8C93.6,186.5,92.8,189.4,94.6,189.9L94.6,189.9z"/>
		</g>
	</g>
	<g>
		<g>
			<path class="st3" d="M94.6,281.8c9.6,5.5,14.1,15.8,18,25.6c2.4,5.9,4.4,11.6,4.6,18c0.2,5.7-0.1,11.1,1.5,16.6
				c0.4,1.4,2.5,1.5,2.9,0c1.2-4.5,1.9-9.1,2.2-13.7c-0.9,0.3-1.9,0.5-2.8,0.8c2,4.5,4.7,8.3,8.3,11.6c1.2,1.2,3.3-0.3,2.4-1.8
				c-3-4.9-6-9.8-9-14.6c-0.6,0.7-1.1,1.5-1.7,2.2c3.6,1.5,6.9,3.3,10,5.6c1.5,1.1,2.8-1.1,1.8-2.4c-2.9-3.4-6.4-5.5-10.8-6.3
				c0,1,0,1.9,0,2.9c3.7-0.8,7.3-1,11.1-0.8c1.9,0.1,1.9-2.9,0-3c-4.1-0.3-7.9,0-11.9,0.9c-1.4,0.3-1.5,2.6,0,2.9
				c3.9,0.7,6.9,2.5,9.5,5.5c0.6-0.8,1.2-1.6,1.8-2.4c-3.4-2.4-6.9-4.3-10.7-5.9c-1.2-0.5-2.3,1.2-1.7,2.2c3,4.9,6,9.8,9,14.6
				c0.8-0.6,1.6-1.2,2.4-1.8c-3.3-3.2-5.9-6.8-7.8-11c-0.7-1.5-2.7-0.6-2.8,0.8c-0.3,4.4-1,8.7-2.1,12.9c1,0,1.9,0,2.9,0
				c-2.1-6.7-0.9-13.5-1.8-20.3c-0.9-6.4-3.6-12.4-6.1-18.3c-3.9-9.2-8.8-18.2-17.8-23.4C94.4,278.3,92.9,280.9,94.6,281.8
				L94.6,281.8z"/>
		</g>
	</g>
	<g>
		<g>
			<path class="st3" d="M94.7,209.9c4.8-1.3,9.2-3.4,13.2-6.4c2.3-1.7,5.9-4.4,5.7-7.7c-0.1-2.3-2-3.1-4-2.5
				c-2.5,0.8-5.1,2.8-7.4,4.1c-2.7,1.5-5.3,3-8,4.5c-2.5,1.4-5.5,3.2-4.4,6.6c1,3,4.3,4.1,7.2,3.4c8-2,13.7-11.2,15.7-18.6
				c0.3-1.2-1.1-2.4-2.2-1.7c-5.3,3.3-10.6,6.6-15.9,9.9c-1.4,0.9-0.5,3.2,1.2,2.7c2.1-0.5,3.7-1.4,5.2-2.9c1.3-1.2-0.3-3.1-1.8-2.4
				c-1.4,0.8-2.9,1.5-4.3,2.3c-1.5,0.8-0.5,3.3,1.2,2.7c1.2-0.4,2.3-0.8,3.5-1.2c-0.5-0.8-1-1.7-1.5-2.5c-0.8,0.7-1.5,1.3-2.3,2
				c-0.8,0.7-0.4,2.3,0.7,2.5c1.6,0.3,2.6,0.2,4.1-0.6c1.4-0.8,0.7-2.7-0.8-2.8c-1.9-0.1-3.4,0.3-5,1.4c-1.6,1.1-0.2,3.4,1.5,2.6
				c2.1-1,3.6-2.2,5-4c1-1.2-0.3-3.3-1.8-2.4c-1.4,0.9-2.7,1.7-4.1,2.6c-1.6,1-0.1,3.6,1.5,2.6c1.4-0.9,2.7-1.7,4.1-2.6
				c-0.6-0.8-1.2-1.6-1.8-2.4c-1.3,1.6-2.6,2.7-4.4,3.5c0.5,0.9,1,1.7,1.5,2.6c1-0.9,2.2-1.2,3.5-1c-0.3-0.9-0.5-1.9-0.8-2.8
				c-0.6,0.1-1.2,0.2-1.8,0.3c0.2,0.8,0.4,1.7,0.7,2.5c0.8-0.7,1.5-1.3,2.3-2c1.1-1-0.1-3-1.5-2.5c-1.2,0.4-2.3,0.8-3.5,1.2
				c0.4,0.9,0.8,1.8,1.2,2.7c1.4-0.8,2.9-1.5,4.3-2.3c-0.6-0.8-1.2-1.6-1.8-2.4c-1.2,1.1-2.3,1.7-3.9,2.1c0.4,0.9,0.8,1.8,1.2,2.7
				c5.3-3.3,10.6-6.6,15.9-9.9c-0.7-0.6-1.5-1.1-2.2-1.7c-1.3,4.7-3.6,9-7.2,12.4c-1.2,1.1-4.5,4.4-6.4,4.2
				c-2.5-2.1-2.9-3.4-1.1-4.1c0.7-0.4,1.3-0.7,2-1.1c1.1-0.6,2.2-1.2,3.3-1.9c2.2-1.2,4.4-2.5,6.7-3.7c0.2-0.1,3.3-1.8,3.3-1.9
				c0.5,1-1.8,2.7-2.3,3.2c-4,3.7-8.9,6.2-14.1,7.6C92,207.5,92.8,210.4,94.7,209.9L94.7,209.9z"/>
		</g>
	</g>
	<g>
		<g>
			<path class="st3" d="M105.1,202.5c1.9,0,1.9-3,0-3C103.2,199.5,103.2,202.5,105.1,202.5L105.1,202.5z"/>
		</g>
	</g>
	<g>
		<g>
			<path class="st3" d="M104.4,199.7c-1.9,1-3.8,2.1-5.7,3.1c0.5,0.9,1,1.7,1.5,2.6c2-1.2,4-2.3,5.9-3.5c1.2-0.7,0.8-3-0.8-2.8
				c-1.7,0.2-3.2,0.7-4.7,1.7c-1.6,1.1-0.2,3.6,1.5,2.6c2-1.2,3.6-2.7,5-4.6c0.8-1.1-0.5-2.6-1.7-2.2c-2.1,0.7-4.2,1.7-6,3
				c-1.6,1.1-0.2,3.5,1.5,2.6c1.7-0.9,3.5-1.9,5.2-2.8c1.7-0.9,0.2-3.5-1.5-2.6c-2.1,1.1-4,2.5-5.6,4.2c-1.4,1.4,0.8,3.5,2.1,2.1
				c1.5-1.5,3.1-2.7,5-3.7c-0.5-0.9-1-1.7-1.5-2.6c-1.7,0.9-3.5,1.9-5.2,2.8c0.5,0.9,1,1.7,1.5,2.6c1.7-1.1,3.4-2,5.3-2.7
				c-0.6-0.7-1.1-1.5-1.7-2.2c-1,1.5-2.4,2.6-3.9,3.5c0.5,0.9,1,1.7,1.5,2.6c1-0.6,2-1.1,3.2-1.3c-0.3-0.9-0.5-1.9-0.8-2.8
				c-2,1.2-4,2.3-5.9,3.5c-1.7,1-0.2,3.5,1.5,2.6c1.9-1,3.8-2.1,5.7-3.1C107.6,201.4,106.1,198.8,104.4,199.7L104.4,199.7z"/>
		</g>
	</g>
	<g>
		<g>
			<path class="st3" d="M94.1,229.5c6.6-0.2,12.2-3.5,15.7-9c-0.9,0-1.7,0-2.6,0c2.5,5.3-11.7,13.5-13.2,7.4
				c-0.6,0.6-1.2,1.2-1.8,1.8c5.5,1.1,11.7,1.5,16.5-2c3.8-2.7,5.8-7.2,4.7-11.8c-0.4-1.7-2.9-1.3-2.9,0.4
				c-0.2,5.3-3.5,9.8-8.6,11.3c-1.8,0.6-1.1,3.5,0.8,2.9c6.4-2,10.6-7.5,10.8-14.2c-1,0.1-2,0.3-2.9,0.4c2.3,10.2-10.8,11.4-17.5,10
				c-1.1-0.2-2.1,0.7-1.8,1.8c2.8,10.9,23-0.4,18.7-9.7c-0.5-1.1-2-0.9-2.6,0c-2.9,4.6-7.6,7.3-13.1,7.5
				C92.2,226.5,92.2,229.5,94.1,229.5L94.1,229.5z"/>
		</g>
	</g>
	<g>
		<g>
			<path class="st3" d="M110,233.9c-4.8,5.2-11.2,7.9-18.3,7.6c-0.7,0-1.2,0.5-1.4,1.1c-1.9,5.3,4.1,7.5,8.2,6.1
				c6-2.1,10.9-7,14.2-12.2c-0.9-0.4-1.8-0.8-2.7-1.2c-0.5,2.5-2.2,4.2-4.1,5.7c-1.9,1.4-7,5.4-9,1.8c-0.7,0.7-1.4,1.4-2.1,2.1
				c1.1,0.7,2.1,1.5,3.2,2.2c0.1-0.9,0.2-1.8,0.4-2.7c-0.5-0.1-1-0.2-1.5-0.2c-0.6,0.7-1.1,1.5-1.7,2.2c5,1.6,11.2,2.4,15.6-1.3
				c3.4-2.9,4.6-7.3,2.7-11.4c-0.5-1-2.1-1-2.6,0c-2.1,4.7-5.4,8-10.1,10c0.7,0.6,1.5,1.1,2.2,1.7c0.7-0.8,1.5-1.6,2.2-2.5
				c1.8-0.7,1.1-3.5-0.8-2.9c-1.4,0.5-2.9,0.9-4.3,1.4c0.6,0.3,1.2,0.7,1.8,1c0.2-0.4,0.3-0.8,0.5-1.2c-0.8-0.2-1.7-0.4-2.5-0.7
				c0-0.1,0-0.1-0.1-0.2c-1.9,0.3-1.1,3.2,0.8,2.9c1.9-0.3,2.5-1.7,2.2-3.5c-0.2-1.1-1.7-1.4-2.5-0.7c-1.3,1.3-1.5,2.3-1.3,4.2
				c0.1,0.8,1.1,1.3,1.8,1c1.4-0.5,2.9-0.9,4.3-1.4c-0.3-1-0.5-1.9-0.8-2.9c-2.3,0.9-3.6,2.2-4.3,4.6c-0.4,1.4,1.1,2.2,2.2,1.7
				c5.1-2.2,8.9-6.1,11.2-11.1c-0.9,0-1.7,0-2.6,0c1.9,4-1.3,7.9-5,9.1c-3.3,1-6.7,0.2-9.9-0.8c-1.2-0.4-2.5,1.1-1.7,2.2
				c1.3,1.7,2.8,2.5,4.9,1.6c1.2-0.5,1.5-2,0.4-2.7c-1.1-0.7-2.1-1.5-3.2-2.2c-1.3-0.9-2.7,0.8-2.1,2.1c4.6,8.3,17.3-2,18.7-8.2
				c0.4-1.7-1.8-2.6-2.7-1.2c-1.6,2.5-3.5,4.8-5.8,6.7c-1.2,1-2.4,1.9-3.7,2.6c-0.7,0.4-9.4,4.5-7.5-0.9c-0.5,0.4-1,0.7-1.4,1.1
				c7.8,0.3,15.1-2.7,20.4-8.5C113.4,234.6,111.3,232.4,110,233.9L110,233.9z"/>
		</g>
	</g>
	<g>
		<g>
			<path class="st3" d="M94.2,263c5.9,0.8,12.5,1.4,17.8-1.9c3.6-2.2,6.3-6.8,3.4-10.7c-0.5-0.6-1.3-1.1-2.1-0.5
				c-7.1,5.1-15,8-23.7,8.4c-1.4,0.1-1.9,1.6-1.1,2.6c8,9.8,23.1,6.1,25.9-6.1c0.3-1.2-1-2.4-2.2-1.7c-2.1,1.3-4.3,2.6-6.4,3.9
				c0.6,0.8,1.2,1.6,1.8,2.4c1-1,2-2,3.1-3c1.2-1.2-0.4-3.3-1.8-2.4c-1.8,1.1-3.6,2.3-5.3,3.4c0.6,0.8,1.2,1.6,1.8,2.4
				c1.5-1.5,3-3,4.5-4.5c1.4-1.4-0.7-3.5-2.1-2.1c-0.6,0.6-1.3,1.2-1.9,1.8c-1.1,1.1,0,2.9,1.5,2.5c1.4-0.4,1.5-0.4,2.7-1.1
				c-0.5-0.9-1-1.7-1.5-2.6c-1.7,1.3-3.5,2.6-5.2,3.9c-1.5,1.1,0,3.7,1.5,2.6c1.7-1.3,3.5-2.6,5.2-3.9c1.5-1.1,0.2-3.6-1.5-2.6
				c-0.7,0.3-1.3,0.6-2,0.8c0.5,0.8,1,1.7,1.5,2.5c0.6-0.6,1.3-1.2,1.9-1.8c-0.7-0.7-1.4-1.4-2.1-2.1c-1.5,1.5-3,3-4.5,4.5
				c-1.2,1.2,0.4,3.3,1.8,2.4c1.8-1.1,3.6-2.3,5.3-3.4c-0.6-0.8-1.2-1.6-1.8-2.4c-1,1-2,2-3.1,3c-1.2,1.2,0.3,3.2,1.8,2.4
				c2.2-1.3,4.3-2.6,6.4-3.9c-0.7-0.6-1.5-1.1-2.2-1.7c-2.3,10.2-14.3,12.8-20.9,4.8c-0.4,0.9-0.7,1.7-1.1,2.6
				c9.2-0.5,17.7-3.4,25.2-8.8c-0.7-0.2-1.4-0.4-2.1-0.5c4.2,5.6-6.3,8.4-9.4,8.6c-3.1,0.2-6.2-0.2-9.2-0.6
				C92.3,259.8,92.3,262.8,94.2,263L94.2,263z"/>
		</g>
	</g>
	<g>
		<g>
			<path class="st3" d="M99.1,243.9c-0.3,0.3-0.7,0.7-1,1c-0.6,0.6-0.6,1.5,0,2.1c0.6,0.6,1.5,0.6,2.1,0c0.3-0.3,0.7-0.7,1-1
				c0.6-0.6,0.6-1.5,0-2.1C100.6,243.4,99.7,243.4,99.1,243.9L99.1,243.9z"/>
		</g>
	</g>
	<g>
		<g>
			<path class="st3" d="M94,282.6c9.5,13,17.3,27.1,23.1,42.1c0.7,1.8,3.3,1.1,2.9-0.8c-3.3-15.8-10-30.5-19.8-43.3
				c-1.2-1.5-3.5-0.3-2.6,1.5c4.8,9.5,9.6,19,14.4,28.5c2.3,4.5,5,9.1,6.6,13.9c1.9,5.9,0.4,11.9-1.2,17.7c1,0.1,2,0.3,2.9,0.4
				c0.2-5.6,0.4-11.3,0.5-16.9c-0.9,0.3-1.9,0.5-2.8,0.8c2.3,4.9,4.7,9.9,7,14.8c0.7,1.5,3.2,0.5,2.7-1.2c-1-3.4-2.1-6.8-3.1-10.1
				c-0.8,0.5-1.7,1-2.5,1.5c1.1,1.3,2.3,2.5,3.4,3.8c0.6-0.8,1.2-1.6,1.8-2.4c-1.5-0.3-1.9-1.3-1.3-2.8c-0.6-2,0-2.6,1.9-1.8
				c0.6-0.1,1.3,0.2,1.9,0.1c1.3-0.2,2.1-0.5,3.1-1.4c0.6-0.5,0.6-1.6,0-2.1c-2-1.7-4-3.4-6-5.1c-0.1,0.8-0.2,1.6-0.3,2.4
				c0.9-0.3,1.8-0.5,2.7-0.8c-0.1-0.9-0.2-1.8-0.4-2.7c-1.1,0.2-2.3,0.5-3.4,0.7c-1.6,0-1.9,2-0.8,2.8c1.2,0.7,2.2,1.7,2.9,2.8
				c0.6-0.8,1.2-1.6,1.8-2.4c-2.7-1.5-5-3.4-7.1-5.6c-0.5,0.8-1,1.7-1.5,2.5c0.9,0.8,1.7,1.7,2.6,2.5c0.6-0.7,1.1-1.5,1.7-2.2
				c-0.8-0.5-1.5-1.1-2.3-1.6c-1-1.5-3-0.5-2.7,1.2c0.2,1.5,0.4,3,0.6,4.5c0.8-0.5,1.7-1,2.5-1.5c-1.9-2-3.1-4.1-3.9-6.7
				c-0.5-1.7-2.9-1.3-2.9,0.4c-0.1,2.8,0.1,5.4,0.7,8.1c1-0.3,1.9-0.5,2.9-0.8c-2.2-8.3-4.4-16.6-6.6-24.8c-0.5-1.9-3.4-1.1-2.9,0.8
				c2.2,8.3,4.4,16.6,6.6,24.8c0.5,1.9,3.3,1.1,2.9-0.8c-0.6-2.4-0.7-4.8-0.6-7.3c-1,0.1-2,0.3-2.9,0.4c0.9,3.1,2.4,5.6,4.7,8
				c1.1,1.2,2.7-0.1,2.5-1.5c-0.2-1.5-0.4-3-0.6-4.5c-0.9,0.4-1.8,0.8-2.7,1.2c1.1,1.7,2,2.5,4,3c1.3,0.3,2.3-1,1.7-2.2
				c-1-2.1-2.3-3.1-4.4-3.9c-1.5-0.6-2.4,1.5-1.5,2.5c2.3,2.5,4.8,4.4,7.8,6.1c1.6,0.9,2.8-1.1,1.8-2.4c-1.1-1.4-2.1-2.3-3.5-3.3
				c-0.3,0.9-0.5,1.9-0.8,2.8c1.9,0.1,3.2-0.3,4.9-1.1c1.1-0.5,0.9-2.6-0.4-2.7c-2-0.3-3.2-0.2-5,1.1c-0.7,0.5-1.1,1.7-0.3,2.4
				c2,1.7,4,3.4,6,5.1c0-0.7,0-1.4,0-2.1c-2.5,2.4-7.3-1.9-9.5,2.4c-1.8,3.7,1.8,6.6,4.5,8.1c1.5,0.9,2.9-1.1,1.8-2.4
				c-1.1-1.3-2.3-2.5-3.4-3.8c-1-1.1-2.9,0.1-2.5,1.5c1,3.4,2.1,6.8,3.1,10.1c0.9-0.4,1.8-0.8,2.7-1.2c-2.3-4.9-4.7-9.9-7-14.8
				c-0.7-1.4-2.8-0.6-2.8,0.8c-0.2,5.6-0.4,11.3-0.5,16.9c-0.1,1.7,2.5,2,2.9,0.4c1.3-4.9,2.7-10.1,2.1-15.2
				c-0.6-4.9-3-9.2-5.2-13.5c-5.7-11.2-11.3-22.5-17-33.7c-0.9,0.5-1.7,1-2.6,1.5c9.7,12.6,16.3,27,19.5,42.6c1-0.3,1.9-0.5,2.9-0.8
				c-5.9-15.3-13.7-29.6-23.4-42.9C95.5,279.6,92.8,281.1,94,282.6L94,282.6z"/>
		</g>
	</g>
</g>
</svg>
