<?xml version="1.0" encoding="utf-8"?>
<!-- Generator: Adobe Illustrator 21.1.0, SVG Export Plug-In . SVG Version: 6.00 Build 0)  -->
<svg version="1.1" id="Layer_1" xmlns="http://www.w3.org/2000/svg" xmlns:xlink="http://www.w3.org/1999/xlink" x="0px" y="0px"
	 viewBox="0 0 1071.5 790" style="enable-background:new 0 0 1071.5 790;" xml:space="preserve">
<style type="text/css">
	.st0{fill:#E6E7E8;}
	.st1{fill:#0C0100;}
	.st2{fill:#FFFFFF;}
	.st3{fill:#F7DEC0;stroke:#F7DEC0;stroke-linecap:round;stroke-miterlimit:10;}
	.st4{fill:#C69C6D;stroke:#C69C6D;stroke-linecap:round;stroke-miterlimit:10;}
	.st5{fill:#F7DEC0;}
	.st6{fill:#42210B;}
	.st7{fill:#FF7BAC;}
	.st8{stroke:#231F20;stroke-linecap:round;stroke-miterlimit:10;}
	.st9{fill:#C1272D;}
	.st10{fill:#FFFFFF;stroke:#FFFFFF;stroke-linecap:round;stroke-miterlimit:10;}
	.st11{fill:#B3B3B3;stroke:#B3B3B3;stroke-linecap:round;stroke-miterlimit:10;}
	.st12{fill:#E6E6E6;}
	.st13{fill:#999999;}
	.st14{fill:#00A99D;}
	.st15{fill:#FCC420;stroke:#FCC420;stroke-linecap:round;stroke-miterlimit:10;}
	.st16{fill:#FBB03B;}
	.st17{fill:#FCEE21;}
	.st18{fill:#FBB03B;stroke:#FBB03B;stroke-linecap:round;stroke-miterlimit:10;}
	.st19{fill:#D4B99C;stroke:#D4B99C;stroke-linecap:round;stroke-miterlimit:10;}
	.st20{fill:#FCC420;}
</style>
<image style="overflow:visible;enable-background:new    ;" width="1280" height="620" xlink:href="1995C90B.jpeg"  transform="matrix(0.8 0 0 0.8 24.1622 294)">
</image>
<ellipse class="st0" cx="957.3" cy="294.1" rx="70.3" ry="11.9"/>
<g>
	<g>
		<g>
			<path d="M165.8,127c1.3-4-0.8-8.4-4.1-11s-7.5-3.6-11.6-4.3c-3.3-0.6-6.6-0.9-10-1.1c-2.1-0.1-4.5,0-6.2,1.3
				c-3,2.4-2.2,7.3,0,10.5c3,4.2,7.8,7,12.9,8.2c5.1,1.3,10.4,1.1,15.6,0.6c1.7-0.2,3.7-0.6,4.5-2.2c0.3-0.7,0.4-1.5,0.4-2.3
				c0.1-3.1-0.5-7-3.4-7.7"/>
			<g>
				<path class="st1" d="M167.2,127.4c2.2-8-4.7-13.9-11.6-16c-4.3-1.3-9-1.8-13.5-2.1c-3.5-0.2-7.8-0.5-10.1,2.7
					c-4.3,5.8,1.7,13.2,6.5,16.4c7.1,4.7,16.4,5.2,24.7,4.1c4.1-0.6,5.8-2.8,5.7-6.9c-0.1-3.3-1-6.8-4.5-7.9
					c-1.7-0.6-2.5,2.1-0.7,2.7c2.8,0.9,3.6,7.8,0.9,9c-1.5,0.7-3.8,0.6-5.4,0.7c-2,0.1-4.1,0.1-6.1,0c-6.8-0.4-15.2-3.2-18.5-9.8
					c-1.6-3.1-1.6-7.4,2.5-8.2c4-0.8,8.9,0.2,12.9,0.9c6.6,1.1,17.1,4.8,14.7,13.6C164,128.4,166.7,129.1,167.2,127.4L167.2,127.4z"
					/>
			</g>
		</g>
		<g>
			<path class="st2" d="M131.1,119.5c-2,1.2-3,3.7-2.7,5.9c0.2,2.2,1.4,4.1,2.7,5.9c1.7,2.5,3.8,4.8,6.6,6.1
				c6.1,2.8,14.7-0.7,17.4-7c2.7-6.2-0.9-13.8-7.3-16c-6.4-2.3-14.5,0.7-18.3,6.5"/>
		</g>
		
			<ellipse transform="matrix(0.772 -0.6356 0.6356 0.772 -59.9686 137.2057)" class="st3" cx="161.3" cy="152.2" rx="31" ry="10.8"/>
		
			<rect x="151.2" y="110.8" transform="matrix(0.5382 -0.8428 0.8428 0.5382 -6.0704 214.9057)" class="st4" width="83.8" height="4.3"/>
		<g>
			<path class="st5" d="M73.8,165.4c-2.9,0.3-5.5,2-7.3,4.2s-2.7,4.8-3.3,7.5c-1.5,6.7-0.7,13.8,2.3,20.1l-2.6-8.9
				c-9.5,6.3-13.6,18.2-11.6,28.8s9.6,19.9,19.1,26.2c20.3,13.2,49.8,12.1,69.7-1.6s29.4-38.7,24.4-61.2c-1.5-7-4.3-13.6-7-20.3
				c-6.2-15.3-12-30.7-17.5-46.3l0.7,1.5c-2.7-6.5-8.7-11.6-15.6-14.2c-7-2.6-14.9-2.8-22.2-1.4c-9.2,1.8-18.1,6.3-22.9,13.8
				c-4.5,7-4.9,15.7-3,23.6s6,15.2,10,22.4l-5.5-13.2c-3.4-0.4-6.7,2-8.1,4.9s-1.1,6.3-0.5,9.4c1.6,8,5.5,15.5,9.6,22.7
				c-0.2-0.3-0.5-0.7-0.7-1"/>
			<g>
				<path class="st5" d="M73.6,164.7c-14.4,2.2-13.1,23.1-8.7,32.8c0.3,0.7,1.5,0.2,1.3-0.6c-0.8-3-1.7-5.9-2.6-8.9
					c-0.1-0.4-0.7-0.7-1-0.4c-6.8,4.7-11.1,12-12.2,20.2c-1.1,8.6,1.8,17.1,6.9,24.1c10.7,14.4,28.9,21.4,46.5,21.3
					c17.8,0,35.4-6.9,47.4-20.3c11.4-12.7,17.2-30.3,15.2-47.3c-1.4-12-6.9-23.1-11.3-34.3c-4.9-12.5-9.6-25.1-14.1-37.8
					c-0.4,0.2-0.8,0.4-1.3,0.6c0.2,0.5,0.5,1,0.7,1.5c0.4,0.8,1.5,0.1,1.2-0.7c-6.6-15.5-25.9-19.1-40.7-15.5
					c-7.2,1.7-14.4,5.3-19.2,11c-5,6-6.7,14-5.9,21.7c1.1,10,6.1,19,11,27.7c0.4,0.7,1.6,0.2,1.3-0.6c-1.9-4.4-3.7-8.8-5.5-13.2
					c-0.1-0.3-0.3-0.5-0.7-0.5c-3-0.2-5.8,1.2-7.6,3.5c-2.3,3-2.3,6.9-1.8,10.4c1.4,8.6,5.6,16.5,9.9,24c0.4-0.2,0.8-0.5,1.2-0.7
					c-0.2-0.3-0.5-0.7-0.7-1c-0.5-0.7-1.7,0-1.2,0.7c0.2,0.3,0.5,0.7,0.7,1c0.5,0.7,1.7,0.1,1.2-0.7c-3.4-6.1-6.8-12.2-8.7-19
					c-1-3.4-1.9-7.2-1-10.7c0.9-3.7,4.1-6.5,8-6.2c-0.2-0.2-0.5-0.3-0.7-0.5c1.9,4.4,3.7,8.8,5.5,13.2c0.4-0.2,0.8-0.4,1.3-0.6
					c-7.4-13.3-16.5-30.7-7-45.4c8.1-12.6,27-16.6,40.7-13.1c8.1,2,15.5,7.2,18.8,15c0.4-0.2,0.8-0.5,1.2-0.7
					c-0.2-0.5-0.5-1-0.7-1.5c-0.3-0.7-1.5-0.2-1.3,0.6c3.6,10.4,7.5,20.7,11.4,30.9c3.8,9.8,8.2,19.4,11.4,29.4
					c5.2,16.4,3.2,34.1-5.8,48.9c-9,14.8-24,24.4-41,27.5c-17.1,3.1-36-0.4-49.5-11.7c-7.5-6.1-13.6-14.9-14.4-24.8
					c-0.8-9.8,3.5-19.7,11.6-25.3c-0.3-0.1-0.7-0.3-1-0.4c0.8,3,1.7,5.9,2.6,8.9c0.4-0.2,0.8-0.4,1.3-0.6c-4.1-9-5.5-28.6,7.9-30.7
					C74.9,165.9,74.5,164.6,73.6,164.7L73.6,164.7z"/>
			</g>
		</g>
		<g>
			<path d="M85.8,131.1c-3.3-2.6-8.2-2-11.7,0.2s-5.9,5.9-7.9,9.5c-1.6,2.9-3,6-4.3,9c-0.8,2-1.5,4.2-0.8,6.3
				c1.2,3.7,6.2,4.5,9.9,3.4c5-1.4,9.2-5.1,12.1-9.5c2.8-4.4,4.5-9.4,5.7-14.5c0.4-1.7,0.7-3.7-0.6-5c-0.6-0.6-1.3-0.8-2-1.1
				c-2.9-1.1-6.8-1.9-8.4,0.7"/>
			<g>
				<path class="st1" d="M86.2,130.5c-6.4-4.5-13.9,0-17.9,5.5c-2.6,3.5-4.5,7.5-6.2,11.5c-1.4,3.1-3.2,7-1,10.2
					c3.8,5.5,12.3,2.4,16.5-0.7c6.7-5,10.1-13.2,11.8-21.2c0.8-3.8-0.1-6-3.9-7.2c-2.9-1-6.3-1.4-8.4,1.3c-0.6,0.7,0.7,1.4,1.2,0.7
					c1.3-1.7,3.5-1.5,5.4-1.1c2.3,0.5,4.7,1.3,4.7,4.1c0,1.9-0.8,4-1.4,5.8c-0.6,2-1.3,4.1-2.2,6c-2.9,6.4-8.8,13.6-16.4,13.8
					c-4.5,0.2-7.8-2.5-6.4-7.3c1.1-3.9,3.2-7.6,5.1-11.1c3.4-6.2,10.9-14.5,18.5-9.1C86.2,132.2,86.9,131,86.2,130.5L86.2,130.5z"/>
			</g>
		</g>
		<g>
			<path class="st2" d="M97.6,130.7c-2,1.2-3,3.7-2.7,5.9c0.2,2.2,1.4,4.1,2.7,5.9c1.7,2.5,3.8,4.8,6.6,6.1c6.1,2.8,14.7-0.7,17.4-7
				c2.7-6.2-0.9-13.8-7.3-16c-6.4-2.3-14.5,0.7-18.3,6.5"/>
		</g>
		<g>
			<path class="st6" d="M95.5,133.2c-0.7,0.4-1,1.2-0.9,2c0.1,0.7,0.5,1.4,0.9,2c0.6,0.8,1.3,1.6,2.2,2c2,0.9,4.9-0.3,5.8-2.3
				s-0.3-4.6-2.4-5.3s-4.8,0.3-6.1,2.1"/>
			<g>
				<path class="st6" d="M94.7,132c-3,2.3-1.2,6.1,1.5,7.9c2.5,1.7,6.2,0.8,7.9-1.7c1.8-2.6,0.7-6.3-2-7.7c-3-1.6-6.6,0-8.4,2.5
					c-1.1,1.4,1.4,2.8,2.4,1.4c0.8-1.2,2.4-1.9,3.8-1.7c1.6,0.2,2.8,2,2.2,3.5c-0.5,1.2-2,2-3.3,1.8c-0.9-0.1-3.8-2.7-2.6-3.6
					C97.6,133.3,96.2,130.9,94.7,132L94.7,132z"/>
			</g>
		</g>
		<g>
			<path class="st6" d="M150.9,118.8c-0.7,0.4-1,1.2-0.9,2c0.1,0.7,0.5,1.4,0.9,2c0.6,0.8,1.3,1.6,2.2,2c2,0.9,4.9-0.3,5.8-2.3
				s-0.3-4.6-2.4-5.3c-2.1-0.7-4.8,0.3-6.1,2.1"/>
			<g>
				<path class="st6" d="M150.1,117.6c-3,2.3-1.2,6.1,1.5,7.9c2.5,1.7,6.2,0.8,7.9-1.7c1.8-2.6,0.7-6.3-2-7.7c-3-1.6-6.6,0-8.4,2.5
					c-1.1,1.4,1.4,2.8,2.4,1.4c0.8-1.2,2.4-1.9,3.8-1.7c1.6,0.2,2.8,2,2.2,3.5c-0.5,1.2-2,2-3.3,1.8c-0.9-0.1-3.8-2.7-2.6-3.6
					C153,118.9,151.6,116.5,150.1,117.6L150.1,117.6z"/>
			</g>
		</g>
		<g>
			<path d="M139.4,129.6c-3.8,0.9-7.4,2.8-10.2,5.4c2,2.2,4.5,4,7.3,5.2c0.5,0.2,1.1,0.4,1.6,0.3c0.9-0.2,1.4-1.2,1.6-2.1
				c0.8-2.8,1.1-5.7,1-8.6"/>
			<g>
				<path class="st1" d="M138.9,128.3c-4.1,1-7.7,3-10.8,5.8c-0.6,0.5-0.5,1.4,0,2c1.5,1.6,3.3,3.1,5.2,4.2c1.5,0.9,3.5,2.1,5.4,1.5
					c1.6-0.6,2.1-2.3,2.5-3.8c0.7-2.7,0.9-5.4,0.8-8.1c0-1.8-2.8-1.8-2.8,0c0,1.4,0,2.9-0.1,4.3c-0.1,1-0.3,2-0.6,3.1
					c-0.1,0.3-0.1,0.6-0.2,0.8c0,0.7-0.3,1-1,0.7c-2.5,0.2-5.5-3.1-7.1-4.7c0,0.7,0,1.3,0,2c2.7-2.5,5.9-4.2,9.5-5.1
					C141.4,130.6,140.7,127.9,138.9,128.3L138.9,128.3z"/>
			</g>
		</g>
		<g>
			<path class="st7" d="M144.4,144.3c-2.3-1.3-5.6,0.2-6.2,2.8c-0.2,1.1,0,2.1,0.2,3.2c1.1,4.9,3.2,9.5,6.2,13.5
				c1.7,2.3,4.5,4.5,7.1,3.4c2.7-1.2,2.8-4.8,2.5-7.6c-0.4-3.6-1.1-7.3-2.9-10.4c-1.9-3.1-5.2-5.6-8.8-5.5c-1.1,0-2.3,0.4-2.9,1.3
				c-0.4,0.6-0.5,1.4-0.5,2.1c0,4.2,1.3,8.5,3.6,12"/>
			<g>
				<path class="st7" d="M145.1,143.1c-2.3-1.1-4.9-0.7-6.8,1.1c-2.3,2.3-1.5,5.6-0.7,8.4c1,3.6,2.6,7.2,4.7,10.3
					c1.7,2.5,3.9,5.4,7.1,5.9c7.2,1.2,6.5-8.4,5.7-12.7c-1.1-6.1-4.6-13.1-11.6-13.8c-9.9-1-4.8,13.1-2,17.5c1,1.5,3.4,0.1,2.4-1.4
					c-1.7-2.5-2.8-5.3-3.3-8.3c-0.2-1.7-0.6-4.9,1.8-5c1.3,0,2.7,0.4,3.8,1c4.9,2.8,6.3,9.5,6.6,14.7c0.1,2.1-0.2,6.1-3.4,5.3
					c-2.8-0.7-4.7-4.1-6-6.5c-1.4-2.5-2.6-5.2-3.3-8c-0.4-1.4-1.1-3.3-0.3-4.7c0.7-1.3,2.5-1.9,3.9-1.3
					C145.3,146.2,146.7,143.9,145.1,143.1L145.1,143.1z"/>
			</g>
		</g>
		<g>
			<path d="M138.4,139.5c-4.4,1.1-8.5,4.3-11.1,8.9c-1.2,2.1-2.1,4.5-2.2,7c-0.1,2.6,0.7,5.3,2.5,6.7c2.4,2,5.8,0.8,7.8-1.7
				c2-2.6,2.9-6.1,3.4-9.6s0.7-7.2,0.7-10.8c0-0.4,0-0.8,0.1-1.1c0.2-0.3,0.5-0.4,0.7-0.5c4.7-1.8,10.1-2.3,14.2,1
				c1.7,1.4,3.3,3.9,2.7,6.4c-0.4,1.4-1.4,2.5-2.5,3.1c-2.7,1.4-6,0.4-8.4-1.7c-2.4-2.1-4.2-5.2-6-8.1"/>
			<g>
				<path class="st1" d="M138,138.2c-6,1.6-10.8,6.2-13.1,11.9c-1.9,4.7-2,13.6,4.6,14.4c6.6,0.8,9.4-7.1,10.3-12.2
					c0.3-1.8,0.6-3.7,0.7-5.5c0.1-1,0.1-2.1,0.2-3.2c0-0.8-0.3-3,0-3.6c0.7-1.1,3.4-1.3,4.5-1.5c1.9-0.2,3.8-0.2,5.6,0.5
					c2.1,0.8,4.4,2.6,4.8,4.9c0.5,3-2.6,4.6-5.1,4.1c-4.5-1-7.1-6.1-9.2-9.7c-0.9-1.5-3.3-0.1-2.4,1.4c3,5.1,8.1,13.3,15.3,10.8
					c2.8-1,4.6-3.6,4.3-6.6c-0.4-3.3-2.9-5.9-5.9-7.2c-2.9-1.3-6.2-1.3-9.3-0.7c-1.3,0.3-3.1,0.6-4.2,1.4c-1.3,0.9-1.2,2.1-1.2,3.5
					c0,4.4-0.3,8.9-1.4,13.2c-0.7,3-3.6,9.6-7.9,7.2c-2-1.2-2.4-4.1-2.2-6.2c0.2-2.4,1.1-4.6,2.4-6.6c2.3-3.7,5.7-6.5,9.9-7.6
					C140.5,140.4,139.7,137.7,138,138.2L138,138.2z"/>
			</g>
		</g>
		<g>
			<g>
				<path d="M77.9,115.4c-1-2.7,6.8-8.2,17.6-12.4c10.7-4.2,20.2-5.5,21.2-2.9c1,2.7-6.8,8.2-17.6,12.4
					C88.4,116.8,78.9,118,77.9,115.4z"/>
				<path d="M68.4,90.4c-1-2.7,6.8-8.2,17.6-12.4c10.7-4.2,20.2-5.5,21.2-2.9c1,2.7-6.8,8.2-17.6,12.4
					C78.9,91.8,69.4,93.1,68.4,90.4z"/>
				<g>
					<g>
						<path class="st0" d="M70.8,90.5c0.9,0,0.9-1.4,0-1.4S69.9,90.5,70.8,90.5L70.8,90.5z"/>
					</g>
				</g>
				<g>
					<path d="M68.6,90.9c0.6-0.2-0.3-1.1-0.7-0.7s-0.2,1.1,0,1.7c3.4,7.7,6.9,15.3,10.4,23c0.2,0.4,0.4,0.8,0.7,1.1
						c0.7,0.5,1.6,0.3,2.4,0c12.2-4.2,23.8-10.1,34.6-17.4c-1.3-8-3.9-15.8-7.5-23c-0.4-0.7-0.8-1.5-1.6-1.9c-1-0.5-2.2,0.1-3.2,0.7
						c-11.2,6.4-22.7,12-34.5,16.7c-0.6,0.2-1.3,0.7-1.2,1.3c0.1,0.7,1.4,0,0.8-0.2L68.6,90.9z"/>
					<g>
						<path d="M69.1,91.4c0-0.1,0.1-0.1,0.2-0.2c0.2-0.3,0.3-0.6,0.1-0.8c-0.6-1.1-2.1-1.1-2.4,0.3c-0.2,1.1,0.7,2.5,1.1,3.4
							c0.7,1.6,1.5,3.3,2.2,4.9c1.6,3.5,3.2,7.1,4.8,10.7c0.8,1.8,1.6,3.6,2.4,5.4c0.4,0.9,0.8,1.8,1.9,2c1,0.3,2.1-0.2,3-0.6
							c1.9-0.7,3.7-1.4,5.5-2.1c3.2-1.3,6.3-2.7,9.4-4.1c6.6-3.2,12.9-6.9,19-11c0.3-0.2,0.4-0.5,0.3-0.8
							c-1.3-7.5-3.5-14.8-6.9-21.7c-0.9-1.9-1.9-4.2-4.4-3.8c-1.5,0.3-3,1.4-4.4,2.1c-1.8,1-3.6,2-5.4,2.9c-6.9,3.6-14,7-21.2,10.1
							c-1.9,0.8-3.8,1.4-5.6,2.3c-0.7,0.3-1.5,0.8-1.5,1.7c0,1.2,1.4,1.5,2.1,0.7c0.2-0.2,0.3-0.6,0.1-0.8c-0.2-0.3-0.2-0.8-0.2-1.2
							c-0.1-0.9-1.5-0.5-1.4,0.4c0.1,0.5,0,1.1,0.4,1.5c0-0.3,0.1-0.6,0.1-0.8c0.2,0,0.4,0,0.7,0c0.5-0.2,1-0.4,1.5-0.6
							c0.7-0.3,1.4-0.6,2-0.8c1-0.4,2-0.8,3-1.3c2.5-1.1,5-2.2,7.5-3.4c5.1-2.4,10.2-4.9,15.2-7.6c2-1.1,7.2-5.2,9.3-2.8
							c0.7,0.8,1.1,2.2,1.6,3.2c0.7,1.4,1.3,2.9,1.9,4.4c2,5.1,3.4,10.3,4.3,15.7c0.1-0.3,0.2-0.5,0.3-0.8
							c-8.9,6.1-18.4,11.2-28.5,15.1c-1.9,0.7-5.6,2.9-7.4,1.9c-1.3-0.7-1.7-2.4-2.3-3.8c-0.6-1.4-1.3-2.7-1.9-4.1
							c-2.4-5.4-4.7-10.9-7.4-16.2c0-0.3,0.1-0.6,0.1-0.8c0,0.1-0.1,0.1-0.2,0.2C67.6,91.1,68.6,92.1,69.1,91.4z"/>
					</g>
				</g>
			</g>
			
				<ellipse transform="matrix(0.9769 -0.2135 0.2135 0.9769 -19.394 26.8272)" class="st8" cx="114.5" cy="103.2" rx="18" ry="6.5"/>
		</g>
		<g>
			<path class="st9" d="M106,82.6c3.6-4.7,7.4-9.6,8.3-15.4s-1.9-12.7-7.6-14.2c-5-1.3-10.1,1.9-15.2,1.4c-5.5-0.5-9.8-4.9-13.3-9.3
				s-7-9.1-12.3-10.8c-5-1.6-10.6,0.1-14.8,3.2s-7.4,7.4-10.4,11.7c5.3-7.4,16.9-9.1,24.1-3.5c5.5,4.3,8.1,11.7,14,15.4
				c2.3,1.4,5,2.1,7.7,2.1c3.3,0,6.4-1.2,9.7-1.8c3.2-0.5,6.9-0.3,9.3,2c2.2,2.1,2.7,5.6,2.5,8.7s-1,6.2-0.7,9.3L106,82.6z"/>
			<g>
				<path class="st9" d="M106.6,83.1c4.5-5.8,9.7-12.6,8.6-20.4c-1-6.7-6-11.4-12.9-10.6c-4.4,0.6-8.8,2.5-13.2,1
					c-4.3-1.4-7.5-5.1-10.2-8.5c-4.7-5.8-9.8-12.2-18-11.5c-9.5,0.7-15.7,8.6-20.7,15.8c-0.5,0.7,0.7,1.4,1.2,0.7
					c3.4-4.6,9.3-6.8,14.9-6.4C63,43.8,67,48.3,70.7,53.4c3.3,4.5,6.8,8.9,12.5,10.1c6.6,1.4,13.4-3.5,19.7-0.9
					c4.2,1.7,4.7,6.4,4.3,10.3c-0.2,2.1-0.6,4.2-0.7,6.3c0,0.7,0.2,1.4,0,1.9c-0.1,0.3-0.6,0.6-0.8,0.9
					C104.9,82.8,105.9,83.8,106.6,83.1c0.4-0.4,1.1-0.9,1.3-1.4c0.2-0.6,0-1.4,0-2c0-1.1,0.1-2.3,0.3-3.4c0.4-3.5,1-7.1-0.3-10.5
					c-2.8-7.1-10.9-5.4-16.7-4.1c-4.8,1.1-9.5,0.8-13.5-2.4c-2.8-2.2-4.7-5.3-6.8-8.1c-3.6-4.9-7.7-8.8-14-9.5
					C50.5,41,44,43.6,40.1,48.8c0.4,0.2,0.8,0.5,1.2,0.7c4.4-6.4,9.7-13.3,17.8-14.9C67.4,33,72.7,39.1,77.3,45
					c4,4.9,8.9,10.3,15.7,10.1c3.6-0.1,7-1.6,10.7-1.7c3.9-0.1,7,2,8.7,5.4c4.1,8.4-1.9,16.8-6.9,23.3C105,82.8,106,83.8,106.6,83.1
					z"/>
			</g>
		</g>
		<ellipse class="st9" cx="213.6" cy="175.9" rx="52.6" ry="52.6"/>
		<ellipse class="st10" cx="202.9" cy="181" rx="52.6" ry="52.6"/>
		
			<rect x="161" y="160.6" transform="matrix(0.8455 -0.534 0.534 0.8455 -55.5702 133.4844)" class="st4" width="83.8" height="4.3"/>
		
			<ellipse transform="matrix(0.9456 -0.3253 0.3253 0.9456 -52.8954 58.8669)" class="st3" cx="149.6" cy="187.6" rx="31" ry="10.8"/>
		<ellipse transform="matrix(0.866 -0.5 0.5 0.866 -34.0202 125.2379)" class="st11" cx="216.7" cy="126.1" rx="10.7" ry="2.9"/>
		<ellipse transform="matrix(0.866 -0.5 0.5 0.866 -36.0907 135.2918)" class="st11" cx="234.4" cy="135" rx="10.7" ry="2.9"/>
		<ellipse transform="matrix(0.866 -0.5 0.5 0.866 -41.1113 145.3626)" class="st11" cx="250.7" cy="149.4" rx="10.7" ry="2.9"/>
		<ellipse transform="matrix(0.866 -0.5 0.5 0.866 -48.0183 152.1985)" class="st11" cx="260" cy="165.7" rx="10.7" ry="2.9"/>
		
			<ellipse transform="matrix(0.9679 -0.2513 0.2513 0.9679 -38.5285 71.6827)" class="st11" cx="261.4" cy="186.7" rx="10.7" ry="2.9"/>
		
			<ellipse transform="matrix(0.9967 -8.100651e-02 8.100651e-02 0.9967 -15.8365 21.2433)" class="st11" cx="253.9" cy="205.8" rx="8.3" ry="2.3"/>
		
			<ellipse transform="matrix(0.9679 -0.2513 0.2513 0.9679 -51.429 61.8637)" class="st11" cx="216.5" cy="232.3" rx="3.3" ry="3.4"/>
		
			<ellipse transform="matrix(0.9967 -8.100651e-02 8.100651e-02 0.9967 -17.1375 19.9819)" class="st11" cx="237.7" cy="221.2" rx="8" ry="2.3"/>
		<ellipse transform="matrix(0.8455 -0.534 0.534 0.8455 -37.9697 122.1641)" class="st11" cx="192.1" cy="126.7" rx="8" ry="2.3"/>
		
			<ellipse transform="matrix(0.9679 -0.2513 0.2513 0.9679 -29.2784 48.1039)" class="st11" cx="173.7" cy="138.7" rx="3.3" ry="3.4"/>
		
			<ellipse transform="matrix(0.9679 -0.2513 0.2513 0.9679 -33.1402 44.894)" class="st11" cx="159.2" cy="152.2" rx="3.3" ry="3.4"/>
		
			<ellipse transform="matrix(0.9679 -0.2513 0.2513 0.9679 -37.3986 44.1352)" class="st11" cx="154.1" cy="168.5" rx="3.3" ry="3.4"/>
		
			<ellipse transform="matrix(0.9679 -0.2513 0.2513 0.9679 -47.7659 46.7611)" class="st11" cx="159.2" cy="210.4" rx="3.3" ry="3.4"/>
		
			<ellipse transform="matrix(0.9679 -0.2513 0.2513 0.9679 -50.7525 50.3599)" class="st11" cx="171.8" cy="223.9" rx="3.3" ry="3.4"/>
		
			<ellipse transform="matrix(0.9679 -0.2513 0.2513 0.9679 -52.2316 55.5554)" class="st11" cx="191.4" cy="232.3" rx="3.3" ry="3.4"/>
		<g>
			<path class="st12" d="M226.1,80.3c-0.6-3.2-3.4-5.2-6.3-6.4c-3.9-1.6-8.4-2.4-12.5-0.8c1.1,0.2,2.2,0.4,3.3,0.7
				c-1.8,0.4-3.5,1.3-4.9,2.5c0.9,0.5,1.8,0.8,2.8,1c-1.7,0.5-3.3,1.2-4.8,2.1c-0.2,0.1-0.4,0.2-0.5,0.4c-0.5,0.7,0.6,1.4,1.4,1.4
				c-2,0.7-3.8,1.8-5.4,3.2c0.8,0.5,1.7,0.7,2.7,0.8c-1.8,1.3-3.5,2.5-5.3,3.7c1,0,1.9-0.1,2.9-0.1c-1.2,0.6-1.6,2.2-1.3,3.4
				c0.3,1.2,1.3,2.1,2.1,2.9c3.1,2.8,6.7,5.2,10.9,6c0.5,0.1,1,0.1,1.5,0c0.7-0.3,1.1-1.2,1.8-1.6c0.7-0.5,1.8-0.1,1.5,0.6
				c0.9-1.2,1.4-2.7,1.4-4.1c0.5,0.3,1,0.5,1.4,0.8c0.1-1.4,0.3-2.7,0.5-4.1c0.6,0.1,1.1,0.2,1.6,0.4c0-1.4,0-2.8,0.1-4.2
				c0.6,0,1.2,0,1.8,0.1c-0.2-1.6-0.3-3.3-0.5-4.9c1.1,0,2.1,0.2,3,0.7c-0.1-1-0.3-2-0.4-2.9c0.5,0.3,1,0.6,1.5,0.8
				c0-1.8-0.5-3.6-1.5-5L226.1,80.3z"/>
			<g>
				<path class="st12" d="M225.6,79.8c-1.7-7.2-12.4-9.3-18.4-7.2c-0.6,0.2-0.7,1.1,0,1.3c1,0.2,2.1,0.4,3.1,0.6c0-0.4,0-1.1,0-1.6
					c-2.2,0.6-3.9,1.5-5.7,2.9c-0.4,0.3-0.3,1,0.2,1.2c1.1,0.6,2.1,0.9,3.2,1.2c0-0.5,0-1,0-1.4c-1.5,0.5-4.7,1.2-5.5,2.8
					c-0.6,1.2,0.8,2,1.8,2.3c0-0.4,0-1.2,0-1.2s-3.9,2-5.6,3.4c-0.3,0.3-0.2,0.9,0.1,1.1c0.9,0.5,1.8,0.7,2.8,0.9
					c0-0.4-0.1-0.8-0.2-1.3c-1.8,1.3-3.5,2.5-5.3,3.7c-0.5,0.4-0.4,1.4,0.4,1.3c1,0,1.9-0.1,2.9-0.1c-0.1-0.4-0.2-0.9-0.4-1.3
					c-4.3,3,0.5,7.5,3.2,9.5c2.2,1.7,4.7,3.1,7.3,3.8c0.9,0.3,2,0.6,2.9,0.4c0.5-0.1,0.7-0.2,1.1-0.5c0,0,1.7-1.6,1.7-1.2
					c0,0.7,0.9,0.9,1.3,0.4c0.9-1.4,1.4-2.8,1.4-4.5c-0.4,0.2-0.7,0.4-1.1,0.6c0.5,0.3,1,0.5,1.4,0.8c0.5,0.3,1-0.1,1.1-0.6
					c0.1-1.4,0.3-2.7,0.5-4.1c-0.3,0.2-0.6,0.5-0.9,0.7c0.6,0.1,1.1,0.2,1.6,0.4c0.5,0.1,0.9-0.2,0.9-0.7c0-1.4,0-2.8,0.1-4.2
					c-0.2,0.2-0.5,0.5-0.7,0.7c0.6,0,1.2,0,1.8,0.1c0.4,0,0.7-0.3,0.7-0.7c-0.2-1.6-0.3-3.3-0.5-4.9c-0.2,0.2-0.5,0.5-0.7,0.7
					c0.9,0,1.8,0.2,2.7,0.6c0.6,0.3,1.1-0.2,1-0.8c-0.1-1-0.3-2-0.4-2.9c-0.3,0.3-0.7,0.5-1,0.8c0.5,0.3,1,0.6,1.5,0.8
					c0.5,0.2,1.1,0,1.1-0.6c0-2-0.6-3.7-1.6-5.4c-0.5-0.7-1.6-0.1-1.2,0.7c0.4,0.9,0.9,1.9,1.3,2.8c0.4,0.8,1.6,0.1,1.2-0.7
					c-0.4-0.9-0.9-1.9-1.3-2.8c-0.4,0.2-0.8,0.5-1.2,0.7c0.9,1.5,1.4,2.9,1.4,4.7c0.4-0.2,0.7-0.4,1.1-0.6c-0.5-0.3-1-0.6-1.5-0.8
					c-0.6-0.3-1.1,0.2-1,0.8c0.1,1,0.3,2,0.4,2.9c0.3-0.3,0.7-0.5,1-0.8c-1.1-0.5-2.1-0.7-3.4-0.8c-0.4,0-0.7,0.3-0.7,0.7
					c0.2,1.6,0.3,3.3,0.5,4.9c0.2-0.2,0.5-0.5,0.7-0.7c-0.6,0-1.2,0-1.8-0.1c-0.4,0-0.7,0.3-0.7,0.7c0,1.4,0,2.8-0.1,4.2
					c0.3-0.2,0.6-0.5,0.9-0.7c-0.6-0.1-1.1-0.2-1.6-0.4c-0.5-0.1-0.8,0.2-0.9,0.7c-0.1,1.4-0.3,2.7-0.5,4.1c0.4-0.2,0.7-0.4,1.1-0.6
					c-0.5-0.3-1-0.5-1.4-0.8c-0.5-0.3-1,0-1.1,0.6c-0.1,1.4-0.5,2.6-1.3,3.8c0.4,0.1,0.9,0.2,1.3,0.4c0-0.8-0.5-1.4-1.4-1.5
					c-0.5,0-0.9,0.1-1.3,0.4c-0.3,0.2-0.5,0.5-0.7,0.7c-0.9,0.6-2.3,0.7-3.4,0.5c-2.7-0.6-14.9-7.5-10.2-10.7
					c0.5-0.4,0.4-1.4-0.4-1.3c-1,0-1.9,0.1-2.9,0.1c0.1,0.4,0.2,0.9,0.4,1.3c1.8-1.3,3.5-2.5,5.3-3.7c0.4-0.3,0.5-1.2-0.2-1.3
					c-0.9-0.1-1.6-0.3-2.5-0.7c0,0.4,0.1,0.7,0.1,1.1c1.6-1.3,3.2-2.3,5.1-3c0.6-0.2,0.7-1.2,0-1.4c-1.5-0.3,1.4-1.7,1.3-1.6
					c0.8-0.4,1.7-0.7,2.7-1c0.6-0.2,0.7-1.2,0-1.4c-1-0.2-1.7-0.5-2.7-0.9c0,0.4,0.1,0.7,0.1,1.1c1.4-1.1,2.9-1.9,4.7-2.3
					c0.7-0.2,0.7-1.2,0-1.4c-1.1-0.2-3.2-0.7-3.2-0.7s0,1,0,1.5c5.3-1.9,15.3-0.2,16.8,6.3C224.6,81,225.8,80.6,225.6,79.8z"/>
			</g>
		</g>
		<g>
			<path class="st12" d="M259.7,134.7c0.7-3.2-1.3-6.1-3.5-8.3c-3-2.9-6.9-5.3-11.4-5.3c0.9,0.6,1.9,1.2,2.8,1.8
				c-1.8-0.3-3.7-0.1-5.5,0.5c0.6,0.8,1.4,1.4,2.3,2c-1.7-0.1-3.5-0.1-5.3,0.2c-0.2,0-0.5,0.1-0.7,0.2c-0.7,0.5,0.1,1.4,0.8,1.8
				c-2.1,0-4.2,0.3-6.2,1c0.6,0.7,1.4,1.3,2.2,1.8c-2.1,0.5-4.2,1-6.3,1.5c0.9,0.3,1.8,0.7,2.7,0.9c-1.3,0.1-2.3,1.5-2.4,2.7
				c-0.1,1.3,0.4,2.4,0.9,3.5c1.9,3.8,4.4,7.3,8,9.5c0.4,0.3,0.9,0.5,1.4,0.5c0.8,0,1.4-0.7,2.2-0.9c0.7-0.2,1.8,0.6,1.2,1.1
				c1.3-0.8,2.2-2,2.8-3.4c0.4,0.4,0.7,0.8,1.1,1.3c0.7-1.2,1.3-2.5,2-3.7c0.5,0.3,0.9,0.7,1.4,1c0.5-1.3,1.1-2.6,1.6-3.9
				c0.6,0.2,1.1,0.5,1.7,0.7c0.4-1.6,0.9-3.2,1.3-4.7c1,0.4,1.9,1,2.5,1.7c0.2-1,0.5-1.9,0.7-2.9c0.4,0.4,0.7,0.9,1.1,1.3
				c0.7-1.7,0.8-3.6,0.4-5.3L259.7,134.7z"/>
			<g>
				<path class="st12" d="M261.1,134.9c1.1-8.1-8.7-14.5-15.9-14.7c-0.7,0-1,1-0.4,1.3c1,0.6,1.9,1.2,2.9,1.8
					c0.1-0.4,0.2-0.9,0.4-1.3c-2-0.2-3.9,0-5.8,0.6c-0.5,0.1-0.7,0.8-0.3,1.2c0.8,0.9,1.5,1.5,2.5,2.1c0.1-0.4,0.2-0.9,0.4-1.3
					c-1.5-0.1-5.3-0.6-6.6,0.7c-1,1.1,0.1,2.3,1,2.9c0.1-0.4,0.2-0.9,0.4-1.3c-2.2,0-4.4,0.4-6.5,1c-0.5,0.2-0.7,0.8-0.3,1.2
					c0.7,0.8,1.4,1.4,2.4,1.9c0-0.4,0.1-0.9,0.2-1.3c-2.1,0.5-4.3,1-6.5,1.6c-0.7,0.2-0.6,1.1,0,1.4c0.9,0.3,1.9,0.7,2.8,1
					c0-0.5,0-0.9,0-1.4c-5.4,1.4-1.9,7.8-0.1,10.7c1.4,2.2,3.1,4.2,5.1,5.7c0.9,0.7,1.9,1.5,3,1.5c0.5,0,3-0.6,3-0.8
					c-0.2,0.6,0.3,1.4,1,1c1.4-1,2.4-2.1,3.1-3.7c-0.4,0-0.8,0.1-1.1,0.1c0.4,0.4,0.7,0.9,1.1,1.3c0.3,0.3,0.9,0.2,1.1-0.1
					c0.7-1.2,1.3-2.5,2-3.8c-0.3,0.1-0.7,0.2-1,0.2c0.5,0.3,1,0.7,1.4,1s0.9,0,1-0.4c0.5-1.3,1.1-2.6,1.6-3.9
					c-0.3,0.1-0.7,0.3-1,0.4c0.6,0.2,1.1,0.5,1.7,0.8c0.4,0.2,0.9,0,1-0.4c0.4-1.6,0.9-3.2,1.3-4.8c-0.3,0.1-0.7,0.3-1,0.4
					c1,0.4,1.7,0.9,2.4,1.7c0.4,0.4,1.1,0.2,1.2-0.3c0.2-1,0.5-1.9,0.7-2.9c-0.4,0.1-0.8,0.2-1.2,0.3c0.4,0.4,0.8,0.9,1.1,1.3
					s1,0.1,1.2-0.3c0.7-1.9,0.9-3.8,0.4-5.7c-0.1-0.8-1.5-0.6-1.4,0.2c0,1,0.1,2.1,0.2,3.1C259.6,135.8,261.1,135.8,261.1,134.9
					c-0.1-1-0.2-2.1-0.3-3.1c-0.5,0-1,0.1-1.4,0.2c0.3,1.8,0.1,3.3-0.4,5c0.4-0.1,0.8-0.2,1.2-0.3c-0.4-0.4-0.8-0.9-1.1-1.3
					c-0.3-0.4-1.1-0.2-1.2,0.3c-0.2,1-0.5,1.9-0.7,2.9c0.4-0.1,0.8-0.2,1.2-0.3c-0.8-0.9-1.6-1.4-2.7-1.9c-0.4-0.2-0.9,0-1,0.4
					c-0.4,1.6-0.9,3.2-1.3,4.8c0.3-0.1,0.7-0.3,1-0.4c-0.6-0.2-1.1-0.5-1.7-0.8c-0.5-0.2-0.9,0-1,0.4c-0.5,1.3-1.1,2.6-1.6,3.9
					c0.3-0.1,0.7-0.3,1-0.4c-0.5-0.3-1-0.7-1.4-1c-0.3-0.2-0.8,0-1,0.2c-0.7,1.2-1.3,2.5-2,3.8c0.4,0,0.8-0.1,1.1-0.1
					c-0.4-0.4-0.7-0.9-1.1-1.3c-0.3-0.3-1-0.2-1.1,0.1c-0.6,1.3-1.4,2.3-2.6,3.2c0.3,0.3,0.7,0.7,1,1c0.3-0.8,0.3-1.5-0.5-2
					c-0.4-0.3-1-0.3-1.5-0.2c-1.3,0.2-1.8,1.1-3.5,0.2c-2.7-1.4-12.4-13.1-6.5-14.6c0.7-0.2,0.6-1.1,0-1.4c-0.9-0.3-1.9-0.7-2.8-1
					c0,0.5,0,0.9,0,1.4c2.1-0.5,4.3-1,6.5-1.6c0.6-0.1,0.7-1,0.2-1.3c-0.8-0.5-1.5-1-2.1-1.7c-0.1,0.4-0.2,0.8-0.3,1.2
					c2-0.7,4-1,6.1-1c0.8,0,0.9-1,0.4-1.3c-1.5-1.1,1.8-1,2.2-1c0.9,0,1.8,0,2.7,0c0.8,0,0.9-1,0.4-1.3c-0.9-0.6-1.5-1.1-2.2-1.9
					c-0.1,0.4-0.2,0.8-0.3,1.2c1.8-0.6,3.6-0.7,5.4-0.5c0.8,0.1,0.9-1,0.4-1.3c-1-0.6-1.9-1.2-2.9-1.8c-0.1,0.4-0.2,0.9-0.4,1.3
					c6.1,0.1,15.5,5.9,14.5,12.9C259.6,135.4,261,135.8,261.1,134.9z"/>
			</g>
		</g>
	</g>
	<g>
		<g>
			<path d="M401.9,123.8c1.3-4.1-0.8-8.6-4.2-11.3c-3.3-2.7-7.7-3.7-11.9-4.4c-3.4-0.6-6.8-0.9-10.2-1.1c-2.2-0.1-4.6,0-6.4,1.3
				c-3.1,2.4-2.2,7.5,0,10.7c3.1,4.3,8,7.2,13.2,8.5s10.7,1.1,16,0.6c1.8-0.2,3.8-0.6,4.6-2.2c0.3-0.7,0.4-1.5,0.4-2.3
				c0.1-3.2-0.5-7.2-3.5-7.9"/>
			<g>
				<path class="st1" d="M403.3,124.2c2.3-8.2-4.8-14.3-11.9-16.4c-4.4-1.3-9.2-1.8-13.9-2.1c-3.6-0.2-8-0.5-10.4,2.8
					c-4.4,6,1.7,13.6,6.6,16.8c7.3,4.9,16.9,5.3,25.3,4.2c4.3-0.6,6-2.9,5.8-7.1c-0.1-3.3-1.1-7-4.6-8.1c-1.8-0.6-2.5,2.2-0.8,2.8
					c2.9,1,3.7,8,0.9,9.2c-1.6,0.7-3.9,0.6-5.6,0.8c-2.1,0.1-4.2,0.1-6.3,0c-7-0.4-15.6-3.2-19-10c-1.6-3.2-1.6-7.5,2.6-8.4
					c4.1-0.8,9.2,0.2,13.2,0.9c6.8,1.1,17.6,5,15,14C400.1,125.2,402.8,126,403.3,124.2L403.3,124.2z"/>
			</g>
		</g>
		<g>
			<g>
				<path class="st13" d="M316.2,134.4c-2-10.2-1.9-20.8,0.8-30.9c2.1-8.1,5.6-19,15.2-20.3c10-1.4,17.7,8.3,22.8,15.5
					c6.3,8.7,12,18,17,27.6c1.3,2.6,2.7,5.3,3.9,7.9c1.1,2.3,1.9,5.2,4.1,6.6c2.3,1.5,5.8,1,6.6-2c0.6-2.1-0.9-4.9-3.2-5.3
					c-1.7-0.3-3.1,0.2-4.1,1.6c0,0-0.1,0.1-0.1,0.2c-2.6,3.8,3.6,7.4,6.2,3.6c0,0,0.1-0.1,0.1-0.2c-1.3,0.5-2.7,1.1-4.1,1.6
					c-0.6-0.6-1.2-1.1-1.8-1.7c0-0.6,0-1.3,0-1.9c0,0.1,0,0.1,0,0.2c0.8-0.8,1.7-1.7,2.5-2.5c-0.1,0-0.2,0-0.3,0.1
					c0.6,0,1.3,0,1.9,0c0.7,0.1,0.2,0.5,0.1-0.1c-0.1-0.7-0.6-1.4-0.9-2c-0.5-1.2-1.1-2.4-1.7-3.6c-1.1-2.4-2.3-4.8-3.5-7.1
					c-2.5-4.8-5.2-9.5-8-14c-5.4-8.7-11.1-17.9-18.9-24.7c-7.3-6.3-17-9.3-26.2-4.8c-8.5,4.2-12.2,14.6-14.5,23
					c-3.1,11.5-3.2,23.4-0.9,35.1C310.2,140.8,317.1,138.9,316.2,134.4L316.2,134.4z"/>
			</g>
		</g>
		<g>
			<path class="st14" d="M380,106.7c1.1-1.5,2.3-3.1,4-3.8c1.7-0.7,4.2,0,4.6,1.8c1.4-2.1,3.9-3.2,6.4-3c2.4,0.2,4.7,1.9,5.6,4.2
				c1.7-1.2,4.3-0.7,5.5,1s0.7,4.3-1,5.6c2.3,1.1,3.8,3.8,3.6,6.4c-0.2,2.6-2.1,4.9-4.5,5.7c0.4,1.9,0.2,4-0.5,5.7
				c-0.6,1.5-1.9,3-3.5,3.1c-1.8,0.1-3.2-1.4-4.3-2.8c-2,3.7-7.8,4.3-10.6,1.2c-0.3-0.4-0.7-0.9-1.1-1.1c-0.7-0.3-1.5-0.2-2.2-0.1
				c-2.7,0.3-5.4-0.3-7.7-1.8c-1.1-0.7-2.2-1.7-2.5-3s0.7-2.9,2-2.9c-1.5-0.6-2.6-2.1-2.7-3.8c0-1.6,1-3.3,2.4-4
				c-1.4-0.6-2.1-2.4-1.4-3.8c0.7-1.3,2.6-1.9,3.9-1.1c-0.5-1.4-0.3-3.2,0.9-4.1c1.2-0.9,3.4,0.2,3.1,1.7L380,106.7z"/>
			<g>
				<path class="st14" d="M380.5,107c0.8-1.1,1.6-2.1,2.7-2.9c1.4-1,3.9-1.4,4.7,0.7c0.2,0.6,0.9,0.7,1.3,0.2c3-4,8.6-3.2,10.7,1.1
					c0.2,0.3,0.7,0.4,1,0.2c3.7-2.1,6.9,2.7,3.7,5.5c-0.3,0.3-0.2,0.9,0.1,1.1c4.5,2.5,4.2,8.9-0.8,10.7c-0.4,0.1-0.6,0.5-0.5,0.9
					c0.4,2.2,0.2,4.9-1.3,6.7c-2.1,2.4-4.3,0.4-5.8-1.4c-0.3-0.4-0.9-0.2-1.1,0.1c-1.1,1.9-3.2,3-5.5,2.9s-3.2-1.4-4.8-2.7
					c-1.4-1.1-3.3-0.4-5-0.5c-1.6-0.1-3.2-0.5-4.6-1.3c-0.7-0.3-1.4-0.7-1.9-1.3c-0.7-0.9-1.8-3.3,0.3-3.6c0.6,0,1.1-1,0.4-1.3
					c-2.8-1.3-3.1-4.9-0.3-6.5c0.5-0.3,0.5-1,0-1.2c-2.4-1.3-0.9-4.9,1.7-3.7c0.5,0.2,1.2-0.1,1.1-0.8c-0.2-0.4-0.2-0.9-0.1-1.4
					c-0.2-1.4,0.7-1.7,2.7-0.8c0,0.9,1.4,0.9,1.4,0c0-0.4,0-0.8,0.1-1.1c0-0.9-1.4-0.9-1.4,0c0,0.4,0,0.8-0.1,1.1c0.5,0,1,0,1.4,0
					c0-1.7-1.6-3-3.3-2.6c-2.3,0.5-2.6,3.3-2.1,5.2c0.3-0.3,0.7-0.5,1.1-0.8c-4.3-2-7.3,3.9-3.2,6.2c0-0.4,0-0.8,0-1.2
					c-3.6,2.1-3.6,7.2,0.3,9c0.1-0.4,0.2-0.9,0.4-1.3c-2.4,0.3-3.4,2.8-2.3,4.8c1.6,3,6.1,4.3,9.3,4.3c1.5,0,2.5-0.2,3.9,0.8
					c0.5,0.4,0.9,0.9,1.4,1.2c1.1,0.7,2.4,1.1,3.8,1.1c2.7,0.1,5.3-1.2,6.7-3.6c-0.4,0-0.8,0.1-1.1,0.1c1.8,2.1,4.3,4.2,7,2.2
					c2.8-2,3.2-6,2.6-9c-0.1,0.3-0.3,0.6-0.5,0.9c6-2.2,6.7-10.1,1.1-13.3c0,0.4,0.1,0.8,0.1,1.1c4.5-3.9-0.2-10.7-5.4-7.7
					c0.3,0.1,0.7,0.2,1,0.2c-2.6-5.5-9.6-6-13.2-1.1c0.4,0,0.9,0.1,1.3,0.2c-0.7-1.8-2.4-2.7-4.3-2.6c-2.6,0.2-4.3,2.5-5.6,4.4
					C378.8,107.1,380,107.8,380.5,107z"/>
			</g>
		</g>
		<g>
			<path class="st2" d="M366.4,116.2c-2.1,1.2-3.1,3.8-2.8,6s1.4,4.3,2.7,6.1c1.8,2.5,3.9,4.9,6.7,6.3c6.3,2.9,15.1-0.8,17.8-7.2
				s-1-14.1-7.5-16.4s-14.9,0.8-18.8,6.6"/>
		</g>
		<ellipse transform="matrix(0.772 -0.6356 0.6356 0.772 -4.6056 286.5991)" class="st3" cx="397.2" cy="149.7" rx="31.8" ry="11"/>
		<g>
			<path class="st5" d="M307.6,163.2c-3,0.3-5.6,2.1-7.5,4.3c-1.8,2.2-2.8,5-3.4,7.7c-1.5,6.9-0.7,14.1,2.3,20.6l-2.6-9.1
				c-9.7,6.5-14,18.6-11.9,29.6c2.1,10.9,9.8,20.4,19.6,26.8c20.9,13.5,51.1,12.4,71.5-1.7c20.4-14.1,30.2-39.7,25.1-62.8
				c-1.6-7.2-4.4-14-7.2-20.8c-6.4-15.7-12.3-31.5-18-47.5l0.7,1.5c-2.7-6.7-8.9-11.9-16-14.6c-7.2-2.7-15.2-2.9-22.8-1.5
				c-9.4,1.8-18.5,6.5-23.4,14.1c-4.6,7.2-5,16.1-3.1,24.2c2,8.1,6.1,15.6,10.3,23l-5.7-13.5c-3.5-0.4-6.9,2-8.3,5s-1.1,6.4-0.5,9.6
				c1.6,8.2,5.6,15.9,9.8,23.3c-0.2-0.3-0.5-0.7-0.7-1"/>
			<g>
				<path class="st5" d="M307.4,162.6c-14.8,2.3-13.5,23.6-8.9,33.6c0.3,0.8,1.5,0.2,1.3-0.6c-0.9-3.1-1.8-6.1-2.6-9.1
					c-0.1-0.4-0.7-0.7-1.1-0.4c-6.9,4.8-11.4,12.3-12.5,20.7c-1.1,8.8,1.8,17.6,7.1,24.7c11,14.8,29.7,21.9,47.7,21.9
					c18.2,0,36.3-7.1,48.6-20.8c11.7-13,17.7-31,15.6-48.5c-1.5-12.3-7.1-23.7-11.6-35.2c-5.1-12.8-9.9-25.7-14.4-38.7
					c-0.4,0.2-0.9,0.4-1.3,0.6c0.2,0.5,0.5,1,0.7,1.5c0.4,0.9,1.6,0.1,1.2-0.7c-6.8-15.9-26.6-19.6-41.8-15.9
					c-7.6,1.8-14.9,5.4-19.9,11.3c-5.2,6.2-6.9,14.3-6,22.2c1.1,10.3,6.3,19.5,11.3,28.4c0.4,0.7,1.6,0.2,1.3-0.6
					c-1.9-4.5-3.8-9-5.7-13.5c-0.1-0.3-0.3-0.5-0.7-0.5c-3.1-0.2-6,1.2-7.8,3.6c-2.3,3.1-2.4,7.1-1.8,10.7c1.4,8.8,5.8,17,10.1,24.6
					c0.4-0.2,0.8-0.5,1.2-0.7c-0.2-0.3-0.5-0.7-0.7-1c-0.5-0.8-1.8,0-1.2,0.7c0.2,0.3,0.5,0.7,0.7,1c0.5,0.8,1.7,0.1,1.2-0.7
					c-3.5-6.2-6.9-12.6-8.9-19.4c-1-3.5-1.9-7.4-1.1-11c0.9-3.8,4.2-6.7,8.2-6.4c-0.2-0.2-0.5-0.3-0.7-0.5c1.9,4.5,3.8,9,5.7,13.5
					c0.4-0.2,0.9-0.4,1.3-0.6c-7.6-13.6-16.9-31.5-7.2-46.5c8.4-12.9,27.7-17.1,41.7-13.5c8.3,2.1,15.9,7.4,19.2,15.4
					c0.4-0.2,0.8-0.5,1.2-0.7c-0.2-0.5-0.5-1-0.7-1.5c-0.3-0.7-1.6-0.2-1.3,0.6c3.7,10.7,7.6,21.2,11.7,31.7
					c3.9,10,8.5,19.9,11.7,30.2c5.3,16.9,3.3,35-6,50.2c-9.2,15.1-24.6,25.1-42,28.2c-17.5,3.2-36.9-0.4-50.8-12
					c-7.6-6.3-13.8-15.3-14.7-25.5c-0.9-10.1,3.6-20.2,11.9-25.9c-0.3-0.1-0.7-0.3-1.1-0.4c0.9,3.1,1.8,6.1,2.6,9.1
					c0.4-0.2,0.9-0.4,1.3-0.6c-4.2-9.3-5.6-29.4,8.1-31.5C308.7,163.7,308.3,162.4,307.4,162.6L307.4,162.6z"/>
			</g>
		</g>
		<g>
			<path class="st14" d="M298.8,130.6c1.1-1.5,2.3-3.1,4-3.8c1.7-0.7,4.2,0,4.6,1.8c1.4-2.1,3.9-3.2,6.4-3c2.4,0.2,4.7,1.9,5.6,4.2
				c1.7-1.2,4.3-0.7,5.5,1s0.7,4.3-1,5.6c2.3,1.1,3.8,3.8,3.6,6.4c-0.2,2.6-2.1,4.9-4.5,5.7c0.4,1.9,0.2,4-0.5,5.7
				c-0.6,1.5-1.9,3-3.5,3.1c-1.8,0.1-3.2-1.4-4.3-2.8c-2,3.7-7.8,4.3-10.6,1.2c-0.3-0.4-0.7-0.9-1.1-1.1c-0.7-0.3-1.5-0.2-2.2-0.1
				c-2.7,0.3-5.4-0.3-7.7-1.8c-1.1-0.7-2.2-1.7-2.5-3s0.7-2.9,2-2.9c-1.5-0.6-2.6-2.1-2.7-3.8c0-1.6,1-3.3,2.4-4
				c-1.4-0.6-2.1-2.4-1.4-3.8s2.6-1.9,3.9-1.1c-0.5-1.4-0.3-3.2,0.9-4.1c1.2-0.8,3.4,0.2,3.1,1.7L298.8,130.6z"/>
			<g>
				<path class="st14" d="M299.3,130.9c0.8-1.1,1.6-2.1,2.7-2.9c1.4-1,3.9-1.4,4.7,0.7c0.2,0.6,0.9,0.7,1.3,0.2
					c3-4,8.6-3.2,10.7,1.1c0.2,0.3,0.7,0.4,1,0.2c3.7-2.1,6.9,2.7,3.7,5.5c-0.3,0.3-0.2,0.9,0.1,1.1c4.5,2.5,4.2,8.9-0.8,10.7
					c-0.4,0.1-0.6,0.5-0.5,0.9c0.4,2.2,0.2,4.9-1.3,6.7c-2.1,2.4-4.3,0.4-5.8-1.4c-0.3-0.4-0.9-0.2-1.1,0.1c-1.1,1.9-3.2,3-5.5,2.9
					s-3.2-1.4-4.8-2.7c-1.4-1.1-3.3-0.4-5-0.5c-1.6-0.1-3.2-0.5-4.6-1.3c-0.7-0.3-1.4-0.7-1.9-1.3c-0.7-0.9-1.8-3.3,0.3-3.6
					c0.6,0,1.1-1,0.4-1.3c-2.8-1.3-3.1-4.9-0.3-6.5c0.5-0.3,0.5-1,0-1.2c-2.4-1.3-0.9-4.9,1.7-3.7c0.5,0.2,1.2-0.1,1.1-0.8
					c-0.2-0.4-0.2-0.9-0.1-1.4c-0.2-1.4,0.7-1.7,2.7-0.8c0,0.9,1.4,0.9,1.4,0c0-0.4,0-0.8,0.1-1.1c0-0.9-1.4-0.9-1.4,0
					c0,0.4,0,0.8-0.1,1.1c0.5,0,1,0,1.4,0c0-1.7-1.6-3-3.3-2.6c-2.3,0.5-2.6,3.3-2.1,5.2c0.3-0.3,0.7-0.5,1.1-0.8
					c-4.3-2-7.3,3.9-3.2,6.2c0-0.4,0-0.8,0-1.2c-3.6,2.1-3.6,7.2,0.3,9c0.1-0.4,0.2-0.9,0.4-1.3c-2.4,0.3-3.4,2.8-2.3,4.8
					c1.6,3,6.1,4.3,9.3,4.3c1.5,0,2.5-0.2,3.9,0.8c0.5,0.4,0.9,0.9,1.4,1.2c1.1,0.7,2.4,1.1,3.8,1.1c2.7,0.1,5.3-1.2,6.7-3.6
					c-0.4,0-0.8,0.1-1.1,0.1c1.8,2.1,4.3,4.2,7,2.2c2.8-2,3.2-6,2.6-9c-0.1,0.3-0.3,0.6-0.5,0.9c6-2.2,6.7-10.1,1.1-13.3
					c0,0.4,0.1,0.8,0.1,1.1c4.5-3.9-0.2-10.7-5.4-7.7c0.3,0.1,0.7,0.2,1,0.2c-2.6-5.5-9.6-6-13.2-1.1c0.4,0,0.9,0.1,1.3,0.2
					c-0.7-1.8-2.4-2.7-4.3-2.6c-2.6,0.2-4.3,2.5-5.6,4.4C297.6,131,298.8,131.7,299.3,130.9z"/>
			</g>
		</g>
		<g>
			<path d="M319.9,128c-3.4-2.6-8.5-2.1-12,0.2c-3.6,2.3-6.1,6-8.1,9.7c-1.7,3-3.1,6.1-4.4,9.3c-0.8,2.1-1.6,4.3-0.9,6.4
				c1.2,3.8,6.4,4.6,10.1,3.5c5.2-1.5,9.4-5.2,12.4-9.7c2.9-4.5,4.6-9.6,5.8-14.9c0.4-1.7,0.7-3.8-0.6-5.1c-0.6-0.6-1.3-0.9-2.1-1.1
				c-3-1.1-6.9-2-8.6,0.7"/>
			<g>
				<path class="st1" d="M320.2,127.4c-6.6-4.6-14.3,0-18.3,5.7c-2.6,3.6-4.6,7.7-6.4,11.8c-1.4,3.2-3.2,7.2-1.1,10.4
					c3.9,5.7,12.6,2.5,16.9-0.8c6.8-5.2,10.3-13.6,12.1-21.7c0.9-3.9-0.1-6.2-4-7.4c-3-1-6.5-1.4-8.6,1.3c-0.6,0.7,0.7,1.4,1.2,0.7
					c1.3-1.7,3.6-1.5,5.5-1.1c2.3,0.5,4.8,1.3,4.8,4.3c0,2-0.8,4.1-1.4,5.9c-0.6,2.1-1.3,4.2-2.2,6.2c-3,6.5-9,13.9-16.9,14.2
					c-4.6,0.2-8-2.6-6.6-7.5c1.1-4,3.2-7.8,5.2-11.4c3.5-6.4,11.1-14.9,19-9.4C320.2,129.2,321,127.9,320.2,127.4L320.2,127.4z"/>
			</g>
		</g>
		<g>
			<path class="st2" d="M332,127.6c-2.1,1.2-3.1,3.8-2.8,6s1.4,4.3,2.7,6.1c1.8,2.5,3.9,4.9,6.7,6.3c6.3,2.9,15.1-0.8,17.8-7.2
				s-1-14.1-7.5-16.4s-14.9,0.8-18.8,6.6"/>
		</g>
		<g>
			<path class="st6" d="M329.7,130.2c-0.7,0.4-1,1.2-1,2c0.1,0.8,0.5,1.4,0.9,2c0.6,0.8,1.3,1.6,2.2,2.1c2.1,1,5-0.3,5.9-2.4
				c0.9-2.1-0.3-4.7-2.5-5.4c-2.1-0.8-5,0.3-6.3,2.2"/>
			<g>
				<path class="st6" d="M329,129c-3.1,2.3-1.2,6.3,1.5,8.1c2.6,1.8,6.4,0.8,8.1-1.8c1.8-2.7,0.7-6.4-2.1-7.9
					c-3.1-1.6-6.7,0-8.6,2.5c-1.1,1.5,1.4,2.9,2.5,1.4c0.9-1.2,2.4-1.9,3.9-1.7c1.7,0.2,2.9,2,2.2,3.6c-0.5,1.2-2.1,2.1-3.4,1.9
					c-1-0.1-3.9-2.8-2.6-3.7C331.9,130.3,330.5,127.8,329,129L329,129z"/>
			</g>
		</g>
		<g>
			<path d="M374.8,126.5c-3.9,0.9-7.5,2.9-10.4,5.6c2.1,2.3,4.6,4.1,7.5,5.3c0.5,0.2,1.1,0.4,1.6,0.3c0.9-0.2,1.4-1.2,1.6-2.2
				c0.8-2.9,1.1-5.9,1-8.8"/>
			<g>
				<path class="st1" d="M374.4,125.2c-4.2,1.1-7.9,3.1-11,6c-0.6,0.5-0.5,1.5,0,2c1.6,1.7,3.4,3.2,5.3,4.3c1.5,0.9,3.6,2.2,5.5,1.5
					c1.6-0.6,2.1-2.4,2.5-3.9c0.7-2.7,0.9-5.5,0.8-8.4c0-1.9-2.9-1.9-2.9,0c0,1.5,0,3-0.1,4.4c-0.1,1.1-0.3,2.1-0.6,3.2
					c-0.1,0.3-0.1,0.6-0.2,0.9c0,0.8-0.3,1-1.1,0.7c-2.5,0.2-5.7-3.2-7.3-4.8c0,0.7,0,1.3,0,2c2.8-2.6,6.1-4.3,9.8-5.2
					C376.9,127.5,376.1,124.7,374.4,125.2L374.4,125.2z"/>
			</g>
		</g>
		<g>
			<path d="M373.7,136.7c-4.5,1.1-8.7,4.4-11.4,9.2c-1.2,2.1-2.1,4.6-2.2,7.2c-0.1,2.6,0.8,5.4,2.5,6.8c2.4,2,5.9,0.9,8-1.7
				c2.1-2.6,3-6.3,3.5-9.9c0.5-3.6,0.8-7.4,0.7-11c0-0.4,0-0.8,0.1-1.1c0.2-0.3,0.5-0.4,0.8-0.5c4.8-1.8,10.3-2.4,14.5,1
				c1.8,1.4,3.3,4,2.7,6.5c-0.4,1.5-1.4,2.6-2.6,3.2c-2.8,1.4-6.1,0.4-8.6-1.8c-2.5-2.1-4.3-5.3-6.1-8.4"/>
			<g>
				<path class="st1" d="M373.4,135.3c-6.1,1.6-11,6.4-13.4,12.2c-2,4.8-2.1,13.9,4.7,14.8c6.8,0.9,9.6-7.3,10.6-12.5
					c0.3-1.9,0.6-3.8,0.7-5.7c0.1-1.1,0.1-2.1,0.2-3.2c0-0.8-0.3-3.1,0-3.7c0.7-1.1,3.5-1.3,4.6-1.5c2-0.2,3.9-0.2,5.8,0.5
					c2.2,0.8,4.5,2.6,4.9,5.1c0.5,3.1-2.6,4.7-5.3,4.2c-4.6-1-7.3-6.2-9.4-9.9c-0.9-1.6-3.4-0.1-2.5,1.4c3.1,5.3,8.3,13.7,15.7,11.1
					c2.9-1,4.7-3.7,4.4-6.8c-0.4-3.4-3-6.1-6-7.4c-3-1.3-6.4-1.3-9.6-0.7c-1.3,0.3-3.2,0.6-4.3,1.4c-1.3,0.9-1.2,2.2-1.2,3.6
					c0,4.5-0.3,9.2-1.4,13.6c-0.8,3.1-3.7,9.9-8.1,7.4c-2-1.2-2.5-4.3-2.3-6.4c0.2-2.4,1.1-4.7,2.4-6.8c2.3-3.8,5.8-6.7,10.2-7.8
					C375.9,137.6,375.2,134.8,373.4,135.3L373.4,135.3z"/>
			</g>
		</g>
		<g>
			<path class="st7" d="M379.9,141.6c-2.3-1.3-5.8,0.2-6.4,2.9c-0.2,1.1,0,2.2,0.2,3.3c1.1,5,3.3,9.7,6.4,13.9
				c1.8,2.3,4.6,4.6,7.3,3.5c2.7-1.2,2.9-4.9,2.5-7.8c-0.4-3.7-1.1-7.5-3-10.7s-5.3-5.7-9-5.7c-1.1,0-2.4,0.4-3,1.3
				c-0.4,0.6-0.5,1.4-0.5,2.2c0,4.3,1.3,8.7,3.7,12.3"/>
			<g>
				<path class="st7" d="M380.6,140.3c-2.3-1.1-5.1-0.8-7,1.1c-2.3,2.3-1.6,5.7-0.8,8.6c1.1,3.7,2.7,7.4,4.8,10.6
					c1.7,2.6,4,5.5,7.3,6.1c7.4,1.2,6.6-8.6,5.9-13c-1.1-6.3-4.7-13.5-11.9-14.1c-10.1-1-5,13.4-2.1,17.9c1,1.5,3.5,0.1,2.5-1.4
					c-1.7-2.6-2.9-5.4-3.3-8.5c-0.2-1.8-0.6-5,1.9-5.2c1.3,0,2.7,0.4,3.9,1.1c5.1,2.9,6.5,9.7,6.8,15c0.1,2.2-0.2,6.3-3.5,5.4
					c-2.9-0.8-4.8-4.3-6.2-6.7c-1.5-2.6-2.6-5.3-3.4-8.2c-0.4-1.4-1.1-3.4-0.3-4.8c0.8-1.3,2.6-1.9,4-1.3
					C380.9,143.6,382.3,141.1,380.6,140.3L380.6,140.3z"/>
			</g>
		</g>
		<circle class="st15" cx="451.2" cy="215.4" r="41.4"/>
		
			<ellipse transform="matrix(0.3995 -0.9167 0.9167 0.3995 59.6685 481.3119)" class="st3" cx="397.2" cy="195.1" rx="11" ry="31.8"/>
		<circle class="st15" cx="433.1" cy="117.9" r="41.4"/>
		<g>
			<path class="st6" d="M386.6,115.4c-0.7,0.4-1,1.2-1,2c0.1,0.8,0.5,1.4,0.9,2c0.6,0.8,1.3,1.6,2.2,2.1c2.1,1,5-0.3,5.9-2.4
				s-0.3-4.7-2.5-5.4c-2.2-0.8-5,0.3-6.3,2.2"/>
			<g>
				<path class="st6" d="M385.9,114.2c-3.1,2.3-1.2,6.3,1.5,8.1c2.6,1.8,6.4,0.8,8.1-1.8c1.8-2.7,0.7-6.4-2.1-7.9
					c-3.1-1.6-6.7,0-8.6,2.5c-1.1,1.5,1.4,2.9,2.5,1.4c0.9-1.2,2.4-1.9,3.9-1.7c1.7,0.2,2.9,2,2.2,3.6c-0.5,1.2-2.1,2.1-3.4,1.9
					c-1-0.1-3.9-2.8-2.6-3.7C388.7,115.5,387.3,113,385.9,114.2L385.9,114.2z"/>
			</g>
		</g>
	</g>
	<g>
		<g>
			<path d="M1063.7,123.2c1.3-4.1-0.8-8.7-4.2-11.4c-3.4-2.7-7.7-3.7-12-4.5c-3.4-0.6-6.8-0.9-10.3-1.1c-2.2-0.1-4.7,0-6.4,1.3
				c-3.1,2.5-2.3,7.5,0,10.8c3.1,4.4,8.1,7.2,13.3,8.5c5.2,1.3,10.7,1.2,16,0.6c1.8-0.2,3.8-0.6,4.7-2.3c0.3-0.7,0.4-1.5,0.4-2.4
				c0.1-3.2-0.5-7.3-3.6-8"/>
			<g>
				<path class="st1" d="M1065.1,123.6c2.3-8.2-4.9-14.4-12-16.5c-4.5-1.3-9.3-1.8-13.9-2.2c-3.6-0.2-8-0.5-10.4,2.8
					c-4.4,6,1.7,13.6,6.7,16.9c7.4,4.9,17,5.3,25.5,4.2c4.3-0.6,6-2.9,5.9-7.2c-0.1-3.4-1.1-7-4.6-8.2c-1.8-0.6-2.5,2.2-0.8,2.8
					c2.9,1,3.7,8,0.9,9.3c-1.6,0.7-3.9,0.6-5.6,0.8c-2.1,0.1-4.2,0.1-6.3,0c-7.1-0.4-15.7-3.3-19.1-10.1c-1.6-3.2-1.6-7.6,2.6-8.5
					c4.1-0.8,9.2,0.2,13.3,0.9c6.8,1.2,17.7,5,15.1,14.1C1061.7,124.6,1064.5,125.4,1065.1,123.6L1065.1,123.6z"/>
			</g>
		</g>
		<g>
			<path class="st2" d="M1027.9,115.6c-2.1,1.2-3.1,3.8-2.8,6.1c0.2,2.3,1.4,4.3,2.7,6.1c1.8,2.5,3.9,4.9,6.8,6.3
				c6.3,2.9,15.2-0.8,17.9-7.2c2.7-6.4-1-14.2-7.5-16.5c-6.6-2.4-15,0.8-18.9,6.7"/>
		</g>
		<g>
			<path class="st5" d="M968.7,162.9c-3,0.3-5.7,2.1-7.5,4.4c-1.8,2.3-2.8,5-3.4,7.7c-1.5,6.9-0.7,14.2,2.4,20.7l-2.6-9.2
				c-9.8,6.5-14.1,18.7-12,29.7s9.9,20.6,19.7,27c21,13.6,51.4,12.5,71.9-1.7s30.4-40,25.2-63.2c-1.6-7.2-4.5-14.1-7.3-20.9
				c-6.4-15.8-12.4-31.7-18.1-47.8l0.7,1.5c-2.7-6.7-8.9-12-16.1-14.7c-7.2-2.7-15.3-2.9-22.9-1.5c-9.5,1.8-18.6,6.5-23.6,14.2
				c-4.6,7.2-5,16.2-3.1,24.4s6.1,15.7,10.3,23.2l-5.7-13.6c-3.5-0.4-6.9,2-8.3,5c-1.4,3-1.2,6.5-0.5,9.7c1.6,8.3,5.7,16,9.9,23.4
				c-0.2-0.3-0.5-0.7-0.7-1"/>
			<g>
				<path class="st5" d="M968.5,162.2c-14.8,2.4-13.5,23.8-9,33.9c0.3,0.8,1.5,0.2,1.3-0.6c-0.9-3.1-1.8-6.1-2.6-9.2
					c-0.1-0.4-0.7-0.7-1.1-0.4c-7,4.9-11.5,12.4-12.5,20.8c-1.2,8.9,1.8,17.7,7.1,24.8c11.1,14.9,29.8,22.1,48,22
					c18.4,0,36.5-7.2,48.9-20.9c11.7-13.1,17.8-31.2,15.7-48.8c-1.5-12.4-7.2-23.9-11.7-35.4c-5.1-12.9-9.9-25.9-14.5-39
					c-0.4,0.2-0.9,0.4-1.3,0.6c0.2,0.5,0.5,1,0.7,1.5c0.4,0.9,1.6,0.1,1.2-0.7c-6.8-16-26.8-19.7-42-16c-7.4,1.8-14.8,5.4-19.8,11.4
					c-5.2,6.2-6.9,14.4-6.1,22.3c1.2,10.3,6.3,19.7,11.3,28.6c0.4,0.7,1.6,0.2,1.3-0.6c-1.9-4.5-3.8-9-5.7-13.6
					c-0.1-0.3-0.3-0.5-0.7-0.5c-3.1-0.2-6,1.2-7.9,3.7c-2.4,3.1-2.4,7.1-1.8,10.8c1.4,8.9,5.8,17.1,10.2,24.8
					c0.4-0.2,0.8-0.5,1.2-0.7c-0.2-0.3-0.5-0.7-0.7-1c-0.5-0.8-1.8,0-1.2,0.7c0.2,0.3,0.5,0.7,0.7,1c0.5,0.8,1.7,0.1,1.2-0.7
					c-3.6-6.2-7-12.6-8.9-19.6c-1-3.5-1.9-7.4-1.1-11.1c0.9-3.8,4.2-6.7,8.3-6.4c-0.2-0.2-0.5-0.3-0.7-0.5c1.9,4.5,3.8,9,5.7,13.6
					c0.4-0.2,0.9-0.4,1.3-0.6c-7.6-13.7-17-31.7-7.3-46.8c8.4-13,27.8-17.2,42-13.5c8.3,2.1,16,7.4,19.4,15.5
					c0.4-0.2,0.8-0.5,1.2-0.7c-0.2-0.5-0.5-1-0.7-1.5c-0.3-0.7-1.6-0.2-1.3,0.6c3.7,10.7,7.7,21.3,11.8,31.9
					c3.9,10.1,8.5,20,11.8,30.4c5.4,17,3.3,35.2-6,50.5c-9.3,15.2-24.8,25.2-42.3,28.3c-17.6,3.2-37.1-0.4-51.1-12.1
					c-7.8-6.3-14.1-15.4-14.9-25.7c-0.9-10.1,3.6-20.3,12-26.1c-0.3-0.1-0.7-0.3-1.1-0.4c0.9,3.1,1.8,6.1,2.6,9.2
					c0.4-0.2,0.9-0.4,1.3-0.6c-4.2-9.3-5.7-29.5,8.1-31.7C969.8,163.4,969.5,162,968.5,162.2L968.5,162.2z"/>
			</g>
		</g>
		<g>
			<path d="M981.1,127.5c-3.4-2.6-8.5-2.1-12.1,0.2c-3.6,2.3-6.1,6.1-8.2,9.8c-1.7,3-3.1,6.1-4.4,9.3c-0.8,2.1-1.6,4.4-0.9,6.5
				c1.2,3.8,6.4,4.7,10.2,3.6c5.2-1.5,9.5-5.2,12.4-9.8c2.9-4.5,4.7-9.7,5.9-14.9c0.4-1.7,0.7-3.8-0.6-5.1c-0.6-0.6-1.3-0.9-2.1-1.2
				c-3-1.2-7-2-8.7,0.7"/>
			<g>
				<path class="st1" d="M981.5,126.8c-6.6-4.7-14.4,0-18.4,5.7c-2.6,3.7-4.6,7.8-6.4,11.9c-1.4,3.2-3.3,7.2-1.1,10.5
					c3.9,5.7,12.7,2.5,17-0.8c6.9-5.2,10.4-13.6,12.2-21.9c0.9-3.9-0.1-6.2-4-7.4c-3-1-6.5-1.4-8.6,1.3c-0.6,0.7,0.7,1.4,1.2,0.7
					c1.3-1.7,3.6-1.5,5.5-1.1c2.4,0.5,4.9,1.3,4.8,4.3c0,2-0.8,4.1-1.4,6c-0.6,2.1-1.3,4.2-2.3,6.2c-3,6.6-9.1,14-17,14.3
					c-4.6,0.2-8.1-2.6-6.6-7.5c1.2-4,3.3-7.9,5.2-11.5c3.6-6.4,11.2-15,19.1-9.4C981.5,128.6,982.2,127.4,981.5,126.8L981.5,126.8z"
					/>
			</g>
		</g>
		<g>
			<path class="st2" d="M993.3,127.1c-2.1,1.2-3.1,3.8-2.8,6.1c0.2,2.3,1.4,4.3,2.7,6.1c1.8,2.5,3.9,4.9,6.8,6.3
				c6.3,2.9,15.2-0.8,17.9-7.2s-1-14.2-7.5-16.5c-6.6-2.4-15,0.8-18.9,6.7"/>
		</g>
		<g>
			<path class="st6" d="M993.9,138.3c-0.7,0.4-1,1.2-1,2c0.1,0.8,0.5,1.4,0.9,2c0.6,0.8,1.3,1.6,2.3,2.1c2.1,1,5-0.3,6-2.4
				c0.9-2.1-0.3-4.7-2.5-5.5s-5,0.3-6.3,2.2"/>
			<g>
				<path class="st6" d="M993.2,137c-3.1,2.4-1.2,6.3,1.5,8.2c2.6,1.8,6.4,0.8,8.2-1.8c1.8-2.7,0.7-6.5-2.1-8
					c-3.1-1.6-6.8,0-8.7,2.5c-1.1,1.5,1.4,2.9,2.5,1.4c0.9-1.2,2.5-1.9,3.9-1.7c1.7,0.2,2.9,2,2.3,3.7c-0.5,1.2-2.1,2.1-3.4,1.9
					c-1-0.1-3.9-2.8-2.6-3.7C996.1,138.4,994.7,135.9,993.2,137L993.2,137z"/>
			</g>
		</g>
		<g>
			<path class="st6" d="M1043.4,109.9c-0.7,0.4-1,1.2-1,2c0.1,0.8,0.5,1.4,0.9,2c0.6,0.8,1.3,1.6,2.3,2.1c2.1,1,5-0.3,6-2.4
				c0.9-2.1-0.3-4.7-2.5-5.5s-5,0.3-6.3,2.2"/>
			<g>
				<path class="st6" d="M1042.7,108.7c-3.1,2.4-1.2,6.3,1.5,8.2c2.6,1.8,6.4,0.8,8.2-1.8c1.8-2.7,0.7-6.5-2.1-8
					c-3.1-1.6-6.8,0-8.7,2.5c-1.1,1.5,1.4,2.9,2.5,1.4c0.9-1.2,2.5-1.9,3.9-1.7c1.7,0.2,2.9,2,2.3,3.7c-0.5,1.2-2.1,2.1-3.4,1.9
					c-1-0.1-3.9-2.8-2.6-3.7C1045.6,110.1,1044.2,107.6,1042.7,108.7L1042.7,108.7z"/>
			</g>
		</g>
		<g>
			<path d="M1036.4,126c-3.9,0.9-7.6,2.9-10.5,5.6c2.1,2.3,4.7,4.1,7.5,5.4c0.5,0.2,1.1,0.4,1.6,0.3c0.9-0.2,1.4-1.2,1.6-2.2
				c0.8-2.9,1.2-5.9,1-8.9"/>
			<g>
				<path class="st1" d="M1036.1,124.6c-4.2,1.1-7.9,3.1-11.1,6c-0.6,0.5-0.5,1.5,0,2c1.6,1.7,3.4,3.2,5.4,4.4
					c1.5,0.9,3.7,2.2,5.5,1.5c1.6-0.6,2.2-2.4,2.5-3.9c0.7-2.7,0.9-5.6,0.8-8.4c0-1.9-2.9-1.9-2.9,0c0,1.5,0,3-0.1,4.5
					c-0.1,1.1-0.3,2.1-0.6,3.2c-0.1,0.3-0.1,0.6-0.2,0.9c0,0.8-0.3,1-1.1,0.7c-2.5,0.2-5.7-3.2-7.3-4.9c0,0.7,0,1.3,0,2
					c2.8-2.6,6.1-4.3,9.8-5.2C1038.7,126.9,1037.9,124.1,1036.1,124.6L1036.1,124.6z"/>
			</g>
		</g>
		<g>
			<path d="M1035.3,136.2c-4.6,1.1-8.8,4.5-11.5,9.2c-1.2,2.2-2.2,4.6-2.3,7.3c-0.1,2.6,0.8,5.4,2.5,6.9c2.5,2,6,0.9,8-1.7
				c2.1-2.6,3-6.3,3.5-9.9c0.5-3.7,0.8-7.4,0.7-11.1c0-0.4,0-0.8,0.1-1.1c0.2-0.3,0.5-0.4,0.8-0.5c4.8-1.8,10.4-2.4,14.6,1
				c1.8,1.4,3.4,4,2.7,6.6c-0.4,1.5-1.4,2.6-2.6,3.2c-2.8,1.4-6.2,0.4-8.6-1.8c-2.5-2.2-4.3-5.3-6.2-8.4"/>
			<g>
				<path class="st1" d="M1034.9,134.8c-6.1,1.6-11.1,6.4-13.5,12.3c-2,4.8-2.1,14,4.8,14.9c6.8,0.9,9.7-7.4,10.6-12.6
					c0.3-1.9,0.6-3.8,0.7-5.7c0.1-1.1,0.1-2.2,0.2-3.3c0-0.8-0.3-3.1,0-3.7c0.7-1.2,3.5-1.3,4.7-1.5c2-0.2,3.9-0.2,5.8,0.5
					c2.2,0.8,4.6,2.6,4.9,5.1c0.5,3.1-2.6,4.8-5.3,4.2c-4.7-1-7.3-6.2-9.5-10c-0.9-1.6-3.4-0.1-2.5,1.4c3.1,5.3,8.3,13.7,15.8,11.1
					c2.9-1,4.7-3.7,4.4-6.8c-0.4-3.4-3-6.1-6.1-7.4s-6.4-1.3-9.6-0.7c-1.3,0.3-3.2,0.6-4.3,1.4c-1.3,0.9-1.2,2.2-1.2,3.7
					c0,4.6-0.3,9.2-1.4,13.6c-0.8,3.1-3.7,9.9-8.1,7.4c-2-1.2-2.5-4.3-2.3-6.4c0.2-2.5,1.2-4.8,2.5-6.8c2.4-3.8,5.9-6.7,10.2-7.9
					C1037.5,137.1,1036.7,134.3,1034.9,134.8L1034.9,134.8z"/>
			</g>
		</g>
		<g>
			<path class="st7" d="M1041.5,141.1c-2.4-1.3-5.8,0.2-6.4,2.9c-0.2,1.1,0,2.2,0.2,3.3c1.1,5,3.3,9.8,6.4,13.9
				c1.8,2.4,4.7,4.7,7.3,3.5c2.7-1.2,2.9-4.9,2.5-7.9c-0.4-3.7-1.1-7.5-3-10.7s-5.3-5.8-9-5.7c-1.2,0-2.4,0.4-3,1.3
				c-0.4,0.6-0.5,1.4-0.5,2.2c0,4.4,1.3,8.7,3.7,12.3"/>
			<g>
				<path class="st7" d="M1042.2,139.9c-2.4-1.1-5.1-0.8-7,1.2c-2.4,2.4-1.6,5.8-0.8,8.6c1.1,3.7,2.7,7.4,4.9,10.6
					c1.7,2.6,4,5.5,7.4,6.1c7.4,1.2,6.7-8.7,5.9-13.1c-1.1-6.3-4.7-13.5-12-14.2c-10.2-1-5,13.5-2.1,18c1,1.5,3.5,0.1,2.5-1.4
					c-1.7-2.6-2.9-5.4-3.4-8.6c-0.2-1.8-0.6-5,1.9-5.2c1.3,0,2.7,0.4,3.9,1.1c5.1,2.9,6.5,9.8,6.8,15.1c0.1,2.2-0.2,6.3-3.6,5.4
					c-2.9-0.8-4.9-4.3-6.2-6.7c-1.5-2.6-2.6-5.4-3.4-8.3c-0.4-1.4-1.1-3.4-0.3-4.9c0.8-1.3,2.6-1.9,4-1.3
					C1042.4,143.1,1043.9,140.6,1042.2,139.9L1042.2,139.9z"/>
			</g>
		</g>
		<g>
			<g>
				<path d="M972.9,111.3c-1-2.7,7.1-8.5,18.1-12.8c11.1-4.4,20.9-5.7,21.9-3s-7.1,8.5-18.1,12.8C983.7,112.7,973.9,114,972.9,111.3
					z"/>
				<path d="M963.1,85.5c-1-2.7,7.1-8.5,18.1-12.8c11.1-4.4,20.9-5.7,21.9-3S996,78.2,985,82.5C973.9,86.9,964.1,88.2,963.1,85.5z"
					/>
				<g>
					<g>
						<path class="st0" d="M965.6,85.6c0.9,0,0.9-1.4,0-1.4C964.6,84.1,964.6,85.6,965.6,85.6L965.6,85.6z"/>
					</g>
				</g>
				<g>
					<path d="M963.3,86c0.6-0.2-0.3-1.1-0.7-0.7s-0.2,1.2,0,1.7c3.6,7.9,7.1,15.8,10.7,23.7c0.2,0.4,0.4,0.8,0.7,1.1
						c0.7,0.5,1.7,0.3,2.5,0c12.6-4.4,24.6-10.4,35.7-18c-1.3-8.3-4-16.3-7.8-23.7c-0.4-0.8-0.9-1.6-1.6-1.9
						c-1.1-0.5-2.3,0.1-3.3,0.7C988,75.4,976.1,81.2,963.9,86c-0.6,0.2-1.3,0.7-1.2,1.3c0.1,0.7,1.4,0,0.8-0.2L963.3,86z"/>
					<g>
						<path d="M963.9,86.5c0-0.1,0.1-0.1,0.2-0.2c0.2-0.3,0.3-0.6,0.1-0.9c-0.6-1.2-2.2-1.2-2.5,0.3c-0.2,1.1,0.7,2.5,1.1,3.5
							c0.8,1.7,1.5,3.4,2.3,5.1c1.6,3.7,3.3,7.4,4.9,11c0.8,1.8,1.6,3.7,2.5,5.5c0.4,0.9,0.9,1.8,1.9,2.1c1.1,0.3,2.2-0.2,3.1-0.6
							c1.9-0.7,3.8-1.4,5.7-2.2c3.3-1.3,6.5-2.7,9.7-4.3c6.8-3.3,13.4-7.1,19.6-11.3c0.3-0.2,0.4-0.5,0.3-0.8
							c-1.3-7.7-3.7-15.3-7.1-22.3c-1-2-2-4.4-4.6-3.9c-1.6,0.3-3.1,1.4-4.5,2.2c-1.8,1-3.7,2-5.5,3c-7.2,3.7-14.5,7.3-21.9,10.4
							c-1.9,0.8-3.9,1.5-5.8,2.4c-0.7,0.3-1.5,0.8-1.5,1.8c0,1.2,1.4,1.6,2.2,0.7c0.2-0.2,0.3-0.6,0.1-0.9s-0.2-0.9-0.2-1.2
							c-0.1-0.9-1.5-0.5-1.4,0.4c0.1,0.5,0,1.1,0.4,1.6c0-0.3,0.1-0.6,0.1-0.9c0.2,0,0.4,0,0.7,0c0.5-0.2,1-0.4,1.5-0.6
							c0.7-0.3,1.4-0.6,2.1-0.9c1-0.4,2.1-0.9,3.1-1.3c2.6-1.1,5.2-2.3,7.8-3.5c5.3-2.5,10.5-5,15.7-7.8c2-1.1,7.4-5.4,9.6-2.9
							c0.8,0.9,1.2,2.3,1.6,3.3c0.7,1.5,1.3,3,2,4.6c2.1,5.2,3.5,10.7,4.4,16.2c0.1-0.3,0.2-0.5,0.3-0.8c-9.2,6.2-19,11.5-29.4,15.6
							c-2,0.8-5.8,3-7.6,2c-1.3-0.7-1.8-2.5-2.4-3.9c-0.6-1.4-1.3-2.8-1.9-4.2c-2.5-5.6-4.8-11.3-7.6-16.7c0-0.3,0.1-0.6,0.1-0.9
							c0,0.1-0.1,0.1-0.2,0.2C962.3,86.2,963.3,87.3,963.9,86.5z"/>
					</g>
				</g>
			</g>
			
				<ellipse transform="matrix(0.9769 -0.2135 0.2135 0.9769 2.2524 218.0562)" class="st8" cx="1010.6" cy="98.6" rx="18.5" ry="6.7"/>
		</g>
		<g>
			<path class="st9" d="M942.6,16.7c7-6.7,15.1-12.6,24.5-15s20.2-0.7,27.1,6.2c8.4,8.5,8.7,21.8,8.5,33.7
				c-0.3,15.8-0.6,31.5-0.8,47.2c-3.2-12.3-6.3-24.6-9.5-37c-1.9-7.5-3.9-15.1-7.5-22s-9.2-13-16.4-15.9c-7.8-3.2-16.8-2-24.7,0.8
				L942.6,16.7z"/>
			<g>
				<path class="st9" d="M943.1,17.3c12.1-11.4,31.1-22.2,47.2-11.5c7.2,4.8,10.2,13.2,11.2,21.4c1.1,8.9,0.4,18,0.3,26.9
					c-0.2,11.6-0.4,23.3-0.6,34.9c0.5,0,1-0.1,1.4-0.2c-2.2-8.6-4.4-17.2-6.7-25.9c-2.1-8.3-3.9-16.7-6.8-24.8
					c-4.5-12.8-13.5-25-28-26.4c-4.1-0.4-8.4,0.1-12.4,1.1c-1.5,0.4-4.3,0.7-5.5,1.7c-0.5,0.4-0.9,1.4-1.2,2
					C941.5,17.3,942.7,18,943.1,17.3c0.4-0.6,0.7-1.5,1.1-1.8c0.4-0.3,1.5-0.4,2.1-0.6c1-0.3,1.9-0.5,2.9-0.8
					c3.7-0.9,7.4-1.3,11.1-1.1c7.1,0.5,13.4,3.8,18.2,9c9.9,10.9,12.4,26.9,15.9,40.6c2.3,8.8,4.5,17.6,6.8,26.4
					c0.2,0.8,1.4,0.6,1.4-0.2c0.2-11.5,0.4-23,0.6-34.4c0.1-9.5,0.9-19.2-0.4-28.6c-1.1-8-4.2-15.9-10.9-20.8
					c-6.4-4.9-15-6-22.8-4.6c-10.4,1.9-19.4,8.5-26.9,15.6C941.4,16.9,942.4,17.9,943.1,17.3z"/>
			</g>
		</g>
		<g>
			<path class="st16" d="M1029.2,194.9c3,0.5,6-1.8,7.3-4.6c1.2-2.8,1.2-6.1,1.1-9.1c0-2.3-0.1-4.5-0.2-6.8c0-1.5,0.2-3.4,1.6-3.8
				c1.5-0.5,2.9,1.2,3.7,2.6c1.6,2.9,3.4,5.8,5.4,8.5c0.6,0.9,1.3,1.7,2.2,2.2c1.4,0.7,3.1,0.2,4.6-0.2c2.3-0.7,4.5-1.3,6.7-2
				c2.1-0.6,4.8-1,5.9,0.9s-0.8,4-2.3,5.6c-1.9,1.9-3.5,4.1-4.9,6.4c-0.5,0.9-1,2-0.6,2.9c0.2,0.5,0.7,0.9,1.2,1.2
				c2.6,2,5.3,4,8,6.1c0.8,0.6,1.7,1.3,1.8,2.4c0.2,1.3-1.1,2.5-2.4,2.8c-1.3,0.2-2.7-0.2-3.9-0.8c-2.5-1.1-5-2.3-7.4-3.7
				c-1.4-0.9-3-1.8-4.7-1.4c-2.4,0.5-3.2,3.4-3.9,5.7c-0.8,2.7-1.8,5.4-3.1,8c-0.8,1.5-2.4,3.1-3.8,2.3c-0.5-0.3-0.8-0.8-1-1.3
				c-1.6-4.2,0.6-9.7-2.3-13.2c-2.9-3.6-8.5-2.5-13-3.4c-0.7-0.1-1.5-0.4-1.9-1.1c-0.7-1.2,0.5-2.7,1.7-3.5
				c3.6-2.5,7.6-4.4,11.8-5.6L1029.2,194.9z"/>
			<g>
				<path class="st16" d="M1029.2,195.6c5.4,0.6,8.5-4.7,9-9.4c0.3-3.1,0-6.2,0-9.3c0-1.2-0.3-2.8,0-4.1c1.2-4.1,3.9,0.9,4.7,2.2
					c1.5,2.6,3.2,5.3,5,7.6c1.5,1.9,3.3,2.5,5.6,2c3-0.6,5.9-1.9,8.8-2.6c0.7-0.2,1.5-0.4,2.3-0.3c1.8,0.2,2.8,1.9,1.9,3.6
					c-0.9,1.5-2.3,2.6-3.4,4c-1.5,1.8-4.1,4.6-4.2,7.1c0,2.2,2.4,3.3,3.8,4.5c1.2,0.9,2.4,1.8,3.7,2.7c0.8,0.6,1.9,1.2,2.5,1.9
					c0.1,0.1,0.3,0.3,0.5,0.4c-0.2,2.7-1.3,3.7-3.2,2.9c-3.4-0.9-6.5-3-9.5-4.6c-1.8-1-3.8-1.7-5.7-0.5c-1.7,1.1-2.4,3.3-3,5.1
					c-0.9,3-1.8,6.3-3.5,8.9c-1,1.4-2.8,1.7-3.4-0.1c-0.2-0.8-0.3-1.7-0.4-2.5c-0.1-1.4,0-2.8,0-4.2c-0.2-5.5-3.1-8.5-8.5-9.1
					c-1.6-0.2-3.2-0.2-4.8-0.4c-0.5,0-1.9-0.1-2.4-0.4c-2.4-1.5,0.5-3.1,1.5-3.8c3.3-2.2,6.9-3.7,10.6-4.8c-0.1-0.5-0.2-0.9-0.4-1.4
					c-2.6,1.1-5.1,2.2-7.7,3.2c-0.9,0.3-0.5,1.7,0.4,1.4c2.6-1.1,5.1-2.2,7.7-3.2c0.8-0.3,0.5-1.6-0.4-1.4c-3.5,1-6.8,2.4-9.9,4.3
					c-1.7,1.1-4.9,2.9-4.2,5.4c0.7,2.2,3.8,2.2,5.7,2.4c3.3,0.3,7.7,0,9.7,3.2c1.9,3,0.8,7,1.3,10.3c0.2,1.7,0.9,4.2,3,4.3
					c2.5,0,3.9-3.3,4.7-5.1c0.7-1.6,1.3-3.3,1.8-5c0.5-1.6,0.8-3.4,1.8-4.7c1.9-2.6,4.9-0.6,7,0.6c1.8,1,3.7,1.9,5.6,2.8
					c2.2,1,5,2.1,7.1,0.2c5.5-5-10.3-9.5-10-13.5c0.3-3.9,12.1-10.9,6.8-14.9c-1.9-1.4-4.6-0.6-6.6,0s-3.9,1.2-5.9,1.8
					c-0.9,0.2-2.1,0.7-2.9,0.5c-2-0.4-3-2-4.1-3.5c-1.2-1.7-2.3-3.5-3.4-5.3c-0.8-1.4-1.5-3-2.8-4.1c-1.6-1.3-3.7-0.9-4.5,1.1
					c-0.6,1.5-0.3,3.3-0.3,4.9c0,2.1,0.1,4.2,0.2,6.3c0,4.8-1.3,12-7.7,11.3C1028.2,194.1,1028.3,195.6,1029.2,195.6z"/>
			</g>
		</g>
		<g>
			<g>
				<path class="st17" d="M1040.2,181c-0.4,2-0.8,4-1.2,6c0.5,0,1,0.1,1.4,0.2c0-2.5,0.1-4.9,0.1-7.4c0-0.6-0.8-1-1.2-0.5
					c-1.8,2-2.4,4.6-1.7,7.1c0.2,0.6,1.2,0.7,1.4,0c0.3-1.9,0.6-3.9,1-5.8c-0.5,0-1-0.1-1.4-0.2c0,1.7,0,3.4,0,5.1h1.4
					c0-1.2,0.1-2.4,0.6-3.5c-0.5,0-1-0.1-1.4-0.2c0,1.1,0,2.2,0,3.2c0,0.9,1.4,0.9,1.4,0c0-1.1,0-2.2,0-3.2c0-0.9-1.1-0.9-1.4-0.2
					c-0.5,1.2-0.7,2.5-0.7,3.8c0.1,1.1,2,0.9,1.3-0.6c-0.6-1.3-0.7-2.8,0.1-4c0.7-1.1-1.1-1.7-1.2-0.7c-0.3,1.9-0.6,3.9-1,5.8h1.4
					c-0.6-2-0.1-4.1,1.3-5.7c-0.4-0.2-0.8-0.3-1.2-0.5c0,2.5-0.1,4.9-0.1,7.4c0,0.8,1.2,1,1.4,0.2c0.4-2,0.8-4,1.2-6
					C1041.7,180.5,1040.4,180.1,1040.2,181L1040.2,181z"/>
			</g>
		</g>
		<g>
			<g>
				<path class="st17" d="M1034.4,198.1c0.8,0,1.5-0.7,1.3-1.5c-0.3-1.2-1.6-1.2-2.5-1c0.1,0.5,0.2,0.9,0.4,1.4
					c0.6-0.2,1.2-0.5,1.8-0.7c-0.2-0.4-0.5-0.8-0.7-1.2c-0.4,0.4-1,0.7-1.5,1c-0.8,0.3-0.2,1.5,0.6,1.3c0.7-0.2,1.3-0.4,2-0.6
					c-0.1-0.5-0.2-0.9-0.4-1.4c-1.3,0.5-2.5,1-3.8,1.5c-0.9,0.3-0.5,1.7,0.4,1.4c1.5-0.6,3.2-0.9,4.4-2c1.2-1.2,2.1-2.5,2.9-3.9
					c-0.4-0.2-0.9-0.4-1.3-0.6c-0.2,0.5-0.5,1-0.8,1.4c0.4,0.2,0.8,0.5,1.2,0.7c0.3-1,0.7-1.9,1.2-2.8c-0.4-0.2-0.9-0.4-1.3-0.6
					c-0.2,0.4-0.5,0.7-0.8,1.1c0.4,0.2,0.8,0.5,1.2,0.7c0.3-1.2,0.7-2.5,1.1-3.7c0.2-0.9-1.1-1.2-1.4-0.4c-0.3,0.9-0.6,1.8-0.9,2.7
					c0.5,0,1,0.1,1.4,0.2c0-1.4,0.2-2.5,0.7-3.8c0.3-0.8-1-1.3-1.3-0.6c-0.4,0.9-0.6,1.7-0.6,2.6c0.5,0,1,0,1.4,0c0-1.2,0-2.4,0-3.6
					c-0.5,0-1,0.1-1.4,0.2c0.5,2.1,0.5,4.1,0,6.2c-0.2,0.9,1.2,1.3,1.4,0.4c0.5-2.4,0.6-4.6,0-7c-0.2-0.8-1.4-0.6-1.4,0.2
					c0,1.2,0,2.4,0,3.6c0,0.9,1.4,0.9,1.4,0c0.1-0.6,0.3-1.3,0.4-1.9c-0.4-0.2-0.9-0.4-1.3-0.6c-0.6,1.4-0.8,2.7-0.8,4.2
					c0,0.8,1.2,1,1.4,0.2c0.3-0.9,0.6-1.8,0.9-2.7c-0.5-0.1-0.9-0.2-1.4-0.4c-0.3,1.2-0.7,2.5-1.1,3.7c-0.2,0.8,0.7,1.1,1.2,0.7
					c0.6-0.5,0.9-1,1.2-1.7s-0.9-1.2-1.3-0.6c-0.6,1-1,2-1.3,3.2c-0.2,0.7,0.7,1.2,1.2,0.7c0.6-0.7,0.9-1.2,1.2-2.1
					c0.2-0.8-0.9-1.3-1.3-0.6c-0.6,1.2-1.4,2.5-2.4,3.4c-1.1,1-2.6,1.4-4,1.9c0.1,0.5,0.2,0.9,0.4,1.4c1.3-0.5,2.5-1,3.8-1.5
					c0.8-0.3,0.5-1.6-0.4-1.4c-0.7,0.2-1.3,0.4-2,0.6c0.2,0.4,0.4,0.9,0.6,1.3c0.7-0.3,1.2-0.7,1.9-1.2c0.5-0.4,0-1.5-0.7-1.2
					c-0.6,0.2-1.2,0.5-1.8,0.7c-0.9,0.3-0.5,1.6,0.4,1.4c0.3-0.1,0.6-0.2,0.9-0.3C1033.4,196.7,1033.4,198.1,1034.4,198.1
					L1034.4,198.1z"/>
			</g>
		</g>
		<g>
			<g>
				<path class="st17" d="M1043.8,207.5c0-0.9-0.2-1.6-0.9-2.2c-0.4-0.4-1.2-0.1-1.2,0.5c0,2.4,0,4.8,0,7.2c0.5,0,1-0.1,1.4-0.2
					c-0.3-1.4-0.7-2.8-1-4.2c-0.4,0.2-0.9,0.4-1.3,0.6c0.6,1,1.3,1.9,1.9,2.9c0.5,0.8,1.8,0,1.2-0.7c-0.6-1-1.3-1.9-1.9-2.9
					c-0.4-0.7-1.5-0.2-1.3,0.6c0.3,1.4,0.7,2.8,1,4.2c0.2,0.8,1.4,0.6,1.4-0.2c0-2.4,0-4.8,0-7.2c-0.4,0.2-0.8,0.3-1.2,0.5
					c0.4,0.3,0.6,0.7,0.4,1.2C1042.3,208.4,1043.7,208.4,1043.8,207.5L1043.8,207.5z"/>
			</g>
		</g>
		<g>
			<g>
				<path class="st17" d="M1042,207.8c-0.1,1.1-0.2,2.1-0.2,3.1c0.5,0,1-0.1,1.4-0.2c-0.3-1.3-0.7-2.7-1-4.1
					c-0.2-0.9-1.6-0.5-1.4,0.4c0.3,1.7,0.7,3.4,1.1,5.1c0.1-0.3,0.2-0.5,0.3-0.8c0.1,0.1,0.2,0.2,0.3,0.3c0.5-0.8-0.7-1.5-1.2-0.7
					c-0.7,1.1,0.6,2.3,1.6,1.7c0.3-0.1,0.4-0.5,0.3-0.8c-0.3-1.7-0.7-3.4-1.1-5.1c-0.5,0.1-0.9,0.2-1.4,0.4c0.3,1.3,0.7,2.7,1,4.1
					c0.2,0.8,1.3,0.6,1.4-0.2c0.1-1.1,0.2-2.1,0.2-3.1C1043.4,206.9,1042,206.9,1042,207.8L1042,207.8z"/>
			</g>
		</g>
	</g>
	<g>
		<g>
			<path d="M852.3,101.3c0.7-4.4-2.3-8.7-6.2-10.8c-3.8-2.1-8.4-2.5-12.9-2.5c-3.6,0-7.1,0.2-10.6,0.6c-2.3,0.3-4.7,0.7-6.3,2.4
				c-2.8,3-1.1,8,1.9,11c3.9,3.9,9.4,5.9,15,6.4c5.5,0.4,11.1-0.6,16.4-2.1c1.8-0.5,3.8-1.3,4.4-3.1c0.2-0.8,0.2-1.6,0-2.4
				c-0.4-3.2-1.7-7.3-4.9-7.5"/>
			<g>
				<path class="st1" d="M853.8,101.3c0.9-8.5-7.3-13.5-14.7-14.5c-4.9-0.7-10.1-0.4-15,0.2c-3.4,0.3-7.4,0.7-9.4,3.8
					c-4.6,6.9,3.6,14.3,9.3,16.8c8.3,3.6,18.2,2.6,26.6-0.1c3.9-1.3,5.4-3.7,4.7-7.7c-0.6-3.4-2.1-7.4-5.9-7.9
					c-1.9-0.3-2.7,2.6-0.8,2.9c1.8,0.3,2.7,1.7,3.2,3.4c0.5,1.5,1.4,4.3,0.1,5.6c-1.2,1.2-3.8,1.5-5.4,1.9c-2.3,0.5-4.5,1-6.9,1.3
					c-7.4,0.8-17.1-0.6-21.6-7.4c-2.2-3.4-2.1-7.6,2.3-8.8c4.1-1.1,8.8-1.1,12.9-1.1c7.2,0,18.6,2.2,17.6,11.8
					C850.6,103.2,853.6,103.2,853.8,101.3L853.8,101.3z"/>
			</g>
		</g>
		<g>
			<path class="st2" d="M818.1,110.1c-2.2,1.2-3.2,3.9-2.9,6.2c0.2,2.3,1.5,4.4,2.8,6.3c1.8,2.6,4,5.1,7,6.5
				c6.5,3,15.6-0.8,18.4-7.4c2.8-6.6-1-14.6-7.7-17s-15.4,0.8-19.4,6.8"/>
		</g>
		
			<ellipse transform="matrix(0.1288 -0.9917 0.9917 0.1288 541.9408 1009.3164)" class="st3" cx="845.4" cy="196.2" rx="11.4" ry="32.8"/>
		<g>
			<path class="st5" d="M757.2,158.6c-3.1,0.3-5.8,2.2-7.7,4.5c-1.8,2.3-2.9,5.1-3.5,7.9c-1.6,7.1-0.8,14.6,2.4,21.3l-2.7-9.4
				c-10,6.7-14.5,19.3-12.4,30.6c2.2,11.3,10.1,21.2,20.3,27.8c21.6,14,52.8,12.9,74-1.6c21.1-14.5,31.3-41,26.1-64.9
				c-1.6-7.4-4.6-14.5-7.4-21.6c-6.5-16.3-12.7-32.6-18.5-49.1l0.7,1.6c-2.8-6.9-9.2-12.3-16.6-15.1c-7.4-2.8-15.8-3-23.6-1.6
				c-9.7,1.9-19.2,6.7-24.3,14.6c-4.8,7.4-5.2,16.6-3.2,25s6.3,16.2,10.6,23.8l-5.9-14c-3.6-0.5-7.1,2.1-8.6,5.2
				c-1.4,3.1-1.2,6.7-0.5,10c1.7,8.5,5.8,16.4,10.1,24.1c-0.2-0.3-0.5-0.7-0.7-1"/>
			<g>
				<path class="st5" d="M757,157.9c-15.3,2.3-14,24.4-9.3,34.8c0.3,0.8,1.6,0.2,1.3-0.6c-0.9-3.2-1.8-6.3-2.7-9.4
					c-0.1-0.4-0.7-0.7-1.1-0.4c-7.2,5-11.8,12.7-12.9,21.4c-1.2,9.1,1.8,18.2,7.3,25.6c11.3,15.3,30.6,22.7,49.3,22.7
					c18.9,0,37.6-7.3,50.3-21.4c12.1-13.5,18.3-32.1,16.2-50.1c-1.5-12.7-7.3-24.6-11.9-36.4c-5.2-13.2-10.2-26.6-14.8-40.1
					c-0.4,0.2-0.9,0.4-1.3,0.6c0.2,0.5,0.5,1,0.7,1.6c0.4,0.9,1.6,0.1,1.3-0.7c-7-16.4-27.5-20.3-43.2-16.5
					c-7.7,1.8-15.3,5.6-20.4,11.7c-5.3,6.4-7.1,14.8-6.3,23c1.2,10.6,6.5,20.2,11.6,29.4c0.4,0.7,1.7,0.2,1.3-0.6
					c-2-4.6-3.9-9.3-5.9-14c-0.1-0.3-0.3-0.5-0.7-0.5c-3.2-0.3-6.2,1.2-8.1,3.7c-2.4,3.2-2.5,7.3-1.9,11.1
					c1.4,9.1,5.9,17.5,10.4,25.5c0.4-0.2,0.8-0.5,1.3-0.7c-0.2-0.3-0.5-0.7-0.7-1c-0.5-0.8-1.8-0.1-1.3,0.7c0.2,0.3,0.5,0.7,0.7,1
					c0.5,0.8,1.8,0.1,1.3-0.7c-3.6-6.4-7.1-13-9.2-20.1c-1-3.6-2-7.7-1.1-11.4c0.9-4,4.4-6.9,8.5-6.6c-0.2-0.2-0.5-0.3-0.7-0.5
					c2,4.6,3.9,9.3,5.9,14c0.4-0.2,0.9-0.4,1.3-0.6c-7.8-14.1-17.4-32.6-7.4-48.1c8.7-13.3,28.6-17.6,43.2-13.9
					c8.5,2.2,16.4,7.7,19.9,15.9c0.4-0.2,0.8-0.5,1.3-0.7c-0.2-0.5-0.5-1-0.7-1.6c-0.3-0.7-1.6-0.2-1.3,0.6c3.8,11,7.9,21.9,12,32.8
					c4,10.4,8.7,20.6,12,31.2c5.5,17.4,3.3,36.2-6.3,51.9c-9.6,15.6-25.5,25.9-43.5,29.1c-18.1,3.2-38.2-0.5-52.5-12.5
					c-7.9-6.6-14.3-16-15.2-26.5c-0.9-10.4,3.7-20.8,12.4-26.8c-0.3-0.1-0.7-0.3-1.1-0.4c0.9,3.2,1.8,6.3,2.7,9.4
					c0.4-0.2,0.9-0.4,1.3-0.6c-4.3-9.6-5.8-30.4,8.4-32.6C758.4,159.2,758,157.8,757,157.9L757,157.9z"/>
			</g>
		</g>
		<g>
			<path d="M765.7,124.3c-3.3-3-8.5-2.9-12.4-0.9s-6.8,5.7-9.3,9.3c-2,3-3.8,6-5.4,9.2c-1,2.1-2,4.3-1.5,6.6c1,4,6.1,5.3,10.1,4.5
				c5.4-1.1,10.2-4.5,13.6-8.9c3.4-4.3,5.6-9.5,7.3-14.8c0.5-1.8,1-3.9-0.1-5.3c-0.5-0.6-1.3-1-2-1.3c-2.9-1.4-7-2.6-9,0"/>
			<g>
				<path class="st1" d="M766.2,123.7c-6.1-5.1-14.2-1.8-18.9,3.5c-3,3.4-5.4,7.3-7.6,11.2c-1.8,3.2-4.5,7.3-3,11
					c2.7,6.8,12.5,4.6,17.2,1.8c7.3-4.3,11.6-12,14.3-19.8c1.4-3.9,2.3-7.6-2.2-9.6c-3-1.4-7-2.6-9.6,0.2c-0.6,0.7,0.4,1.7,1,1
					c1.6-1.8,4-1.4,6.1-0.7c0.9,0.3,2,0.6,2.8,1.2c1.8,1.3,1.8,2.5,1.4,4.4c-0.9,4-2.7,8-4.8,11.5c-3.6,6.3-10.3,13-18.2,12.9
					c-4.6-0.1-8.2-3.1-6.5-8c1.4-4,4-7.9,6.3-11.4c4.1-6.2,12.8-14.8,20.5-8.3C765.9,125.4,766.9,124.4,766.2,123.7L766.2,123.7z"/>
			</g>
		</g>
		<g>
			<path class="st2" d="M782.5,121.9c-2.2,1.2-3.2,3.9-2.9,6.2c0.2,2.3,1.5,4.4,2.8,6.3c1.8,2.6,4,5.1,7,6.5
				c6.5,3,15.6-0.8,18.4-7.4c2.8-6.6-1-14.6-7.7-17s-15.4,0.8-19.4,6.8"/>
		</g>
		<g>
			<path d="M826.8,120.8c-4,0.9-7.8,2.9-10.8,5.8c2.2,2.4,4.8,4.3,7.7,5.5c0.5,0.2,1.1,0.4,1.7,0.3c0.9-0.2,1.4-1.3,1.7-2.3
				c0.8-3,1.2-6.1,1.1-9.1"/>
			<g>
				<path class="st1" d="M826.4,119.4c-4.3,1.1-8.2,3.1-11.4,6.2c-0.6,0.5-0.5,1.5,0,2.1c1.6,1.7,3.5,3.3,5.5,4.5
					c1.6,0.9,3.8,2.3,5.7,1.6c1.7-0.6,2.2-2.5,2.6-4c0.7-2.8,0.9-5.7,0.9-8.6c0-1.9-3-1.9-3,0c0,1.5,0,3.1-0.2,4.6
					c-0.2,1.1-0.3,2.2-0.6,3.3c-0.1,0.3-0.1,0.6-0.2,0.9c0,0.8-0.3,1-1.1,0.7c-2.6,0.2-5.9-3.3-7.5-5c0,0.7,0,1.4,0,2.1
					c2.9-2.7,6.3-4.4,10.1-5.4C829,121.8,828.3,118.9,826.4,119.4L826.4,119.4z"/>
			</g>
		</g>
		<g>
			<path d="M825.7,131.3c-4.7,1.1-9,4.6-11.8,9.5c-1.2,2.2-2.2,4.7-2.3,7.5c-0.1,2.7,0.8,5.6,2.6,7.1c2.5,2.1,6.1,0.9,8.3-1.8
				c2.1-2.7,3.1-6.5,3.6-10.2c0.6-3.8,0.8-7.6,0.7-11.4c0-0.4,0-0.8,0.2-1.1s0.5-0.4,0.8-0.5c4.9-1.9,10.7-2.5,15,1.1
				c1.8,1.5,3.5,4.2,2.8,6.8c-0.4,1.5-1.5,2.7-2.7,3.3c-2.9,1.5-6.3,0.4-8.9-1.8s-4.4-5.5-6.3-8.7"/>
			<g>
				<path class="st1" d="M825.4,129.9c-6.3,1.7-11.4,6.6-13.9,12.6c-2,4.9-2.2,14.4,4.9,15.3c7,0.9,10-7.5,10.9-12.9
					c0.3-1.9,0.6-3.9,0.8-5.9c0.1-1.1,0.2-2.2,0.2-3.4c0.1-0.8-0.3-3.2,0.1-3.8c0.7-1.2,3.6-1.4,4.8-1.6c2-0.2,4.1-0.2,6,0.5
					c2.3,0.8,4.7,2.7,5.1,5.2c0.5,3.2-2.7,4.9-5.4,4.3c-4.8-1-7.5-6.4-9.7-10.3c-0.9-1.6-3.5-0.2-2.6,1.5
					c3.2,5.4,8.5,14.1,16.2,11.5c3-1,4.8-3.8,4.6-7c-0.4-3.5-3.1-6.3-6.2-7.7c-3.1-1.4-6.6-1.4-9.9-0.7c-1.4,0.3-3.3,0.6-4.4,1.4
					c-1.3,0.9-1.2,2.3-1.2,3.8c0,4.7-0.3,9.5-1.5,14c-0.8,3.2-3.9,10.2-8.4,7.6c-2.1-1.2-2.6-4.4-2.4-6.6c0.2-2.5,1.2-4.9,2.5-7
					c2.4-3.9,6-6.9,10.5-8.1C828,132.3,827.2,129.4,825.4,129.9L825.4,129.9z"/>
			</g>
		</g>
		<g>
			<path class="st7" d="M832.1,136.4c-2.4-1.4-6,0.2-6.6,3c-0.2,1.1-0.1,2.3,0.2,3.4c1.1,5.2,3.4,10.1,6.5,14.3
				c1.8,2.4,4.8,4.8,7.5,3.6c2.8-1.2,3-5.1,2.6-8.1c-0.4-3.8-1.1-7.7-3-11s-5.5-5.9-9.3-5.9c-1.2,0-2.5,0.4-3.1,1.3
				c-0.4,0.6-0.5,1.5-0.5,2.3c-0.1,4.5,1.3,9,3.8,12.7"/>
			<g>
				<path class="st7" d="M832.8,135.1c-2.4-1.1-5.2-0.8-7.2,1.2c-2.4,2.4-1.6,5.9-0.8,8.9c1.1,3.9,2.8,7.6,5,10.9
					c1.8,2.7,4.1,5.7,7.5,6.3c7.7,1.3,6.9-8.9,6.1-13.5c-1.1-6.5-4.8-13.9-12.3-14.6c-10.5-1.1-5.2,13.9-2.2,18.5
					c1,1.6,3.6,0.1,2.6-1.5c-1.8-2.7-3-5.6-3.4-8.8c-0.2-1.8-0.6-5.2,1.9-5.3c1.4,0,2.8,0.4,4,1.1c5.2,3,6.7,10,7,15.6
					c0.1,2.3-0.3,6.5-3.7,5.6c-3-0.8-5-4.4-6.4-6.9c-1.5-2.7-2.7-5.5-3.5-8.5c-0.4-1.5-1.1-3.5-0.3-5c0.8-1.4,2.7-2,4.1-1.3
					C833,138.5,834.6,135.9,832.8,135.1L832.8,135.1z"/>
			</g>
		</g>
		<g>
			<g>
				<path d="M804.5,90.3c-0.8-2.9-11-2.9-22.8,0s-20.8,7.6-20,10.4c0.8,2.9,11,2.9,22.8,0C796.3,97.9,805.2,93.1,804.5,90.3z"/>
				<path d="M797.3,62.9c-0.8-2.9-11-2.9-22.8,0s-20.8,7.6-20,10.4c0.8,2.9,11,2.9,22.8,0S798,65.8,797.3,62.9z"/>
				<g>
					<g>
						<path class="st0" d="M794.8,64.5c0.9,0,0.9-1.5,0-1.5C793.9,63,793.9,64.5,794.8,64.5L794.8,64.5z"/>
					</g>
				</g>
				<g>
					<path d="M797.4,63.5c-0.6,0.2-0.4-1.1,0.2-1c0.6,0.1,0.8,0.8,1,1.5c1.7,8.7,3.5,17.4,5.2,26.2c0.1,0.4,0.2,0.9,0,1.3
						c-0.2,0.8-1.2,1.2-2.1,1.5c-13.1,3.8-26.7,5.8-40.5,6.1c-3.8-7.7-6.4-16-7.6-24.5c-0.1-0.9-0.2-1.8,0.3-2.6
						c0.6-1,2-1.2,3.2-1.3c13.4-1.4,26.8-3.6,39.9-6.7c0.6-0.1,1.5-0.2,1.8,0.4s-1.1,0.9-0.8,0.3L797.4,63.5z"/>
					<g>
						<path d="M797.6,62.8c0.3,0,1.3,6.4,1.4,7c0.5,2.3,0.9,4.7,1.4,7c0.4,2.2,0.9,4.3,1.3,6.5c0.2,1.1,0.4,2.2,0.6,3.3
							c0.2,0.9,1,2.9,0.7,3.8c-0.7,2.5-4.7,2.9-6.9,3.4c-2.1,0.5-4.3,1-6.4,1.5c-4.6,1-9.3,1.7-14.1,2.2c-2.2,0.2-4.3,0.4-6.5,0.6
							c-1.1,0.1-2.2,0.1-3.3,0.2c-1,0-2.8,0.5-3.8,0.1c-1.5-0.5-2.6-4.6-3.1-5.9c-0.8-2.1-1.5-4.2-2.2-6.3c-0.6-2-1.1-4-1.6-6
							c-0.4-1.8-1.7-5.4-1-7.3s4.8-1.6,6.6-1.8c2-0.2,4-0.5,5.9-0.7c5.2-0.7,10.5-1.5,15.7-2.5c2.5-0.5,5-1,7.6-1.5
							c1.2-0.2,2.5-0.5,3.8-0.8c0.5-0.1,0.9-0.2,1.4-0.3c0.2,0,2.9-0.9,2.9-0.9c0.2,0.2,0.3,0.5,0.5,0.7c0-0.6-0.4-1.1-0.7-1.7
							c-0.4-0.8-1.7-0.1-1.3,0.7c0.1,0.2,0.4,0.7,0.5,1c0,0.3,0.2,0.6,0.5,0.7c1.1,0.3,2.2-0.7,1.5-1.8c-0.4-0.7-1.3-0.7-2-0.6
							c-2,0.1-4.2,0.9-6.1,1.4c-8.7,1.9-17.5,3.4-26.4,4.5c-2.2,0.3-4.5,0.5-6.7,0.8c-1.1,0.1-2.4,0.1-3.4,0.6
							c-2.4,1.2-1.8,3.9-1.4,6.1c1.3,8,3.9,15.7,7.4,22.9c0.1,0.2,0.4,0.4,0.6,0.3c8.2-0.1,16.3-0.9,24.4-2.3
							c4.3-0.7,8.5-1.7,12.7-2.8c2-0.5,6-0.8,6.3-3.5c0.2-1.6-0.5-3.4-0.8-4.9c-0.4-2.2-0.9-4.3-1.3-6.5c-0.8-4.2-1.7-8.4-2.5-12.7
							c-0.2-0.9-0.5-6.2-2.9-5.2c-1,0.4-1.1,2.1,0.1,2.3C798.1,64.4,798.5,62.9,797.6,62.8z"/>
					</g>
				</g>
			</g>
			<path class="st8" d="M762.7,95.7c-9.6,4.1-16.3,10.2-14.7,13.8c1.5,3.5,10.6,3,20.2-1c9.6-4.1,16.3-10.2,14.7-13.8
				C781.4,91.2,772.3,91.6,762.7,95.7z"/>
		</g>
		<g>
			<path class="st9" d="M761.2,94.6c-2-12.6-9.9-24.2-21-30.8s-25.3-8.1-37.6-4.1c-10,3.3-18.5,9.9-28.1,14s-21.9,5.3-29.8-1.5
				c-5.7-5-7.5-12.8-12-18.8l0.1,0.1c2.8,10.9,16.4,15.9,27.5,13.7s20.4-9.3,29.9-15.5c9.5-6.1,20.6-11.5,31.7-9.4
				c11.6,2.2,20.2,12,26.4,22.1c5.8,9.4,10.3,19.5,13.5,30.1"/>
			<g>
				<path class="st9" d="M761.9,94.4c-3.5-20.5-20.8-35.8-41.3-37.5c-11.3-0.9-21.4,2.7-31.1,8c-9.8,5.4-19.7,11.8-31.3,11.4
					c-6.4-0.2-12.2-2.8-16-8.1c-3.4-4.7-5.4-10.5-8.8-15.2c-0.3,0.3-0.7,0.7-1,1c0.1,0,0.5,1.8,0.7,2.1c0.4,0.8,0.8,1.7,1.4,2.5
					c1.1,1.7,2.5,3.2,4.1,4.5c3.5,2.7,7.6,4.3,11.9,5c10.2,1.6,19.8-2.8,28.3-8c10.5-6.5,20.6-14.9,33.1-17
					c12.4-2.1,22.7,4.4,30.2,13.7c8.9,11,14.9,24.5,19,37.9c0.3,0.9,1.7,0.5,1.4-0.4c-3.6-11.9-8.8-23.5-15.8-33.8
					c-5.7-8.4-13.6-16.5-23.9-18.8c-25.4-5.5-41.4,22.7-65,25.1c-5.4,0.5-11.1-0.5-15.9-3.2c-2.4-1.3-4.5-3.2-6.1-5.4
					c-0.8-1.2-1.5-2.6-2-4c-0.2-0.6-0.2-1.1-0.8-1.4s-1.5,0.3-1,1c5.6,7.8,7.7,18.1,17.2,22.2c8.9,3.9,19.4,1.4,27.9-2.6
					c10.3-4.9,19.7-12.1,31.1-14.3c11.4-2.2,23.8,0.1,33.4,6.6c10,6.7,16.8,17.4,18.8,29.2C760.7,95.7,762.1,95.3,761.9,94.4
					L761.9,94.4z"/>
			</g>
		</g>
		<g>
			<path class="st17" d="M835.7,132.5c5.2-1.8,10.6-3.7,16.1-3.6c5.5,0.1,11.4,2.4,14.1,7.2c1.7,2.9,2,6.4,2.3,9.7
				c2.9,34.6,1.3,69.5,4.9,104c0.3,3,0.7,6.2,2.5,8.7c1.7,2.5,5.2,4.1,7.9,2.6c1.8-0.9,2.8-2.9,3.6-4.7c5.4-12.3,8.1-25.9,7.9-39.4
				c-3.8,1.1-8.2-0.5-10.5-3.9c18.9-4,38.6-4.1,57.5-0.5c-3.3,3.7-8.7,4.5-13.5,5.1c0.2,16.5,0,34-9,47.8c-6.5,10-17.6,17-29.4,18.1
				s-24.3-3.9-31.6-13.2c-8.5-10.9-9.7-25.8-9.3-39.6c0.8-27.3,6.3-54.5,5.2-81.8c-0.1-2.7-0.3-5.4-1.4-7.8c-2-4.1-6.5-6.5-11.1-7.1
				c-4.5-0.6-9.1,0.3-13.6,1.2L835.7,132.5z"/>
			<g>
				<path class="st17" d="M836.1,133.9c6.7-2.3,14-5,21-2.7c3,0.9,5.9,2.8,7.5,5.6c1.9,3.3,2,7.2,2.3,10.9
					c1.2,15.2,1.6,30.5,1.9,45.7c0.4,15.6,0.7,31.1,1.9,46.7c0.3,3.5,0.6,7,1,10.5c0.4,3.2,0.9,6.5,3,9.1c2.8,3.6,8.1,4.8,11.4,1.2
					c2.2-2.4,3.3-6.1,4.5-9.2c1.3-3.7,2.5-7.4,3.4-11.2c1.8-7.7,2.6-15.7,2.5-23.6c0-1-0.9-1.7-1.9-1.4c-3.3,0.8-6.8-0.4-8.8-3.2
					c-0.3,0.7-0.6,1.4-0.9,2.2c18.7-3.9,38-4,56.8-0.5c-0.2-0.8-0.4-1.6-0.6-2.5c-3.2,3.5-8.1,4.1-12.5,4.6
					c-0.8,0.1-1.5,0.6-1.5,1.5c0.2,17.5,0.2,37.6-12.2,51.5c-11.3,12.7-30,17.1-45.2,8.7c-16.2-9-19.3-27.8-19-44.7
					c0.3-20.7,3.6-41.3,4.9-62c0.4-5.8,0.6-11.6,0.5-17.3c0-4.8,0.3-10.4-2.4-14.6c-5.6-8.6-17-7.1-25.6-5.3
					c0.2,0.9,0.5,1.9,0.8,2.9C831.2,135.8,833.6,134.8,836.1,133.9c1.7-0.7,1-3.6-0.8-2.9c-2.5,1-4.9,1.9-7.4,2.9
					c-1.7,0.7-1.1,3.3,0.8,2.9c5.1-1,10.5-2.2,15.6-0.6c5.1,1.6,7.9,5.3,8.4,10.6c0.9,10.6,0.1,21.5-0.8,32.1
					c-1.7,20.5-5.2,41.2-4.3,61.9c0.8,16.6,6.6,33.5,22.7,40.9c15.1,6.9,32.6,3.3,44.4-8.2c14.9-14.4,15.3-36.4,15.1-55.8
					c-0.5,0.5-1,1-1.5,1.5c5.3-0.6,10.8-1.4,14.6-5.5c0.7-0.7,0.5-2.3-0.6-2.5c-19.3-3.6-39.1-3.4-58.3,0.5
					c-0.9,0.2-1.4,1.4-0.9,2.2c2.8,3.9,7.4,5.7,12.1,4.5c-0.6-0.5-1.2-0.9-1.9-1.4c0.1,7.1-0.5,14.1-2,21
					c-1.4,6.5-3.2,13.7-6.6,19.4c-1.7,3.1-4.9,3.5-7.5,1c-2.7-2.7-2.8-7.1-3.1-10.6c-0.7-7.3-1.2-14.5-1.6-21.8
					c-0.7-14.8-0.9-29.5-1.3-44.3c-0.2-7.5-0.5-14.9-0.8-22.4c-0.4-6.6-0.2-13.8-1.9-20.2c-1.6-5.9-6.3-9.8-12.2-11.2
					c-7.2-1.7-14.5,0.8-21.2,3.1C833.5,131.6,834.3,134.5,836.1,133.9z"/>
			</g>
		</g>
		
			<ellipse transform="matrix(1.837729e-03 -1 1 1.837729e-03 692.6464 1039.0134)" class="st18" cx="866.8" cy="172.5" rx="5.6" ry="5.6"/>
		
			<ellipse transform="matrix(0.9462 -0.3236 0.3236 0.9462 -13.9408 280.8623)" class="st3" cx="837.6" cy="182.4" rx="32.8" ry="11.4"/>
		<g>
			<path d="M823.8,104c1.8,5.9,3.8,11.7,6,17.5c0.6,1.7,1.4,3.5,3,4.4c1.2,0.7,2.7,0.7,4,0.7c1.7,0,3.6,0,5.1-0.8
				c2.1-1.1,3.3-3.6,3.4-6c0.2-2.4-0.5-4.8-1.2-7.1c-1.2-4.3-2.5-8.6-3.7-12.8c-0.3-1-0.8-2.2-1.8-2.4c-0.4-0.1-0.8,0-1.2,0.2
				c-4,1.3-8,2.6-11.9,3.8l5-1.3c-14.6,7-29.8,13-45.2,17.9c-1.9,0.6-4,1.2-6,1.3c-1.6,0-3.1-0.3-4.7-0.5
				c-6.2-1.1-12.4-2.2-18.6-3.3h-0.2c-0.6,2.4-1,5.6,1.1,7c0.6,0.4,1.4,0.6,2.2,0.7c6.3,1.3,12.5,2.6,18.8,3.9l-1.2-7.2
				c0.8,4.9,2.6,9.5,4.9,14c1.9,3.8,4.2,7.7,8.1,9.5c1.9,0.9,4.1,1.2,6.2,1.2c7.7,0.1,16.2-4.2,17.9-11.7c1-4.3-0.3-8.7-1.6-13
				c-1-3.2-2-6.4-2.9-9.6l2.3,8.4c1-2.9,3.6-5.3,6.6-6.1c3-0.8,6.4,0,8.7,2.1"/>
			<g>
				<path d="M823.1,104c1.3,4.1,2.7,8.2,4.1,12.3c1,2.9,1.8,6.8,4,9.1c2,2,5.2,2,7.9,1.7c2.8-0.3,5.1-1.6,6.2-4.3
					c1.3-3,0.7-6.2-0.1-9.2c-1.1-4.1-2.4-8.2-3.5-12.3c-0.6-2-1.1-5.1-3.9-4.7c-2,0.3-4.2,1.3-6.1,1.9c-2.1,0.7-4.3,1.4-6.4,2.1
					c-0.9,0.3-0.5,1.7,0.4,1.4c1.7-0.4,3.4-0.9,5-1.3c-0.2-0.4-0.4-0.9-0.6-1.3c-12.1,5.8-24.4,10.8-37.1,15.2c-2.9,1-5.9,2-8.8,2.9
					c-3.8,1.1-7,1-10.8,0.3c-3.3-0.6-6.5-1.1-9.8-1.7c-2.4-0.4-5.4-1.5-7.9-1.3c-0.3,0-0.6,0.2-0.7,0.5c-0.9,3.7-0.9,7.5,3.4,8.6
					c6.3,1.6,12.8,2.6,19.2,3.9c0.6,0.1,1-0.3,0.9-0.9c-0.4-2.4-0.8-4.8-1.2-7.2c-0.5,0.1-0.9,0.2-1.4,0.4c0.7,4.1,2.1,8,3.8,11.8
					c1.4,3.1,3,6.3,5.3,8.9c4.3,4.9,11.3,5.4,17.3,3.7c5.3-1.5,10.4-5.2,12-10.6c1-3.5,0.5-7.2-0.4-10.6c-1.1-4.4-2.6-8.7-4-13
					c-0.3-0.9-1.7-0.5-1.4,0.4c0.7,2.8,1.5,5.6,2.3,8.4c0.2,0.7,1.2,0.6,1.4,0c2.3-5.7,9.3-7.5,14.1-3.6c0.7,0.6,1.8-0.4,1-1
					c-5.7-4.6-13.8-2.5-16.6,4.3c0.5,0,0.9,0,1.4,0c-0.7-2.8-1.5-5.6-2.3-8.4c-0.5,0.1-0.9,0.2-1.4,0.4c1,3.3,2.1,6.7,3.1,10
					c1,3.4,2.1,7,1.7,10.6c-0.7,6.1-5.8,10.2-11.4,11.8c-6.4,1.9-13.1,0.8-17.1-4.9c-3.7-5.3-6.4-12-7.4-18.4
					c-0.1-0.9-1.6-0.5-1.4,0.4c0.4,2.4,0.8,4.8,1.2,7.2c0.3-0.3,0.6-0.6,0.9-0.9c-4.5-0.9-9.1-1.9-13.7-2.8
					c-2.1-0.4-4.9-0.6-6.8-1.6c-2.3-1.3-1.8-4-1.2-6.3c-0.2,0.2-0.5,0.3-0.7,0.5c1.3-0.1,2.9,0.5,4.2,0.7c1.7,0.3,3.4,0.6,5.1,0.9
					c3.4,0.6,6.8,1.2,10.2,1.8c6.3,1,12.2-1.6,18.1-3.6c12.8-4.4,25.3-9.5,37.4-15.3c0.8-0.4,0.2-1.6-0.6-1.3
					c-1.7,0.4-3.4,0.9-5,1.3c0.1,0.5,0.2,0.9,0.4,1.4c2.9-0.9,5.8-1.9,8.7-2.8c1.3-0.4,3.8-1.8,4.9-0.4c0.8,0.9,1,3.1,1.3,4.3
					c0.8,2.9,1.7,5.8,2.5,8.7c0.8,3,2.1,6.3,1.1,9.4c-1,3.5-3.7,4.5-7.1,4.5c-1.7,0-3.7,0-4.9-1.3c-1-1.1-1.5-2.7-2.1-4.1
					c-2.1-5.5-3.9-11-5.7-16.7C824.2,102.7,822.8,103.1,823.1,104L823.1,104z"/>
			</g>
		</g>
		
			<ellipse transform="matrix(1.837729e-03 -1 1 1.837729e-03 711.876 1019.8194)" class="st18" cx="866.8" cy="153.3" rx="5.6" ry="5.6"/>
		
			<ellipse transform="matrix(1.837729e-03 -1 1 1.837729e-03 673.2167 1058.2067)" class="st18" cx="866.7" cy="191.9" rx="5.6" ry="5.6"/>
		
			<ellipse transform="matrix(1.837729e-03 -1 1 1.837729e-03 655.9387 1075.4117)" class="st18" cx="866.7" cy="209.1" rx="5.6" ry="5.6"/>
		
			<ellipse transform="matrix(1.837729e-03 -1 1 1.837729e-03 639.6367 1091.6218)" class="st18" cx="866.6" cy="225.4" rx="5.6" ry="5.6"/>
		
			<ellipse transform="matrix(1.837729e-03 -1 1 1.837729e-03 624.2291 1108.9077)" class="st18" cx="867.6" cy="241.8" rx="5.6" ry="5.6"/>
		
			<ellipse transform="matrix(1.837729e-03 -1 1 1.837729e-03 613.3967 1130.6853)" class="st18" cx="873.1" cy="258.1" rx="5.6" ry="5.6"/>
	</g>
	<g>
		<g>
			<path d="M637,133.2c1.2-3.7-0.7-7.9-3.8-10.3s-7.1-3.4-11-4.1c-3.1-0.5-6.3-0.8-9.4-1c-2-0.1-4.3-0.1-5.9,1.2
				c-2.9,2.2-2.1,6.8,0,9.8c2.9,4,7.4,6.5,12.2,7.7s9.8,1.1,14.7,0.5c1.6-0.2,3.5-0.6,4.3-2c0.3-0.7,0.4-1.4,0.4-2.1
				c0.1-2.9-0.4-6.5-3.2-7.2"/>
			<g>
				<path class="st1" d="M638.2,133.5c2.1-7.4-4.4-13-11-14.9c-4.1-1.2-8.5-1.7-12.8-2c-3.3-0.2-7.4-0.4-9.6,2.5
					c-4.1,5.4,1.6,12.3,6.1,15.3c6.7,4.4,15.6,4.8,23.4,3.8c3.9-0.5,5.5-2.6,5.4-6.5c-0.1-3-1-6.3-4.2-7.4c-1.6-0.5-2.3,2-0.7,2.5
					c2.7,0.9,3.4,7.2,0.8,8.4c-1.5,0.6-3.6,0.6-5.2,0.7c-1.9,0.1-3.8,0.1-5.8,0c-6.5-0.4-14.4-3-17.5-9.1c-1.5-2.9-1.5-6.9,2.4-7.6
					c3.7-0.7,8.5,0.2,12.2,0.8c6.3,1.1,16.2,4.5,13.9,12.7C635.2,134.5,637.8,135.1,638.2,133.5L638.2,133.5z"/>
			</g>
		</g>
		<g>
			<path class="st2" d="M598.4,121.4c-1.9,1.1-2.8,3.4-2.6,5.5s1.3,3.9,2.5,5.5c1.6,2.3,3.6,4.5,6.2,5.7c5.8,2.7,13.9-0.7,16.5-6.5
				c2.5-5.8-0.9-12.8-6.9-14.9s-13.8,0.7-17.3,6"/>
		</g>
		
			<ellipse transform="matrix(1.837724e-03 -1 1 1.837724e-03 462.9043 761.7777)" class="st19" cx="613" cy="149" rx="12.4" ry="12.6"/>
		<g>
			<path class="st5" d="M605.6,181.2c1.6-8.5-1.6-17.7-8.2-23.4c-0.8-0.7-2-1.4-3-0.9l9.9,9.1c2.8-9.1-0.5-19.6-7.9-25.6l6.1,6.4
				l-0.6-0.3c2-3.5,4.1-6.9,6.1-10.4c3.4-5.7,6.8-11.6,8.1-18l-5.7,16.3c3.7-7.8,7.5-16,7-24.6c-0.8-11.9-10.3-22.4-21.8-26.1
				C584,79.8,571,82,560.4,87.8c-10.6,5.7-19.2,14.7-26.3,24.5c-16.8,23-25.9,51.7-23.6,79.8c1.1,13.5,5,27.2,14.1,37.4
				c6.1,6.9,14.2,11.8,22.8,15.4c9.3,4,19.3,6.6,29.4,6.3c10.1-0.3,20.3-3.8,27.5-10.8c11.7-11.3,13.5-29.7,8.4-44.9
				c-2.5-7.5-6.7-14.6-12.8-19.6c-6.2-5-14.5-7.7-22.4-6.2"/>
			<g>
				<path class="st5" d="M606.2,181.4c0.9-5.2,0.2-10.5-2-15.4c-1.1-2.5-2.6-4.8-4.5-6.8c-1.4-1.5-3.3-3.7-5.5-2.9
					c-0.4,0.2-0.7,0.7-0.3,1.1c3.3,3,6.6,6,9.9,9.1c0.4,0.3,1,0.2,1.1-0.3c2.7-9.4-0.5-19.9-8.1-26.2c-0.7-0.5-1.5,0.3-0.9,0.9
					c2,2.1,4.1,4.3,6.1,6.4c0.3-0.3,0.5-0.7,0.8-1c-0.2-0.1-0.4-0.2-0.6-0.3c0.1,0.3,0.2,0.6,0.2,0.9c5.3-9,12-18.2,14.2-28.6
					c0.2-0.8-1-1.1-1.3-0.3c-1.9,5.4-3.8,10.8-5.7,16.3c-0.2,0.7,0.9,1.2,1.2,0.5c3.4-7.2,6.9-14.6,7.1-22.6
					c0.1-6.5-2.1-12.7-6.2-17.8c-8.8-11.2-23.6-15-37.4-12.2c-15.2,3.1-27.6,13.2-37.1,24.9c-9.7,12-17.2,25.8-22,40.3
					c-4.8,14.7-6.9,30.5-5.5,46c1.3,14.6,6.1,29.5,17.2,39.9c5.6,5.2,12.2,9.1,19.2,12.1c7.5,3.3,15.6,5.8,23.8,6.5
					c14.3,1.2,29.6-3.4,38.3-15.2c7.8-10.7,9-25,5.8-37.5c-3.4-13.4-12.5-26.8-27-29.8c-3.3-0.7-6.7-0.7-10.1-0.1
					c-0.8,0.2-0.5,1.4,0.4,1.3c15.7-2.9,28.2,9.5,33.4,22.7c4.7,11.7,5.2,25.6-0.3,37.2c-6.1,12.7-19.3,19.7-33.3,20.3
					c-15.2,0.7-31.2-5.1-43.5-13.7c-24.8-17.4-26.3-52.2-20.1-79c3.2-14,9-27.4,16.9-39.5c7.7-12,17.5-23.4,30.4-30.2
					c12.7-6.7,29-8.5,41.6-0.6c5.5,3.4,10,8.5,12.4,14.5c2.7,6.8,1.9,14-0.4,20.8c-1.3,3.8-3,7.5-4.7,11.1c0.4,0.2,0.8,0.3,1.2,0.5
					c1.9-5.4,3.8-10.8,5.7-16.3c-0.4-0.1-0.8-0.2-1.3-0.3c-2.1,10.2-8.9,19.3-14.1,28.3c-0.2,0.3-0.1,0.7,0.2,0.9
					c0.2,0.1,0.4,0.2,0.6,0.3c0.7,0.3,1.3-0.5,0.8-1c-2-2.1-4.1-4.3-6.1-6.4c-0.3,0.3-0.6,0.6-0.9,0.9c7.2,6.1,10.3,15.9,7.7,25
					c0.4-0.1,0.7-0.2,1.1-0.3c-3.3-3-6.6-6-9.9-9.1c-0.1,0.3-0.2,0.7-0.3,1.1c0.7-0.2,2.3,0.7,2.9,1.1c0.4,0.3,0.8,0.8,1.2,1.2
					c0.8,0.9,1.5,1.7,2.2,2.7c1.2,1.8,2.2,3.7,3,5.7c1.5,4.1,1.9,8.5,1.1,12.7C604.8,181.8,606.1,182.2,606.2,181.4L606.2,181.4z"/>
			</g>
		</g>
		<g>
			<path class="st2" d="M562.3,114.4c-1.9,1.1-2.8,3.4-2.6,5.5c0.2,2,1.3,3.9,2.5,5.5c1.6,2.3,3.6,4.5,6.2,5.7
				c5.8,2.7,13.9-0.7,16.5-6.5c2.5-5.8-0.9-12.8-6.9-14.9s-13.8,0.7-17.3,6"/>
		</g>
		<path class="st3" d="M588.2,161.7c1-5.5,14.7-7.7,30.6-5S647,166,646,171.5s-14.7,7.7-30.6,5C599.4,173.8,587.3,167.1,588.2,161.7
			z"/>
		<g>
			<path d="M546.5,108.4c-1.3-3.6-5.5-5.8-9.4-5.8c-4-0.1-7.7,1.6-11.2,3.4c-2.8,1.5-5.5,3.1-8.1,4.9c-1.7,1.2-3.4,2.6-3.9,4.5
				c-0.9,3.5,2.6,6.6,6.1,7.7c4.7,1.4,9.9,0.7,14.4-1.3s8.4-5.1,12-8.4c1.2-1.1,2.4-2.6,2.1-4.2c-0.1-0.7-0.6-1.3-1-1.9
				c-1.7-2.3-4.4-4.9-7-3.7"/>
			<g>
				<path class="st1" d="M547.1,108.2c-2.5-6.2-9.9-7.2-15.6-5.4c-3.8,1.2-7.4,3.3-10.7,5.4c-2.6,1.6-6.1,3.5-7.3,6.4
					c-2.7,6.7,6.9,9.9,11.8,9.9c7.7-0.1,14.4-4.3,19.9-9.2c2.5-2.2,5.3-4.7,3-8.1c-1.8-2.6-4.6-5.5-8-4.4c-0.8,0.3-0.4,1.5,0.4,1.3
					c2.3-0.8,4.2,0.9,5.6,2.5c0.8,1,2,2.3,1.6,3.6c-0.2,1-1.2,1.9-1.9,2.6c-2.3,2.4-5.1,4.5-7.9,6.3c-5.7,3.5-14.6,6.1-20.6,1.9
					c-1.5-1-2.9-2.6-2.9-4.5c0-2.3,2-3.9,3.8-5.2c2.8-1.9,5.7-3.7,8.8-5.3c5.7-2.9,15.7-5.4,19,2.4
					C546.2,109.3,547.5,109,547.1,108.2L547.1,108.2z"/>
			</g>
		</g>
		<g>
			<path class="st6" d="M607.4,134.1c-0.7,0.3-0.9,1.1-0.9,1.8c0.1,0.7,0.4,1.3,0.8,1.8c0.5,0.7,1.2,1.5,2.1,1.9
				c1.9,0.9,4.6-0.3,5.5-2.2s-0.3-4.3-2.3-4.9c-2-0.7-4.6,0.3-5.8,2"/>
			<g>
				<path class="st6" d="M606.7,133c-2.8,2.1-1.1,5.7,1.4,7.4c2.4,1.6,5.9,0.7,7.5-1.6c1.7-2.4,0.7-5.9-1.9-7.2
					c-2.8-1.5-6.2-0.1-8,2.3c-1,1.3,1.3,2.6,2.3,1.3c0.8-1.1,2.3-1.7,3.6-1.6c1.5,0.2,2.7,1.8,2.1,3.3c-0.5,1.1-1.9,1.9-3.1,1.7
					c-0.9-0.1-3.6-2.5-2.4-3.3C609.4,134.2,608,132,606.7,133L606.7,133z"/>
			</g>
		</g>
		<g>
			<path class="st6" d="M573.9,126.7c-0.7,0.3-0.9,1.1-0.9,1.8c0.1,0.7,0.4,1.3,0.8,1.8c0.5,0.7,1.2,1.5,2.1,1.9
				c1.9,0.9,4.6-0.3,5.5-2.2c0.8-1.9-0.3-4.3-2.3-4.9c-2-0.7-4.6,0.3-5.8,2"/>
			<g>
				<path class="st6" d="M573.2,125.6c-2.8,2.1-1.1,5.7,1.4,7.4c2.4,1.6,5.9,0.7,7.5-1.6c1.7-2.4,0.7-5.9-1.9-7.2
					c-2.8-1.5-6.2-0.1-8,2.3c-1,1.3,1.3,2.6,2.3,1.3c0.8-1.1,2.3-1.7,3.6-1.6c1.5,0.2,2.7,1.8,2.1,3.3c-0.5,1.1-1.9,1.9-3.1,1.7
					c-0.9-0.1-3.6-2.5-2.4-3.3C575.9,126.8,574.5,124.5,573.2,125.6L573.2,125.6z"/>
			</g>
		</g>
		<g>
			<path d="M600.7,139.5c-3.1-1.9-6.8-2.9-10.5-3c-0.1,2.8,0.4,5.6,1.5,8.2c0.2,0.5,0.4,1,0.9,1.2c0.7,0.4,1.7,0,2.5-0.4
				c2.4-1.3,4.5-3.1,6.4-5.1"/>
			<g>
				<path class="st1" d="M601.4,138.3c-3.4-2-7.2-3-11.1-3.2c-0.7,0-1.3,0.6-1.3,1.3c0,2.3,0.2,4.6,0.9,6.8c0.4,1.4,0.9,3.3,2.5,4
					c1.7,0.7,3.4-0.4,4.8-1.3c2-1.3,3.8-2.8,5.3-4.5c1.1-1.2-0.7-3.1-1.8-1.8c-0.8,0.9-1.7,1.8-2.7,2.6c-0.9,0.8-2.8,2.5-4.1,2.4
					c-1-0.1-1-0.6-1.3-1.6c-0.2-0.6-0.4-1.2-0.5-1.9c-0.3-1.5-0.4-3-0.4-4.6c-0.4,0.4-0.9,0.9-1.3,1.3c3.5,0.1,6.8,1.1,9.8,2.8
					C601.5,141.4,602.8,139.2,601.4,138.3L601.4,138.3z"/>
			</g>
		</g>
		<g>
			<path d="M594.5,141.7c-4-1.7-8.9-1.5-13.5,0.5c-2.1,0.9-4.1,2.2-5.7,4.1s-2.4,4.3-1.9,6.3c0.7,2.8,3.9,3.8,6.9,3s5.6-3,8-5.3
				c2.4-2.4,4.6-4.9,6.6-7.7c0.2-0.3,0.4-0.6,0.7-0.7c0.3-0.1,0.6,0,0.9,0c4.5,1.3,8.9,3.9,10.2,8.6c0.5,2,0.3,4.7-1.6,6.2
				c-1.1,0.9-2.5,1.1-3.7,0.9c-2.9-0.4-4.7-3-5.4-6c-0.7-2.9-0.3-6.2,0.1-9.4"/>
			<g>
				<path class="st1" d="M594.8,140.5c-6-2.4-13.4-1-18.4,2.9c-3.8,3-7.1,10.2-1.3,13.1c5.9,3,12.1-3.1,15.8-6.9
					c1.2-1.3,2.4-2.7,3.5-4.2c0.4-0.5,0.9-1.5,1.4-1.9c0.6-0.4,0.1-0.3,0.9-0.2c0.4,0,1,0.3,1.5,0.5c3,1.2,6,3.2,7,6.4
					c0.6,1.6,0.6,3.8-0.7,5.2c-1.6,1.7-4.2,1-5.6-0.5c-3-3.2-2-8.6-1.6-12.6c0.2-1.6-2.5-1.7-2.6,0c-0.6,5.5-1.3,14.6,5.7,16.4
					c6.5,1.7,9-5.6,6.8-10.4c-1.2-2.7-3.5-4.7-6.1-6c-2-1-5.2-2.8-7.1-0.9c-1.3,1.3-2.3,3.1-3.6,4.5c-1.4,1.6-2.8,3.1-4.3,4.5
					c-2.4,2.2-6.9,5.8-10.3,3.5c-4.4-2.9,1.7-8.7,4.4-10.1c4.2-2.2,9.3-2.7,13.7-1C595.7,143.6,596.4,141.1,594.8,140.5L594.8,140.5
					z"/>
			</g>
		</g>
		<g>
			<path class="st7" d="M596.5,149.4c-0.5-2.4-3.7-3.8-5.8-2.7c-0.9,0.5-1.5,1.3-2.2,2.1c-2.8,3.7-4.8,8.1-5.8,12.6
				c-0.6,2.6-0.5,5.9,2,7.1c2.5,1.1,5.2-0.9,7-2.9c2.3-2.5,4.6-5.2,5.6-8.4c1.1-3.2,0.8-7-1.5-9.5c-0.7-0.8-1.7-1.4-2.7-1.3
				c-0.7,0.1-1.3,0.5-1.9,1c-3,2.6-5.3,6.1-6.3,9.9"/>
			<g>
				<path class="st7" d="M597.8,149c-0.7-2.3-2.7-3.9-5.1-4c-3-0.1-4.7,2.2-6.2,4.3c-2,2.9-3.5,6.2-4.5,9.6
					c-0.8,2.6-1.4,5.5-0.3,8.1c1,2.3,3.4,3.5,5.9,2.9c3.2-0.8,5.6-3.8,7.5-6.2c3.6-4.5,6.3-11.4,2.1-16.5
					c-5.6-6.9-12.2,5.1-13.5,9.6c-0.4,1.6,2.1,2.3,2.6,0.7c0.8-2.7,2-5.2,3.9-7.4c0.9-1,2.4-2.8,4-2.3c1.2,0.3,2,2.6,2.2,3.6
					c1.2,5.3-2.8,10.7-6.6,14.1c-1,0.9-2.6,2.2-4.1,1.8c-1.4-0.3-1.8-1.8-1.9-3c-0.2-2.3,0.7-4.7,1.5-6.9c1-2.6,2.3-5.2,4-7.5
					c0.7-1,1.6-2.3,3-2.5c1.4-0.1,2.7,0.8,3,2.1C595.7,151.3,598.3,150.6,597.8,149L597.8,149z"/>
			</g>
		</g>
		<g>
			<g>
				<path d="M576.7,83c0.9-2.5,10-1.8,20.3,1.6c10.4,3.4,18.1,8.1,17.2,10.6c-0.9,2.5-10,1.8-20.3-1.6S575.8,85.5,576.7,83z"/>
				<path d="M585,59.5c0.9-2.5,10-1.8,20.3,1.6c10.4,3.4,18.1,8.1,17.2,10.6s-10,1.8-20.3-1.6C591.8,66.7,584.1,61.9,585,59.5z"/>
				<g>
					<g>
						<path class="st0" d="M587.1,61c0.8,0,0.8-1.3,0-1.3C586.2,59.7,586.2,61,587.1,61L587.1,61z"/>
					</g>
				</g>
				<g>
					<path d="M584.8,59.9c0.5,0.2,0.4-1-0.1-0.9c-0.6,0-0.8,0.7-1,1.2c-2.1,7.5-4.3,15.1-6.4,22.6c-0.1,0.4-0.2,0.8-0.1,1.2
						c0.2,0.8,1,1.2,1.8,1.4c11.4,4.2,23.5,7,35.7,8.1c3.9-6.5,6.8-13.6,8.4-20.9c0.2-0.8,0.3-1.6,0-2.3c-0.5-1-1.7-1.2-2.8-1.4
						c-11.9-2.1-23.7-5-35.1-8.7c-0.6-0.2-1.3-0.3-1.6,0.2s0.9,0.9,0.7,0.3L584.8,59.9z"/>
					<g>
						<path d="M584.8,60.6c1-0.1,1.5-1.4,0.5-2c-2-1.3-2.7,3.2-2.9,3.9c-1.1,3.8-2.1,7.5-3.2,11.3c-0.5,1.7-1,3.5-1.5,5.2
							c-0.4,1.4-1.3,3.2-1.2,4.7c0.1,2.3,3.6,2.9,5.3,3.5c3.6,1.2,7.2,2.3,10.9,3.3c7.2,1.8,14.5,3.1,21.9,3.8
							c0.2,0,0.4-0.1,0.6-0.3c3.6-6.1,6.4-12.7,8.1-19.6c0.5-2,1.2-4.4-1.1-5.5c-1.1-0.6-2.6-0.6-3.8-0.9c-1.9-0.4-3.9-0.7-5.8-1.1
							c-7.6-1.6-15.1-3.5-22.4-5.7c-1.7-0.5-3.6-1.4-5.3-1.6c-0.6-0.1-1.4-0.1-1.9,0.5c-0.7,1,0.3,1.8,1.4,1.6
							c0.3,0,0.4-0.3,0.5-0.6c0-0.2,0.4-0.6,0.5-0.8c0.4-0.7-0.7-1.4-1.1-0.7c-0.3,0.5-0.6,0.9-0.7,1.5c0.2-0.2,0.3-0.4,0.5-0.6
							c0.1,0,1.7,0.7,1.8,0.8c0.4,0.1,0.8,0.3,1.2,0.4c0.9,0.3,1.9,0.6,2.8,0.9c2,0.6,4.1,1.2,6.1,1.7c3.9,1.1,7.9,2.1,11.9,3
							s8,1.7,12,2.4c1.2,0.2,2.6,0.6,2.9,2c0.2,0.8-0.4,2.1-0.6,2.9c-0.5,1.9-1,3.8-1.7,5.6c-1.3,3.8-2.9,7.4-4.8,10.9
							c-0.4,0.8-0.7,1.7-1.6,2c-0.7,0.2-2.1-0.2-2.9-0.3c-2.2-0.3-4.5-0.6-6.7-1c-7.8-1.3-15.4-3.3-22.9-5.9
							c-1.5-0.5-3.1-0.9-3.5-2.7c-0.2-0.8,0.7-2.4,0.9-3.3c0.6-2.2,1.2-4.3,1.8-6.5c0.7-2.3,1.3-4.6,2-6.9c0.2-0.8,1.6-7.2,2.1-7.2
							C584,59.4,584,60.7,584.8,60.6z"/>
					</g>
				</g>
			</g>
			<path class="st8" d="M595.7,88.3c1.6-3,9.6-1.9,17.9,2.3c8.3,4.3,13.8,10.1,12.3,13.1s-9.6,1.9-17.9-2.3S594.1,91.3,595.7,88.3z"
				/>
		</g>
		<g>
			<path class="st9" d="M674.7,125.7c3.4-4.3,7-8.9,7.9-14.3s-1.8-11.8-7.2-13.2c-4.7-1.2-9.6,1.7-14.4,1.3
				c-5.2-0.4-9.3-4.6-12.5-8.7c-3.3-4-6.7-8.5-11.7-10.1c-4.7-1.5-10,0.1-14,2.9c-4,2.9-7,6.9-9.9,10.9c5-6.8,16-8.4,22.8-3.2
				c5.2,4,7.6,10.9,13.2,14.3c2.2,1.3,4.8,2,7.3,2c3.1,0,6.1-1.1,9.2-1.6c3-0.5,6.5-0.2,8.8,1.8c2.1,2,2.5,5.2,2.4,8.1
				c-0.2,2.9-0.9,5.8-0.7,8.7L674.7,125.7z"/>
			<g>
				<path class="st9" d="M675.2,126.2c4.3-5.4,9.2-11.7,8.1-19c-0.9-6.2-5.7-10.6-12.2-9.9c-4.2,0.5-8.3,2.3-12.5,0.9
					c-4.1-1.4-7-4.8-9.6-8c-4.4-5.4-9.2-11.3-17-10.8c-9,0.6-14.9,8-19.6,14.7c-0.5,0.7,0.7,1.3,1.1,0.7c3.3-4.3,8.8-6.4,14.1-5.9
					c6.3,0.5,10.1,4.8,13.6,9.6c3.1,4.2,6.4,8.3,11.8,9.4c6.3,1.4,12.7-3.3,18.7-0.8c4,1.6,4.4,6,4.1,9.6c-0.2,2-0.6,3.9-0.7,5.9
					c0,0.6,0.2,1.3,0,1.8c-0.1,0.3-0.6,0.6-0.8,0.8C673.6,125.9,674.6,126.8,675.2,126.2c0.4-0.4,1-0.8,1.2-1.3s0-1.3,0-1.8
					c0-1,0.1-2.1,0.3-3.2c0.4-3.3,1-6.6-0.2-9.8c-2.6-6.6-10.3-5-15.8-3.8c-4.5,1-9,0.7-12.8-2.3c-2.6-2.1-4.5-4.9-6.4-7.6
					c-3.4-4.6-7.3-8.2-13.2-8.9c-6-0.7-12.2,1.7-15.8,6.5c0.4,0.2,0.7,0.4,1.1,0.7c4.2-5.9,9.2-12.4,16.9-13.8
					c7.9-1.5,12.8,4.3,17.2,9.7c3.7,4.6,8.4,9.6,14.9,9.4c3.4-0.1,6.7-1.5,10.1-1.6c3.7-0.1,6.6,1.8,8.2,5
					c3.9,7.9-1.8,15.7-6.6,21.7C673.7,125.9,674.7,126.8,675.2,126.2z"/>
			</g>
		</g>
		<g>
			<g>
				<path class="st20" d="M694.6,210.6c-3.4-4.6-7.5-8.6-12.3-11.7c-0.7,1.6-1.4,3.2-2,4.8c2.8,0.6,5.2,2,7,4.2c1-1.3,2-2.6,3-3.8
					c-2.1-0.7-4-1.7-5.7-3.1c-1.1,1.3-2.1,2.7-3.2,4.1c3.3,2.4,6.3,5.3,8.8,8.5c1.2-1.2,2.4-2.4,3.6-3.5c-0.7-0.3-1.1-0.6-1-1.3
					c-1.5,0.4-3,0.8-4.4,1.1c1.5,1.9,2.2,4.4,1.7,6.8c1.7,0.2,3.5,0.5,5.2,0.7c0-0.7,0-1.2,0.2-1.8c0.3-1.1,1.4-1.4,0-2
					s-0.6,0.3-0.8,1.3c-0.1,0.8-0.4,1.5-0.7,2.3c1.5,0.9,3,1.7,4.6,2.7c1.2-2.4,2.6-4.6,4.4-6.6c1.9-2.2-0.5-5.6-3.2-4.1
					c-1.6,0.9-3.1,1.7-4.7,2.6c1.2,1.2,2.4,2.4,3.6,3.6c2.3-5.1,5.7-9.4,10-13c-1.5-0.8-3-1.7-4.4-2.5c-1.3,3.4-3.3,6.4-5.9,9
					c1.4,1,2.8,2.1,4.1,3.2c1.6-2.9,3.6-5.4,6.1-7.6c-1.2-1.2-2.5-2.5-3.7-3.7c-2.7,2.6-5.8,4.6-9.4,6.1c1.1,1.3,2.1,2.7,3.2,4.1
					c1.9-2.3,3.9-4.6,5.9-6.9c1.5-1.8,0.1-5.4-2.5-4.3c-3.1,1.2-6.3,2.4-9.4,3.5c0.8,1.4,1.7,2.9,2.5,4.3c2-1.8,4.1-3.5,6.1-5.3
					c1.7-1.5,0.4-4.6-1.8-4.4c-4.7,0.3-9.2,1.2-13.5,2.8c-2.3,0.9-2.7,4.3,0,5c3.2,0.8,6-0.8,7.1-3.8c0.4-1-0.2-2.5-1.2-3
					c-4.1-1.7-8.2-2.7-12.6-3.1c-3.4-0.2-3.3,4.9,0,5.2c1.5,0.2,3,0,4.5-0.3c2.1-0.4,2.7-3.9,0.6-4.8c-1.4-0.6-2.9-1.2-4.3-1.9
					c-2.6-1.1-5.5,1.9-3.2,4.1c1.2,1.2,2.6,1.7,4.3,1.7c3,0,3.6-4.3,0.7-5.1c-1.1-0.3-2.2-0.6-3.4-1c-3.3-0.9-4.6,3.9-1.4,5
					c3.2,1.1,6.5,1.5,9.8,1.1c1.9-0.2,3.4-2.1,2.3-3.9c-1.3-2.3-4.5-2.7-6.4-0.8c-1.5,1.6-0.6,3.6,1.1,4.3c4.9,2,10,3.5,15.3,4.3
					c0.2-1.7,0.5-3.4,0.7-5.1c-3.7-0.4-7.4-0.8-11.1-1.1c-3.2-0.3-3.3,4.2-0.7,5.1c4.2,1.6,8.5,2.4,13,2.7c3,0.2,3.5-4.3,0.7-5.1
					c-3.2-1-6.5-1.4-9.9-1.3c-2.2,0-3.7,2.9-1.9,4.4c0.9,0.8,1.8,1.5,2.6,2.3c1.1-1.3,2.1-2.7,3.2-4.1
					c-12.4-6.7-24.8-13.3-37.3-19.9c-1.8-1-3.6-1.9-5.3-2.9c-0.9,1.5-1.8,3-2.7,4.5c9.2,4.9,17.5,11.1,24.7,18.6
					c3.5,3.7,6.8,7.6,9.6,11.9c2.9,4.2,6.6,9.5,5.6,14.8c-0.6,2.8,3.2,4.6,4.8,2c6.5-10.6,13.1-21.1,19.6-31.7c1-1.6-0.3-4-2.3-3.9
					c-11.9,0.7-23.7-1-34.9-5c-10-3.6-19.2-9.2-28.5-14.4c-9.1-5.1-18.4-10.1-28.5-12.8c-9.2-2.5-23.3-4-27.2,7.2
					c-1.7,5.1,1.1,9.4,4.3,13.2c3.3,4,7,7.8,11,11.2c7.8,6.8,16.6,12.5,26.2,16.7c8.5,3.8,20.7,8.5,27.9-0.3c5.7-7,4.5-17-0.5-23.9
					c-3.4-4.7-8.1-8.3-12.8-11.6c-5.4-3.7-10.9-7.3-16.5-10.7c-11.8-7.2-24-13.7-36.1-20.5c-3-1.7-5.6,2.9-2.7,4.5
					c9.7,5.4,19.4,10.7,29,16.2c9.2,5.3,18.4,10.7,26.8,17.2c6.4,4.8,13,11.9,11.1,20.5c-0.8,3.3-2.7,6.5-6.1,7.7
					c-4.8,1.6-10.2-0.7-14.6-2.4c-8.8-3.5-17.1-8.4-24.5-14.2c-3.7-3-7.3-6.2-10.5-9.7c-2.6-2.7-7.6-7.1-7-11.2
					c0.7-4.7,6.1-6.5,10.2-6.5c4.8,0,9.7,1.3,14.1,2.8c9.1,3,17.5,7.7,25.8,12.4c9.2,5.3,18.5,10.6,28.6,14.1
					c11.3,4,23.5,5.6,35.5,4.9c-0.7-1.3-1.5-2.6-2.3-3.9c-6.5,10.6-13.1,21.1-19.6,31.7c1.6,0.7,3.2,1.4,4.8,2
					c1.2-6-1.3-11.5-4.5-16.4c-3.1-4.9-6.6-9.5-10.6-13.8c-7.7-8.5-17-15.6-27.3-21c-3-1.6-5.7,2.9-2.7,4.5
					c12.4,6.7,24.8,13.3,37.3,19.9c1.8,1,3.6,1.9,5.3,2.9c2.6,1.3,5.6-2,3.2-4.1c-0.9-0.8-1.8-1.5-2.6-2.3c-0.6,1.5-1.2,2.9-1.9,4.4
					c2.9-0.1,5.7,0.3,8.5,1.1c0.2-1.7,0.5-3.4,0.7-5.1c-4-0.2-7.8-1.1-11.6-2.5c-0.2,1.7-0.5,3.4-0.7,5.1c3.7,0.4,7.4,0.8,11.1,1.1
					c3,0.3,3.7-4.6,0.7-5.1c-5.3-0.8-10.4-2.3-15.3-4.3c0.4,1.4,0.8,2.9,1.1,4.3c-0.7-0.1-1.3-0.2-1.9-0.3c0.8-1.3,1.5-2.6,2.3-3.9
					c-3,0.3-5.6,0-8.4-1c-0.5,1.7-0.9,3.3-1.4,5c1.1,0.3,2.2,0.6,3.4,1c0.2-1.7,0.5-3.4,0.7-5.1c-0.3,0.1-0.4,0-0.6-0.2
					c-1.1,1.3-2.1,2.7-3.2,4.1c1.4,0.6,2.9,1.2,4.3,1.9c0.2-1.6,0.4-3.2,0.6-4.8c-1.1,0.2-2,0.2-2.9,0.1v5.2c3.3,0.2,6.6,1,9.8,2.4
					c-0.4-1-0.8-2-1.2-3c-0.1,0.3-0.4,0.2-0.6,0.2v5c3.9-1.5,7.9-2.4,12.1-2.6c-0.6-1.5-1.2-3-1.8-4.4c-2,1.8-4.1,3.5-6.1,5.3
					c-1.9,1.6,0.1,5.3,2.5,4.3c3.1-1.2,6.3-2.4,9.4-3.5c-0.8-1.4-1.7-2.9-2.5-4.3c-1.9,2.3-3.9,4.6-5.9,6.9c-2,2.3,0.4,5.3,3.2,4.1
					c3.9-1.7,7.4-4.1,10.4-7c2.5-2.3-1.2-5.9-3.7-3.7c-2.8,2.5-5.1,5.4-6.9,8.7c-1.4,2.6,1.9,5.3,4.1,3.2c3.3-3.2,5.7-7,7.3-11.2
					c1-2.7-2.6-4-4.4-2.5c-4.7,3.8-8.3,8.7-10.8,14.1c-1,2.3,1.1,4.9,3.6,3.6c1.6-0.9,3.1-1.7,4.7-2.6c-1.1-1.3-2.1-2.7-3.2-4.1
					c-2.1,2.3-3.8,4.9-5.2,7.6c-1.5,3,2.9,5.6,4.6,2.7c1.6-2.9,2.9-10.1-1.7-11.2s-7.1,5.4-6.9,8.8c0.1,2.8,4.6,3.7,5.2,0.7
					c0.8-4.4-0.2-8.4-3-11.9c-1.3-1.5-4-0.6-4.4,1.1c-0.7,2.9,0.5,6,3.4,7.2c2.1,0.9,5.4-1.2,3.6-3.5c-3.1-4-6.6-7.4-10.7-10.4
					c-2.4-1.7-5.5,2.2-3.2,4.1c2.4,2,5,3.4,8,4.4c2.1,0.7,4.4-2,3-3.8c-2.6-3.3-5.9-5.7-10.1-6.7c-3-0.7-4.5,3.1-2,4.8
					c4.1,2.7,7.6,6,10.4,9.9C692,215.9,696.5,213.3,694.6,210.6L694.6,210.6z"/>
			</g>
		</g>
		<path class="st3" d="M564.6,170.1c1.5-5.3,15.4-6.2,31-1.9s27,12.1,25.5,17.4c-1.5,5.3-15.4,6.2-31,1.9S563.1,175.4,564.6,170.1z"
			/>
		
			<ellipse transform="matrix(1.837724e-03 -1 1 1.837724e-03 419.9106 708.8724)" class="st19" cx="565" cy="144.1" rx="12.4" ry="12.6"/>
	</g>
</g>
<ellipse class="st0" cx="82.3" cy="296.1" rx="70.3" ry="11.9"/>
<ellipse class="st0" cx="302.3" cy="296.1" rx="70.3" ry="11.9"/>
<ellipse class="st0" cx="527.3" cy="296.1" rx="70.3" ry="11.9"/>
<ellipse class="st0" cx="749.3" cy="296.1" rx="70.3" ry="11.9"/>
</svg>
